<svg width="40" height="40" viewBox="0 0 40 40" fill="none" xmlns="http://www.w3.org/2000/svg">
<path d="M19.0937 0.0210867C8.06072 0.518494 -0.481504 9.86664 0.0210884 20.9026C0.523681 31.9385 9.86961 40.4755 20.9048 39.9792C31.94 39.4829 40.48 30.1274 39.9789 19.0944C39.4778 8.06146 30.1311 -0.481506 19.0937 0.0210867Z" fill="#001E5A"/>
<path d="M24.6368 29.719L19.0879 21.4482H15.6331V14.8516H11.4102V29.719H15.6331V23.8408L19.5768 29.719H24.6368Z" fill="#BFBFBF"/>
<path d="M26.0083 22.638L28.5928 8.68359L15.1272 13.1825C15.1272 13.1825 17.6953 13.8095 20.0865 15.2443L14.6709 21.4803L17.8561 24.251L23.2765 18.0147C25.0302 20.1836 26.0083 22.638 26.0083 22.638Z" fill="#D50982"/>
</svg>
