<svg width="40" height="40" viewBox="0 0 40 40" fill="none" xmlns="http://www.w3.org/2000/svg">
<path d="M19.0937 0.0210867C8.05998 0.518494 -0.481503 9.86664 0.0210901 20.9026C0.523683 31.9385 9.86961 40.4755 20.9048 39.9792C31.94 39.4829 40.48 30.1274 39.9789 19.0944C39.4778 8.06146 30.1311 -0.481506 19.0937 0.0210867Z" fill="#0062AC"/>
<mask id="mask0_4071_99984" style="mask-type:alpha" maskUnits="userSpaceOnUse" x="8" y="8" width="24" height="24">
<path d="M32 20C32 26.6296 26.6274 32 20 32C13.3726 32 8 26.6296 8 20C8 13.3704 13.3726 8 20 8C26.6274 8 32 13.3726 32 20Z" fill="white"/>
</mask>
<g mask="url(#mask0_4071_99984)">
<path d="M32 20C32 26.6296 26.6274 32 20 32C13.3726 32 8 26.6296 8 20C8 13.3704 13.3726 8 20 8C26.6274 8 32 13.3726 32 20Z" fill="white"/>
<path d="M19.9996 31.3988C26.3177 31.3988 31.4396 26.2769 31.4396 19.9588C31.4396 13.6406 26.3177 8.51953 19.9996 8.51953C13.6814 8.51953 8.55957 13.6406 8.55957 19.9588C8.55957 26.2769 13.6814 31.3988 19.9996 31.3988Z" fill="#007BC6"/>
<path d="M20.0483 25.4772C25.0732 25.4772 29.3795 26.8786 31.2272 28.869C31.8625 27.4083 32.1893 25.8322 32.1872 24.2394C32.1872 17.6746 26.7472 12.3594 20.0483 12.3594C13.3495 12.3594 7.90723 17.6738 7.90723 24.2397C7.90579 25.8325 8.23258 27.4085 8.86723 28.8694C10.7113 26.8797 15.0209 25.4772 20.0483 25.4772Z" fill="#007BC6"/>
<path d="M20.0469 25.4895C25.0576 25.4895 29.3599 26.8802 31.1999 28.8543C31.8337 27.4062 32.1606 25.8424 32.1599 24.2617C32.1599 17.7487 26.7358 12.4609 20.0528 12.4609C13.3699 12.4609 7.93653 17.7495 7.93653 24.2632C7.93485 25.844 8.26176 27.4079 8.89653 28.8558C10.731 26.8802 15.0328 25.4895 20.0469 25.4895Z" fill="#007DC7"/>
<path d="M20.0446 25.5021C25.0446 25.5021 29.3301 26.8844 31.1646 28.8414C31.7957 27.4056 32.1207 25.8542 32.119 24.2858C32.119 17.8247 26.7086 12.5625 20.039 12.5625C13.3694 12.5625 7.959 17.8258 7.959 24.2877C7.95654 25.8567 8.2836 27.4087 8.919 28.8432C10.7542 26.8814 15.0438 25.5021 20.0446 25.5021Z" fill="#007FC9"/>
<path d="M20.0415 25.5124C25.0289 25.5124 29.3048 26.8827 31.1345 28.8228C31.7658 27.4002 32.0904 25.8606 32.087 24.3042C32.087 17.8968 26.6911 12.6602 20.0415 12.6602C13.3919 12.6602 8.00001 17.899 8.00001 24.3076C7.99778 25.8626 8.3218 27.4008 8.95112 28.8228C10.7778 26.879 15.0559 25.5124 20.0415 25.5124Z" fill="#0080CA"/>
<path d="M20.0413 25.5271C25.0158 25.5271 29.2798 26.8871 31.1047 28.8112C31.7342 27.4012 32.0581 25.8739 32.055 24.3297C32.055 17.976 26.6735 12.7656 20.0413 12.7656C13.4091 12.7656 8.0254 17.9775 8.0254 24.3338C8.02367 25.8779 8.34776 27.405 8.97651 28.8153C10.7998 26.8808 15.0669 25.5271 20.0413 25.5271Z" fill="#0081CB"/>
<path d="M20.042 25.5379C25.002 25.5379 29.2549 26.8827 31.0757 28.7972C31.7021 27.3993 32.0252 25.8846 32.0238 24.3527C32.0238 18.0513 26.6557 12.8672 20.042 12.8672C13.4283 12.8672 8.05567 18.0524 8.05567 24.3561C8.05425 25.888 8.37766 27.4028 9.00456 28.8005C10.822 26.8827 15.0797 25.5379 20.042 25.5379Z" fill="#0083CC"/>
<path d="M20.0399 25.5532C24.9862 25.5532 29.2295 26.8891 31.0447 28.7836C31.6708 27.3987 31.9932 25.8959 31.9903 24.3762C31.9903 18.1273 26.6384 12.9688 20.0399 12.9688C13.4414 12.9688 8.08693 18.1273 8.08693 24.3762C8.08474 25.8959 8.40711 27.3985 9.03248 28.7836C10.8447 26.8899 15.091 25.5532 20.0399 25.5532Z" fill="#0085CE"/>
<path d="M20.0374 25.5668C24.9726 25.5668 29.2056 26.8883 31.0152 28.7668C31.6393 27.3959 31.9611 25.9068 31.9586 24.4005C31.9582 18.2042 26.6189 13.0742 20.0374 13.0742C13.456 13.0742 8.11818 18.2042 8.11818 24.4005C8.11525 25.9069 8.43634 27.3962 9.05967 28.7676C10.8667 26.889 15.0997 25.5668 20.0374 25.5668Z" fill="#0087CF"/>
<path d="M20.0344 25.5757C24.9577 25.5757 29.1792 26.8861 30.9855 28.7517C31.6068 27.3916 31.9274 25.9136 31.9255 24.4183C31.9255 18.2743 26.5992 13.168 20.0344 13.168C13.4696 13.168 8.14552 18.2743 8.14552 24.4191C8.14369 25.9143 8.46431 27.3923 9.08552 28.7524C10.8888 26.8869 15.1111 25.5757 20.0344 25.5757Z" fill="#0089D1"/>
<path d="M20.0317 25.5912C24.9413 25.5912 29.1517 26.8897 30.9543 28.7394C31.5748 27.3922 31.8953 25.9263 31.8936 24.4431C31.8936 18.352 26.5784 13.2734 20.0317 13.2734C13.485 13.2734 8.17579 18.3508 8.17579 24.4431C8.17404 25.9258 8.4928 27.3913 9.11023 28.7394C10.9128 26.8894 15.1199 25.5912 20.0317 25.5912Z" fill="#008BD2"/>
<path d="M20.0321 25.6035C24.9306 25.6035 29.1273 26.8902 30.9243 28.7235C31.5437 27.39 31.8636 25.9371 31.8617 24.4669C31.8617 18.4298 26.5654 13.375 20.0321 13.375C13.4988 13.375 8.20508 18.4276 8.20508 24.4661C8.20425 25.9351 8.52337 27.3866 9.14026 28.7198C10.9362 26.8902 15.1347 25.6035 20.0321 25.6035Z" fill="#008DD3"/>
<path d="M20.0318 25.618C24.9118 25.618 29.1014 26.898 30.8936 28.7106C31.5101 27.3886 31.8282 25.9471 31.8255 24.4884C31.8255 18.5029 26.5455 13.4766 20.0318 13.4766C13.5181 13.4766 8.23438 18.5036 8.23438 24.4906C8.23245 25.9485 8.55028 27.389 9.16549 28.7106C10.9599 26.894 15.1455 25.618 20.0318 25.618Z" fill="#008FD5"/>
<path d="M20.0307 25.63C24.9011 25.63 29.0763 26.8941 30.8644 28.6955C31.4806 27.3866 31.7983 25.9571 31.7948 24.5103C31.7948 18.5781 26.5266 13.5781 20.0348 13.5781C13.5429 13.5781 8.26367 18.5781 8.26367 24.5118C8.26324 25.9573 8.58087 27.3851 9.19404 28.694C10.9796 26.8933 15.1581 25.63 20.0307 25.63Z" fill="#0091D6"/>
<path d="M20.0287 25.6419C24.8869 25.6419 29.0536 26.8923 30.8343 28.6819C31.4474 27.3844 31.7638 25.9666 31.7602 24.5315C31.7602 18.6515 26.5058 13.6797 20.0284 13.6797C13.551 13.6797 8.29688 18.6515 8.29688 24.5315C8.29488 25.9657 8.61112 27.3825 9.22281 28.6797C11.0028 26.8923 15.1695 25.6419 20.0287 25.6419Z" fill="#0093D7"/>
<path d="M20.0279 25.6546C24.8694 25.6546 29.0279 26.8972 30.8057 28.6642C31.4158 27.3806 31.7314 25.9769 31.7294 24.5557C31.7294 18.7298 26.4887 13.7812 20.0279 13.7812C13.5672 13.7812 8.32423 18.7298 8.32423 24.559C8.32255 25.9797 8.63893 27.3828 9.25015 28.6653C11.0231 26.8972 15.1798 25.6546 20.0279 25.6546Z" fill="#0095D8"/>
<path d="M20.0246 25.6663C24.8565 25.6663 29.002 26.8959 30.7717 28.6504C31.3823 27.3791 31.6988 25.9866 31.6976 24.5763C31.6976 18.8011 26.4691 13.8789 20.0258 13.8789C13.5824 13.8789 8.35353 18.8 8.35353 24.5782C8.35119 25.988 8.66586 27.3804 9.27427 28.6522C11.0461 26.8967 15.1917 25.6663 20.0246 25.6663Z" fill="#0098DA"/>
<path d="M20.0238 25.6814C24.8412 25.6814 28.9775 26.8988 30.7438 28.6355C31.3506 27.3776 31.6648 25.9987 31.663 24.6022C31.663 18.8796 26.4493 13.9844 20.0238 13.9844C13.5982 13.9844 8.38379 18.8814 8.38379 24.6029C8.38352 25.9992 8.69704 27.3777 9.3012 28.6366C11.0693 26.8996 15.2038 25.6814 20.0238 25.6814Z" fill="#009ADB"/>
<path d="M20.0217 25.6917C24.8291 25.6917 28.9506 26.8991 30.714 28.6198C31.3203 27.3736 31.6347 26.0057 31.6332 24.6198C31.6332 18.9509 26.4332 14.082 20.0217 14.082C13.6103 14.082 8.41211 18.9517 8.41211 24.6228C8.41204 26.0083 8.72582 27.3759 9.32989 28.6228C11.0921 26.8991 15.214 25.6917 20.0217 25.6917Z" fill="#009CDD"/>
<path d="M20.0216 25.7071C24.812 25.7071 28.9272 26.9016 30.6816 28.6079C31.2868 27.3745 31.601 26.0188 31.6002 24.6449C31.6002 19.0308 26.415 14.1875 20.0224 14.1875C13.6298 14.1875 8.44238 19.0312 8.44238 24.6453C8.44256 26.0189 8.75647 27.3744 9.36016 28.6082C11.1131 26.9016 15.2242 25.7071 20.0216 25.7071Z" fill="#009FDE"/>
<path d="M20.0184 25.7168C24.7984 25.7168 28.8984 26.902 30.6509 28.5898C31.2533 27.3708 31.5667 26.0295 31.5669 24.6698C31.5669 19.1072 26.3935 14.2891 20.0184 14.2891C13.6432 14.2891 8.47169 19.1039 8.47169 24.6683C8.47016 26.0284 8.78233 27.3704 9.38391 28.5902C11.1335 26.9009 15.2365 25.7168 20.0184 25.7168Z" fill="#00A1DF"/>
<path d="M20.0183 25.7321C24.7845 25.7321 28.8757 26.9032 30.6212 28.5769C31.2222 27.3698 31.535 26.0398 31.5349 24.6914C31.5349 19.1803 26.3783 14.3906 20.0164 14.3906C13.6545 14.3906 8.50195 19.1803 8.50195 24.6914C8.50122 26.0392 8.81202 27.369 9.4101 28.5769C11.159 26.9032 15.2468 25.7321 20.0183 25.7321Z" fill="#00A3E1"/>
<path d="M20.0163 25.7435C24.7715 25.7435 28.85 26.9035 30.5941 28.562C31.1896 27.3663 31.5001 26.0489 31.5011 24.7131C31.5011 19.2549 26.3604 14.4883 20.0163 14.4883C13.6722 14.4883 8.53223 19.2549 8.53223 24.7131C8.53212 26.0482 8.84306 27.365 9.44037 28.559C11.1804 26.9035 15.2596 25.7435 20.0163 25.7435Z" fill="#00A5E2"/>
<path d="M20.0165 25.7582C24.7572 25.7582 28.8246 26.9086 30.5613 28.55C31.1584 27.3682 31.4694 26.0627 31.4694 24.7386C31.4694 19.3312 26.3413 14.5938 20.0165 14.5938C13.6917 14.5938 8.56055 19.3312 8.56055 24.7349C8.56064 26.058 8.86931 27.363 9.46203 28.546C11.2005 26.9045 15.2709 25.7582 20.0165 25.7582Z" fill="#00A7E3"/>
<path d="M20.0139 25.7692C24.7417 25.7692 28.7987 26.9051 30.5324 28.534C31.1281 27.3638 31.4381 26.0693 31.4372 24.7562C31.4372 19.4051 26.3235 14.6914 20.0157 14.6914C13.708 14.6914 8.59278 19.4059 8.59278 24.7588C8.59178 26.0703 8.89972 27.3637 9.49166 28.534C11.2265 26.9051 15.2802 25.7692 20.0139 25.7692Z" fill="#00AAE4"/>
<path d="M20.0115 25.7832C24.7259 25.7832 28.7733 26.9102 30.5011 28.5217C31.0942 27.3648 31.4032 26.0832 31.4026 24.7832C31.4026 19.4839 26.3037 14.7969 20.0115 14.7969C13.7192 14.7969 8.62109 19.4828 8.62109 24.7832C8.62069 26.0828 8.92836 27.364 9.51887 28.5217C11.2466 26.9102 15.2941 25.7832 20.0115 25.7832Z" fill="#00ACE6"/>
<path d="M20.0111 25.7945C24.7148 25.7945 28.7496 26.9056 30.4711 28.5023C31.0624 27.3583 31.3707 26.0893 31.3704 24.8016C31.3704 19.5531 26.2856 14.8945 20.0104 14.8945C13.7352 14.8945 8.65039 19.5531 8.65039 24.8016C8.6503 26.0891 8.95812 27.358 9.54817 28.5023C11.2696 26.9064 15.3063 25.7945 20.0111 25.7945Z" fill="#00AFE7"/>
<path d="M20.0088 25.8089C24.6999 25.8089 28.7229 26.9122 30.4414 28.4915C31.0306 27.3602 31.3385 26.1036 31.3392 24.8281C31.3392 19.633 26.2651 15 20.0088 15C13.7525 15 8.68066 19.633 8.68066 24.8281C8.68168 26.103 8.98787 27.3591 9.57363 28.4915C11.291 26.9122 15.3173 25.8089 20.0088 25.8089Z" fill="#00B1E9"/>
<path d="M20.0076 25.821C24.6828 25.821 28.6972 26.9121 30.4076 28.4762C30.9948 27.3564 31.302 26.111 31.3028 24.8465C31.3028 19.7065 26.2421 15.0977 20.0039 15.0977C13.7658 15.0977 8.71094 19.708 8.71094 24.848C8.70957 26.1128 9.01456 27.3591 9.59983 28.4802C11.3143 26.9121 15.3302 25.821 20.0076 25.821Z" fill="#10B4EA"/>
<path d="M20.0075 25.8318C24.6701 25.8318 28.6742 26.9126 30.3812 28.4592C30.9665 27.3532 31.2728 26.1209 31.2734 24.8696C31.2734 19.7814 26.2286 15.1992 20.0075 15.1992C13.7864 15.1992 8.74121 19.7814 8.74121 24.8696C8.7411 26.1206 9.04621 27.3528 9.6301 28.4592C11.3371 26.9126 15.3405 25.8318 20.0075 25.8318Z" fill="#18B6EC"/>
<path d="M20.0047 25.8456C24.6558 25.8456 28.6503 26.9134 30.351 28.4449C30.9335 27.3516 31.2388 26.1321 31.2399 24.8934C31.2399 19.8534 26.211 15.3008 20.004 15.3008C13.7969 15.3008 8.76953 19.8563 8.76953 24.8934C8.77117 26.1314 9.0757 27.3501 9.65657 28.4434C11.3606 26.9134 15.3536 25.8456 20.0047 25.8456Z" fill="#24B9ED"/>
<path d="M19.9998 25.8575C24.6398 25.8575 28.6213 26.9146 30.3198 28.4312C30.9023 27.3511 31.2077 26.1433 31.2087 24.916C31.2087 19.9312 26.1924 15.4023 20.002 15.4023C13.8117 15.4023 8.79981 19.9312 8.79981 24.916C8.79941 26.1423 9.10168 27.3498 9.6798 28.4312C11.3813 26.9146 15.3598 25.8575 19.9998 25.8575Z" fill="#2DBBEE"/>
<path d="M20.0002 25.8695C24.625 25.8695 28.598 26.9143 30.2906 28.415C30.8682 27.3472 31.1707 26.1524 31.1706 24.9384C31.1706 20.0069 26.1684 15.5039 19.9969 15.5039C13.8254 15.5039 8.8291 20.0069 8.8291 24.9384C8.82962 26.1523 9.13203 27.347 9.7091 28.415C11.405 26.9143 15.3761 25.8695 20.0002 25.8695Z" fill="#36BDEF"/>
<path d="M20.0007 25.9016C24.6207 25.9016 28.5862 26.9416 30.2758 28.4308C30.8544 27.3709 31.157 26.1824 31.1558 24.9749C31.1584 20.0753 26.1655 15.6016 20.0007 15.6016C13.8358 15.6016 8.84473 20.0753 8.84473 24.9749C8.84623 26.1821 9.14868 27.3699 9.72473 28.4308C11.4173 26.9416 15.3807 25.9016 20.0007 25.9016Z" fill="#43BFEF"/>
<path d="M19.9999 25.9284C24.6117 25.9284 28.5743 26.9618 30.2621 28.4433C30.838 27.3907 31.1406 26.2105 31.1421 25.0107C31.1421 20.1433 26.1599 15.6914 19.9999 15.6914C13.8399 15.6914 8.8584 20.1421 8.8584 25.0096C8.85973 26.2097 9.16231 27.3904 9.7384 28.4433C11.428 26.9592 15.3862 25.9284 19.9999 25.9284Z" fill="#50C1F0"/>
<path d="M20.0003 25.9581C24.6059 25.9581 28.5603 26.9844 30.2485 28.4552C30.8251 27.4108 31.1278 26.2374 31.1285 25.0444C31.1285 20.2092 26.1507 15.7852 20.0018 15.7852C13.8529 15.7852 8.87402 20.21 8.87402 25.0444C8.87658 26.2372 9.17921 27.4101 9.75402 28.4552C11.4403 26.9844 15.3914 25.9581 20.0003 25.9581Z" fill="#5AC3F0"/>
<path d="M20 25.9891C24.5993 25.9891 28.5489 27.0061 30.2337 28.4706C30.8092 27.4341 31.112 26.2684 31.1137 25.0828C31.1137 20.2828 26.1393 15.8828 20.0008 15.8828C13.8622 15.8828 8.88965 20.2828 8.88965 25.0828C8.89254 26.2682 9.19526 27.4336 9.76965 28.4706C11.4511 27.0061 15.3985 25.9891 20 25.9891Z" fill="#65C6F1"/>
<path d="M20.0005 26.0175C24.5931 26.0175 28.5405 27.0293 30.2228 28.4801C30.7972 27.4514 31.1001 26.2934 31.1028 25.1152C31.1028 20.3445 26.1357 15.9727 20.0061 15.9727C13.8765 15.9727 8.91016 20.343 8.91016 25.1152C8.90904 26.2927 9.20782 27.4511 9.77831 28.4812C11.4628 27.0293 15.4079 26.0175 20.0005 26.0175Z" fill="#6DC8F2"/>
<path d="M20.0004 26.0446C24.5867 26.0446 28.5252 27.0527 30.206 28.492C30.7804 27.4718 31.0834 26.3213 31.086 25.1505C31.086 20.4127 26.126 16.0664 20.0026 16.0664C13.8793 16.0664 8.91895 20.4127 8.91895 25.1505C8.92088 26.3205 9.22148 27.4706 9.79228 28.492C11.4749 27.0527 15.4123 26.0446 20.0004 26.0446Z" fill="#74CAF2"/>
<path d="M20.0005 26.0739C24.5805 26.0739 28.5142 27.0739 30.1909 28.505C30.7626 27.4926 31.0642 26.3502 31.0668 25.1876C31.0676 20.4813 26.1142 16.1602 20.0005 16.1602C13.8868 16.1602 8.93164 20.4813 8.93164 25.185C8.9339 26.3481 9.23447 27.4912 9.8046 28.505C11.4861 27.0739 15.4198 26.0739 20.0005 26.0739Z" fill="#7DCCF3"/>
<path d="M20.0001 26.1037C24.5738 26.1037 28.5023 27.0952 30.176 28.5174C30.7491 27.5131 31.0523 26.3774 31.056 25.2211C31.056 20.5452 26.1071 16.25 20.0023 16.25C13.8975 16.25 8.94824 20.5456 8.94824 25.2211C8.95001 26.3767 9.25061 27.5123 9.82083 28.5174C11.4979 27.0952 15.4234 26.1037 20.0001 26.1037Z" fill="#83CFF3"/>
<path d="M20 26.1326C24.5689 26.1326 28.4911 27.1193 30.1648 28.5286C30.7351 27.532 31.0367 26.4042 31.04 25.256C31.04 20.616 26.1 16.3438 20 16.3438C13.9 16.3438 8.95996 20.6134 8.95996 25.2552C8.96292 26.4038 9.26302 27.5321 9.83107 28.5304C11.5088 27.1193 15.4296 26.1352 20 26.1326Z" fill="#8AD1F4"/>
<path d="M20.0004 26.1616C24.5604 26.1616 28.4819 27.1405 30.1485 28.5423C30.716 27.5528 31.0162 26.4326 31.0197 25.2919C31.0197 20.6797 26.0871 16.4375 19.9989 16.4375C13.9108 16.4375 8.97559 20.6775 8.97559 25.2894C8.97926 26.4305 9.27862 27.5513 9.84448 28.5423C11.5189 27.1431 15.4348 26.1616 20.0004 26.1616Z" fill="#91D3F4"/>
<path d="M20.0003 26.192C24.5559 26.192 28.4674 27.1631 30.1355 28.5542C30.7025 27.5729 31.003 26.4605 31.0074 25.3272C31.0074 20.7494 26.0796 16.5312 20.0003 16.5312C13.9211 16.5312 8.99219 20.7494 8.99219 25.3264C8.99506 26.4598 9.2938 27.5728 9.85885 28.5553C11.5292 27.1631 15.4403 26.192 20.0003 26.192Z" fill="#98D5F5"/>
<path d="M19.9999 26.2231C24.548 26.2231 28.4536 27.1894 30.1206 28.5709C30.6882 27.597 30.9885 26.4904 30.991 25.3631C30.991 20.8157 26.0695 16.625 19.9999 16.625C13.9303 16.625 9.00879 20.8157 9.00879 25.3613C9.01121 26.4874 9.30944 27.593 9.8736 28.5676C11.5406 27.1861 15.4488 26.2231 19.9999 26.2231Z" fill="#9FD8F6"/>
<path d="M20.0002 26.248C24.5436 26.248 28.4425 27.208 30.1073 28.5787C30.6728 27.6131 30.9728 26.5152 30.9769 25.3962C30.9769 20.8776 26.061 16.7188 20.0002 16.7188C13.9395 16.7188 9.02246 20.8843 9.02246 25.3954C9.02505 26.5148 9.32339 27.6136 9.88728 28.5806C11.5532 27.208 15.4554 26.2499 20.0002 26.248Z" fill="#A5DAF6"/>
<path d="M20 26.2803C24.536 26.2803 28.433 27.2325 30.093 28.5955C30.6571 27.6371 30.9564 26.546 30.96 25.434C30.96 20.9525 26.053 16.8125 20 16.8125C13.9471 16.8125 9.04004 20.9525 9.04004 25.4325C9.04361 26.5447 9.34202 27.6361 9.90485 28.5955C11.5663 27.2325 15.4634 26.2821 20 26.2803Z" fill="#AADCF7"/>
<path d="M20.0006 26.3087C24.5303 26.3087 28.4192 27.255 30.0806 28.6072C30.6428 27.6571 30.9414 26.5741 30.9455 25.4702C30.9455 21.0183 26.044 16.9102 20.0006 16.9102C13.9573 16.9102 9.05176 21.0246 9.05176 25.4702C9.05762 26.5749 9.35753 27.6582 9.92065 28.6087C11.5758 27.255 15.4688 26.3109 20.0006 26.3087Z" fill="#B1DFF7"/>
<path d="M20.0001 26.3361C24.5249 26.3361 28.4075 27.2746 30.0657 28.6168C30.6282 27.6748 30.9269 26.5988 30.9305 25.5016C30.9305 21.0817 26.0371 16.9961 20.0001 16.9961C13.9631 16.9961 9.06641 21.0857 9.06641 25.4994C9.07089 26.5977 9.36868 27.6748 9.929 28.6194C11.5897 27.2787 15.4746 26.3368 20.0001 26.3361Z" fill="#B6E1F8"/>
<path d="M20.0007 26.365C24.5166 26.365 28.4007 27.2961 30.0525 28.6298C30.6134 27.6956 30.9119 26.6273 30.9166 25.5376C30.9166 21.1498 26.0277 17.0898 20.0007 17.0898C13.9736 17.0898 9.08398 21.1521 9.08398 25.5343C9.08785 26.6246 9.38448 27.6938 9.94287 28.6302C11.6007 27.2947 15.4821 26.3687 20.0007 26.365Z" fill="#BBE3F8"/>
<path d="M19.9998 26.394C24.5101 26.394 28.3839 27.3199 30.0368 28.6425C30.5957 27.7155 30.8934 26.6545 30.8983 25.5721C30.899 21.2206 26.019 17.1836 19.9998 17.1836C13.9805 17.1836 9.0957 21.2206 9.0957 25.5714C9.10044 26.6549 9.39783 27.717 9.95644 28.6454C11.6127 27.3195 15.4887 26.3988 19.9998 26.394Z" fill="#C1E5F9"/>
<path d="M20 26.4255C24.5041 26.4255 28.373 27.3429 30.0234 28.6559C30.5816 27.737 30.8792 26.6836 30.8841 25.6085C30.8841 21.2885 26.0097 17.2773 20.0041 17.2773C13.9986 17.2773 9.11523 21.2885 9.11523 25.6085C9.11988 26.6835 9.41539 27.7373 9.97042 28.6581C11.6249 27.3429 15.493 26.4255 20 26.4255Z" fill="#C6E7F9"/>
<path d="M19.9999 26.4544C24.4958 26.4544 28.3607 27.3674 30.0103 28.6696C30.5673 27.7586 30.8647 26.7126 30.8703 25.6448C30.8703 21.3544 26.0021 17.3711 19.9999 17.3711C13.9977 17.3711 9.12695 21.3611 9.12695 25.6433C9.1325 26.7115 9.42809 27.7582 9.98214 28.6715C11.6336 27.3674 15.4992 26.4552 19.9999 26.4544Z" fill="#CBE9FA"/>
<path d="M20.0004 26.4834C24.4933 26.4834 28.35 27.3874 30.0004 28.6811C30.5545 27.7782 30.8501 26.7405 30.8548 25.6811C30.8548 21.4219 25.9948 17.4648 20.0011 17.4648C14.0074 17.4648 9.14258 21.4226 9.14258 25.6797C9.14963 26.7403 9.44623 27.7789 10.0004 28.6834C11.6452 27.3874 15.5074 26.4841 20.0004 26.4834Z" fill="#D0EBFA"/>
<path d="M20.0001 26.5106C24.4864 26.5106 28.3379 27.4088 29.9823 28.6936C30.5366 27.7985 30.8327 26.7675 30.8379 25.7147C30.8379 21.4865 25.9842 17.5547 20.0001 17.5547C14.016 17.5547 9.15527 21.4873 9.15527 25.7147C9.16159 26.7687 9.45715 27.8008 10.0097 28.6984C11.6568 27.4088 15.5145 26.5128 20.0001 26.5106Z" fill="#D5EDFA"/>
<path d="M20.0005 26.5421C24.482 26.5421 28.3268 27.4333 29.9694 28.7077C30.523 27.8192 30.8191 26.7945 30.8246 25.7477C30.8246 21.5533 25.9772 17.6484 20.0005 17.6484C14.0239 17.6484 9.1709 21.5595 9.1709 25.7477C9.17728 26.7939 9.47203 27.8181 10.0228 28.7077C11.6672 27.4333 15.519 26.5421 20.0005 26.5421Z" fill="#DBEFFB"/>
<path d="M20.0004 26.5696C24.4707 26.5696 28.3155 27.4551 29.9541 28.72C30.5061 27.8399 30.8024 26.8236 30.81 25.7848C30.81 21.6248 25.9685 17.7422 20.0004 17.7422C14.0322 17.7422 9.18555 21.6248 9.18555 25.7822C9.19074 26.8217 9.48671 27.8391 10.04 28.7192C11.6804 27.4552 15.5252 26.5696 20.0004 26.5696Z" fill="#DFF1FB"/>
<path d="M20.0002 26.5974C24.4643 26.5974 28.3035 27.4774 29.9387 28.7319C30.4906 27.8604 30.7869 26.8515 30.7939 25.82C30.7939 21.6889 25.9609 17.8359 20.0002 17.8359C14.0395 17.8359 9.2002 21.6911 9.2002 25.8167C9.20618 26.8486 9.50046 27.8583 10.0498 28.7319C11.6939 27.4767 15.5298 26.5985 20.0002 26.5974Z" fill="#E4F3FC"/>
<path d="M19.9999 26.6275C24.4599 26.6275 28.2888 27.4989 29.9258 28.7445C30.4744 27.8802 30.7696 26.8793 30.7777 25.8556C30.7777 21.7571 25.9503 17.9297 19.9999 17.9297C14.0495 17.9297 9.21582 21.7582 9.21582 25.8497C9.22244 26.874 9.51629 27.8759 10.064 28.7415C11.7036 27.4982 15.5377 26.6275 19.9999 26.6275Z" fill="#E9F5FC"/>
<path d="M20.0001 26.6564C24.4531 26.6564 28.2786 27.5227 29.9105 28.7564C30.4599 27.9011 30.7553 26.9074 30.7623 25.8908C30.7623 21.8234 25.9423 18.0234 19.999 18.0234C14.0557 18.0234 9.23047 21.8268 9.23047 25.8883C9.23667 26.9059 9.53128 27.9009 10.0801 28.7579C11.7145 27.5197 15.5442 26.6579 20.0001 26.6564Z" fill="#EDF7FD"/>
<path d="M19.9999 26.6868C24.4443 26.6868 28.2655 27.5461 29.8977 28.7709C30.4464 27.9232 30.742 26.9366 30.7495 25.9268C30.7495 21.8924 25.9347 18.1172 20.0014 18.1172C14.068 18.1172 9.24805 21.8946 9.24805 25.9261C9.25397 26.9362 9.54724 27.9238 10.0936 28.7735C11.728 27.5461 15.5503 26.6883 19.9999 26.6868Z" fill="#F1F9FD"/>
<path d="M20.0005 26.7208C24.4405 26.7208 28.2557 27.5726 29.8827 28.7871C30.4309 27.9483 30.7266 26.9698 30.7346 25.9678C30.735 21.9634 25.9264 18.2148 20.0005 18.2148C14.0746 18.2148 9.25977 21.9678 9.25977 25.9634C9.26717 26.9666 9.56077 27.9468 10.1061 28.7889C11.7383 27.5671 15.559 26.7208 20.0005 26.7208Z" fill="#F7FBFD"/>
<path d="M20.0003 26.746C24.4347 26.746 28.2403 27.5919 29.8699 28.7967C30.4161 27.966 30.7118 26.9957 30.7218 26.0016C30.7203 22.0308 25.9203 18.3086 20.0003 18.3086C14.0803 18.3086 9.28027 22.0341 9.28027 25.999C9.28807 26.9938 9.581 27.9656 10.1243 28.799C11.7492 27.5938 15.5618 26.7486 20.0003 26.746Z" fill="#FBFDFF"/>
<path d="M20.0002 26.7712C24.4273 26.7712 28.2332 27.6097 29.8554 28.8049C30.4001 27.9814 30.6948 27.0178 30.7039 26.0305C30.7039 22.0912 25.9095 18.3945 20.0002 18.3945C14.091 18.3945 9.29395 22.0938 9.29395 26.0282C9.30174 27.0164 9.59359 27.9814 10.1347 28.8082C11.7602 27.6097 15.5691 26.7731 20.0002 26.7712Z" fill="white"/>
<path d="M20.0001 22.8438C16.1208 22.8438 12.5249 23.5015 9.55566 24.6141C12.126 30.386 18.889 32.9808 24.6601 30.4104C27.2418 29.2606 29.3066 27.1958 30.4564 24.6141C27.4816 23.5015 23.8779 22.8438 20.0001 22.8438Z" fill="#007BC6"/>
<path fill-rule="evenodd" clip-rule="evenodd" d="M20 32C26.6274 32 32 26.6296 32 20C32 13.3726 26.6274 8 20 8C13.3726 8 8 13.3704 8 20C8 26.6296 13.3726 32 20 32ZM31.44 19.9578C31.44 26.2759 26.3182 31.3978 20 31.3978C13.6819 31.3978 8.56 26.2759 8.56 19.9578C8.56 13.6396 13.6819 8.51852 20 8.51852C26.3182 8.51852 31.44 13.6396 31.44 19.9578Z" fill="white"/>
</g>
</svg>
