<svg width="40" height="40" viewBox="0 0 40 40" fill="none" xmlns="http://www.w3.org/2000/svg">
<path d="M20 40C31.0457 40 40 31.0457 40 20C40 8.9543 31.0457 0 20 0C8.9543 0 0 8.9543 0 20C0 31.0457 8.9543 40 20 40Z" fill="#003F7E"/>
<path d="M34.8003 13.8711C33.9485 17.3696 30.9092 19.2663 29.1437 20.2785L29.0781 20.1807C29.7981 19.5918 32.3155 17.7281 33.1322 14.6544L34.8003 13.8711Z" fill="#EF8200"/>
<path d="M14.452 13.8711C14.4195 14.1981 13.765 18.7104 13.7002 19.1359H15.1402C15.1732 18.8085 15.8265 14.2959 15.892 13.8711H14.452Z" fill="white"/>
<path d="M26.2893 13.8711C26.2564 14.1981 25.6027 18.7104 25.5371 19.1359H28.9382C28.9708 18.9063 29.0693 18.2841 29.0982 17.9911H27.0404L27.1716 17.0104H29.0404C29.0734 16.7815 29.1382 16.2255 29.2004 15.9637H27.3364L27.4675 15.0152H29.4619C29.4949 14.7863 29.5934 14.1655 29.6219 13.8711H26.2893Z" fill="white"/>
<path d="M10.168 16.8792C10.168 16.8792 11.3776 14.1015 11.4757 13.8711H13.3068C13.3068 14.2304 13.0783 18.7433 13.0783 19.1359H11.7702L11.9998 15.4392C11.9998 15.4392 10.5287 18.8729 10.4302 19.1344H9.35018L8.89277 15.4722C8.8598 15.6322 8.36943 18.0881 8.10795 19.1663H6.7998C6.93092 18.7089 7.94462 14.197 8.00943 13.9026H9.77758L10.168 16.8792Z" fill="white"/>
<path d="M23.7387 18.0883C23.7387 18.0883 23.8368 18.9379 23.8698 19.1664H25.2424C25.1779 18.7409 24.3931 14.229 24.3624 13.9023H22.5927C22.4949 14.1312 20.4998 18.6431 20.2383 19.1664H21.6457C21.7112 19.0064 22.0705 18.1201 22.0705 18.1201L23.7387 18.0883ZM22.4961 16.9772L23.3138 15.0142L23.5753 16.9772H22.4961Z" fill="white"/>
<path d="M17.9201 14.88H18.2472C18.4761 14.88 18.7049 14.9129 18.869 15.0759C18.926 15.1493 18.967 15.2337 18.9896 15.3238C19.0122 15.4139 19.0158 15.5077 19.0001 15.5992C19.0001 15.5992 18.9672 15.9918 18.7038 16.1222C18.5554 16.2098 18.3858 16.2553 18.2135 16.2537H17.5609L18.8035 19.1337H20.1768L19.0979 16.9096C19.7512 16.7792 20.2416 16.5822 20.3731 15.6015C20.4002 15.4835 20.4112 15.3624 20.4057 15.2415C20.4176 14.9218 20.3123 14.6088 20.1094 14.3615C19.7494 13.9689 19.1616 13.8711 18.702 13.8711H16.7083C16.6753 14.1985 16.0216 18.7104 15.9561 19.1359H17.2642C17.3601 18.8396 17.9201 14.88 17.9201 14.88Z" fill="white"/>
<path d="M22.6396 22.6654C22.6726 22.6654 22.7052 22.6654 22.7052 22.6328C22.7052 22.6654 22.6726 22.6654 22.6396 22.6654Z" fill="white"/>
<path d="M23.2245 22.5352C23.119 22.5718 23.009 22.5936 22.8975 22.6C23.009 22.5936 23.119 22.5718 23.2245 22.5352Z" fill="white"/>
<path d="M23.5836 22.4375C23.5181 22.4705 23.4533 22.4705 23.3877 22.5031C23.4533 22.4705 23.5181 22.4705 23.5836 22.4375Z" fill="white"/>
<path d="M25.4818 21.8789C25.3341 21.9377 25.1809 21.9816 25.0244 22.01C25.1818 21.9859 25.3355 21.9419 25.4818 21.8789Z" fill="white"/>
<path d="M24.9596 22.0781C24.894 22.1111 24.8285 22.1111 24.7637 22.1437C24.8232 22.1072 24.8902 22.0848 24.9596 22.0781Z" fill="white"/>
<path d="M24.6632 22.1406C24.4343 22.2066 24.2384 22.2721 23.9766 22.3369C24.2385 22.2717 24.4674 22.2063 24.6632 22.1406Z" fill="white"/>
<path d="M23.9108 22.3711C23.8452 22.4041 23.7797 22.4041 23.7148 22.4367C23.7744 22.4003 23.8414 22.3779 23.9108 22.3711Z" fill="white"/>
<path d="M24.9596 20.5742C24.9266 20.8027 24.8285 21.4901 24.7637 21.8164C25.7774 21.5201 27.0196 21.1301 28.1644 20.5742H24.9596Z" fill="white"/>
<path d="M15.4399 22.9249C15.3035 22.8126 15.1486 22.7249 14.9822 22.6656L14.5903 22.4697C14.4592 22.4041 14.1648 22.2408 14.1648 21.9463C14.1636 21.8831 14.1775 21.8204 14.2054 21.7635C14.2332 21.7067 14.2741 21.6572 14.3248 21.6193C14.3949 21.5694 14.4748 21.5348 14.5592 21.5176C14.6436 21.5004 14.7307 21.5011 14.8148 21.5197C15.0762 21.5526 15.3381 21.7167 15.6644 21.9782C15.8285 21.6819 16.0899 21.1263 16.1877 20.9319C15.8321 20.6357 15.4025 20.4421 14.9451 20.3719C14.2914 20.2734 13.6699 20.4045 13.2451 20.7308C12.882 21.023 12.6478 21.4458 12.5925 21.9086V22.1374C12.5854 22.3522 12.6304 22.5654 12.7236 22.7589H12.8214C13.4759 22.8567 14.3911 22.8893 15.4374 22.9189" fill="white"/>
<path d="M22.2758 21.719H24.2702C24.3032 21.4901 24.4014 20.8672 24.4343 20.5742H21.0991C21.0662 20.7053 20.9351 21.5876 20.8047 22.6342L22.1784 22.4379L22.2758 21.719Z" fill="white"/>
<path d="M25.4811 21.8815C25.3333 21.9403 25.1801 21.9842 25.0237 22.0126C24.9907 22.0126 24.9907 22.0448 24.9581 22.0448C24.8922 22.0774 24.8266 22.0774 24.7618 22.1104C24.7292 22.1104 24.6962 22.1104 24.6962 22.143C24.4674 22.2089 24.2707 22.2745 24.0418 22.3393C24.0092 22.3393 23.977 22.3719 23.9444 22.3719C23.8788 22.4048 23.8133 22.4048 23.7474 22.4374C23.7155 22.4374 23.65 22.4704 23.617 22.4704C23.5514 22.503 23.4859 22.503 23.4211 22.5359C23.3885 22.5359 23.3225 22.5678 23.29 22.5678C23.1849 22.6054 23.075 22.6276 22.9637 22.6337C22.8981 22.6337 22.8651 22.6663 22.7996 22.6663C22.7666 22.6663 22.734 22.6663 22.734 22.6993C22.1459 22.8297 21.5244 22.9608 20.8381 23.0911H20.8051C20.674 23.1241 20.5437 23.1241 20.4122 23.1567H20.3474C20.2162 23.1897 20.0859 23.1897 19.9548 23.2222H19.9203C19.2003 23.32 18.4492 23.4185 17.6644 23.4841C17.5333 23.4841 17.4355 23.5167 17.3044 23.5167H17.2714C17.1411 23.5167 17.01 23.5497 16.8796 23.5497H16.8466C16.7155 23.5497 16.5851 23.5815 16.454 23.5815H16.4218C16.2901 23.5761 16.1582 23.5872 16.0292 23.6145C15.3755 23.6471 14.6555 23.68 13.9692 23.68H13.3148C12.7259 23.68 12.1374 23.6471 11.5485 23.6145C10.6333 23.5815 9.68439 23.4841 8.70365 23.3856L9.81476 22.3393C9.81476 22.3393 10.4685 22.5359 11.3518 22.6993C11.1918 21.6856 11.0244 20.8022 10.9918 20.6719H9.22847C9.13069 20.9008 7.1355 25.4126 6.87402 25.9359H8.28143C8.34699 25.7759 8.83699 24.6278 8.83699 24.6278H10.3085C10.3085 24.6278 10.4396 25.7389 10.4685 25.9359H11.8418C11.8092 25.7759 11.6818 24.9878 11.5148 24.04C12.4962 24.1048 13.5099 24.1048 14.4251 24.1048C14.466 24.1861 14.4884 24.2754 14.4907 24.3663V24.4648C14.4647 24.5761 14.4094 24.6784 14.3307 24.7611C14.134 24.8915 13.8722 24.8593 13.6762 24.8267C13.2188 24.7611 12.8588 24.4011 12.597 24.1393C12.4011 24.4337 12.037 25.0556 11.9107 25.2504C12.434 25.7408 13.0218 26.0352 13.6107 26.1022C14.2322 26.1997 14.8211 26.0693 15.2774 25.7093C15.4731 25.5663 15.638 25.3853 15.7621 25.1771C15.8862 24.9688 15.967 24.7377 15.9996 24.4974C16.0256 24.3574 16.0365 24.215 16.0322 24.0726C17.0129 24.04 17.8633 23.9745 18.3866 23.9126C18.5466 24.0441 18.6481 24.1745 18.6481 24.3704V24.4689C18.6222 24.5802 18.567 24.6825 18.4881 24.7652C18.2914 24.8956 18.0299 24.8634 17.834 24.8308C17.3762 24.7652 17.0162 24.4052 16.7548 24.1434C16.5588 24.4397 16.1948 25.0593 16.0681 25.2545C16.5914 25.7448 17.1792 26.0393 17.7681 26.1063C18.3899 26.2037 18.9788 26.0734 19.4348 25.7134C19.6299 25.5705 19.7943 25.3898 19.918 25.1819C20.0417 24.9741 20.1223 24.7434 20.1548 24.5037C20.1946 24.2425 20.1834 23.9759 20.1218 23.7189C20.3514 23.6863 20.5477 23.6534 20.7762 23.6208C20.6162 24.7319 20.48 25.7463 20.4492 25.9408H23.8514C23.8844 25.7119 23.9825 25.0911 24.0114 24.7967H21.9485L22.0796 23.8134H23.9437C23.9762 23.6167 24.0411 23.1589 24.074 22.8645C24.2088 22.8337 24.3402 22.7901 24.4666 22.7341C24.4666 22.7341 25.0877 22.5382 25.9066 22.2437C25.7762 23.0608 25.4162 25.5771 25.3837 25.9382H26.8555C26.8877 25.6445 27.4111 21.9822 27.4111 21.9822H28.4903C28.5233 21.7534 28.6214 21.0334 28.687 20.7071C28.0329 20.9359 26.9862 21.3934 25.4822 21.8837" fill="white"/>
<path d="M19.1043 22.6684L18.7121 22.4725C18.581 22.4069 18.2865 22.2436 18.2865 21.9491C18.2855 21.8859 18.2994 21.8232 18.3272 21.7664C18.355 21.7096 18.3959 21.6601 18.4465 21.6221C18.5168 21.5723 18.5968 21.5379 18.6813 21.5209C18.7657 21.5039 18.8528 21.5048 18.9369 21.5236C19.1987 21.5565 19.4602 21.7206 19.7887 21.9821C19.9487 21.6858 20.2136 21.1302 20.3121 20.9358C19.9561 20.6398 19.5263 20.4462 19.0687 20.3758C18.4154 20.2773 17.7936 20.4084 17.3687 20.7347C17.0068 21.0288 16.7745 21.4531 16.7217 21.9165V22.178C16.7203 22.427 16.775 22.6731 16.8817 22.898C17.6665 22.8651 18.4817 22.8325 19.3336 22.7677C19.2687 22.7347 19.1736 22.7021 19.105 22.6691" fill="white"/>
</svg>
