<svg width="40" height="40" viewBox="0 0 40 40" fill="none" xmlns="http://www.w3.org/2000/svg">
<path d="M19.0937 0.0210867C8.05998 0.518494 -0.481503 9.86664 0.0210901 20.9026C0.523683 31.9385 9.86961 40.4755 20.9048 39.9792C31.94 39.4829 40.48 30.1274 39.9789 19.0944C39.4778 8.06146 30.1311 -0.481506 19.0937 0.0210867Z" fill="#009591"/>
<path d="M24.4287 22.8189C24.3755 22.4904 24.2812 22.17 24.1479 21.8652C23.7261 20.9555 23.139 20.1914 22.259 19.68C21.596 19.2867 20.8383 19.0814 20.0674 19.086C19.2965 19.0906 18.5414 19.3051 17.8831 19.7063C17.2689 20.0762 16.7705 20.6107 16.4442 21.2492C16.3355 21.4667 16.2443 21.6924 16.1716 21.9244C15.8157 23.0589 15.8279 24.5833 16.4716 25.6189C16.6749 25.963 16.9834 26.2327 17.3516 26.3881C17.5363 26.4628 17.7358 26.4937 17.9344 26.4783C18.1331 26.4629 18.3254 26.4018 18.4964 26.2996C18.9268 26.0218 19.0046 25.4914 18.9239 25.0196C18.822 24.4155 18.7446 23.8196 18.9661 23.2322C19.0338 23.0413 19.1431 22.8679 19.2861 22.7244C19.3759 22.64 19.4782 22.5701 19.5894 22.517C19.8225 22.3992 20.0862 22.3562 20.3446 22.394C20.7916 22.4659 21.1594 22.814 21.3583 23.2218C21.5572 23.6296 21.6109 24.0914 21.6327 24.5452C21.7279 26.5203 21.2564 28.5659 20.7527 30.4651C20.6994 30.6602 20.6461 30.8549 20.5927 31.0492C20.5502 31.1996 20.4727 31.3907 20.5687 31.5363C20.6127 31.5977 20.6739 31.6448 20.7446 31.6714C21.0357 31.7892 21.2772 31.6092 21.4735 31.4122C22.6309 30.2474 23.3735 28.7455 23.8809 27.1977C24.0743 26.6221 24.2286 26.0341 24.3427 25.4377C24.4909 24.6203 24.5768 23.6833 24.4313 22.8211" fill="white"/>
<path d="M32.7198 13.689C32.7198 13.3927 32.4572 13.1964 32.1757 13.2075C31.8942 13.2186 31.6227 13.3675 31.3609 13.4667C26.2664 15.4034 20.5201 15.7716 15.1512 14.9971C14.2331 14.8653 13.3027 14.6771 12.3779 14.5349C11.8009 14.4453 11.2298 14.3149 10.6468 14.2701C10.1498 14.233 9.53162 14.2138 9.12829 14.5604C8.59792 15.0171 8.63532 15.8834 8.93606 16.4571C9.2968 17.1453 9.92903 17.6571 10.5857 18.0523C11.2257 18.4323 11.9864 18.8386 12.7457 18.7901C14.7975 18.6585 16.8435 18.4609 18.8835 18.1975C22.3624 17.7453 26.0087 17.3175 29.2746 15.9701C30.3431 15.5286 31.3968 14.9782 32.3142 14.2664C32.4816 14.1416 32.7216 13.933 32.7216 13.6919" fill="white"/>
<path d="M18.1093 11.9454C18.1216 12.4688 18.3382 12.9666 18.7127 13.3325C19.0872 13.6983 19.59 13.9031 20.1135 13.9031C20.6371 13.9031 21.1398 13.6983 21.5144 13.3325C21.8889 12.9666 22.1055 12.4688 22.1178 11.9454C22.1172 11.7789 22.0802 11.6146 22.0093 11.464C21.8371 11.0999 21.6445 10.924 21.6626 10.4873C21.6893 9.8984 20.9341 9.89062 20.5285 9.89062C20.0841 9.89062 19.6148 9.95211 19.2148 10.1528C18.8892 10.3163 18.6142 10.5652 18.4191 10.8729C18.224 11.1807 18.1163 11.5356 18.1074 11.8999V11.9466" fill="white"/>
</svg>
