<svg width="40" height="40" viewBox="0 0 40 40" fill="none" xmlns="http://www.w3.org/2000/svg">
<path d="M20 40C31.0457 40 40 31.0457 40 20C40 8.9543 31.0457 0 20 0C8.9543 0 0 8.9543 0 20C0 31.0457 8.9543 40 20 40Z" fill="#FF0C00"/>
<path d="M6.03943 19.9524C6.02531 19.9568 6.01349 19.9666 6.00655 19.9796C5.99961 19.9927 5.99812 20.0079 6.0024 20.0221C6.00472 20.0303 6.0089 20.038 6.01461 20.0444C6.02032 20.0508 6.02742 20.0558 6.03536 20.0591L10.3554 22.911L11.5928 17.0898L6.03943 19.9524Z" fill="white"/>
<path d="M31.6176 17.0859H30.5246C30.4572 17.0891 30.3911 17.1057 30.3302 17.1348L24.8542 19.9567C24.8031 19.9796 24.8013 20.0285 24.8487 20.0604L29.0964 22.8556C29.1546 22.8888 29.2199 22.9078 29.2868 22.9108H30.379C30.4357 22.9108 30.442 22.887 30.3957 22.8556L26.0605 20.0037L31.6294 17.1348C31.6798 17.11 31.6727 17.0859 31.6176 17.0859Z" fill="white"/>
<path d="M29.2803 17.0859H21.667L20.4307 22.9108H28.0403C28.0981 22.9108 28.1036 22.887 28.057 22.8556L23.7292 20.0037L29.2892 17.1348C29.3396 17.11 29.3336 17.0859 29.2803 17.0859Z" fill="white"/>
<path d="M33.9529 17.0859H32.8607C32.7933 17.0893 32.7272 17.1059 32.6662 17.1348L27.191 19.9567C27.1407 19.9796 27.1399 20.0285 27.1862 20.0604L31.4344 22.8556C31.4918 22.8893 31.5567 22.9082 31.6233 22.9108H32.7199C32.7758 22.9108 32.7847 22.887 32.7358 22.8556L28.3999 20.0037L33.967 17.1356C34.0158 17.11 34.011 17.0859 33.9529 17.0859Z" fill="white"/>
<path d="M28.9404 13.2812H11.0252C10.0252 13.2812 9.32598 13.9109 9.15968 14.6887C9.11573 14.8862 9.13014 15.0923 9.20116 15.2818C9.27217 15.4713 9.39673 15.6361 9.55968 15.7561L16.0004 20.0013H16.0052L28.9523 13.3246C29.0038 13.2975 29.0004 13.2812 28.9404 13.2812Z" fill="white"/>
<path d="M26.0994 26.6667L16.0001 20L7.76009 24.2504C7.32157 24.5096 6.99787 24.8904 6.90824 25.3167C6.74083 26.0944 7.17195 26.7241 8.1738 26.7241H26.0801C26.1386 26.7241 26.1482 26.6993 26.0994 26.6667Z" fill="white"/>
</svg>
