<svg width="40" height="40" viewBox="0 0 40 40" fill="none" xmlns="http://www.w3.org/2000/svg">
<path d="M19.0937 0.0210867C8.05998 0.518494 -0.481503 9.86664 0.0210901 20.9026C0.523683 31.9385 9.86961 40.4755 20.9048 39.9792C31.94 39.4829 40.48 30.1274 39.9789 19.0944C39.4778 8.06146 30.1311 -0.481506 19.0937 0.0210867Z" fill="#004B9D"/>
<path d="M13.8397 8.66242C13.5204 8.82093 13.2358 9.04142 13.0026 9.31103C12.7693 9.58064 12.5921 9.89398 12.4812 10.2328L8.13971 23.2728C7.91253 23.9558 7.96596 24.7011 8.28823 25.3448C8.61051 25.9884 9.17524 26.4777 9.85823 26.705L24.0886 31.4828C24.7713 31.7076 25.5153 31.6531 26.1579 31.3311C26.8006 31.0091 27.2896 30.4458 27.5182 29.7643L31.8579 16.7243C32.0842 16.0413 32.0307 15.2966 31.7091 14.653C31.3875 14.0095 30.824 13.5196 30.1419 13.2906L15.9116 8.51686C15.5738 8.4026 15.2167 8.35663 14.861 8.38161C14.5053 8.4066 14.1582 8.50205 13.8397 8.66242Z" fill="white"/>
<path d="M17.6301 10.0899C20.1197 11.0129 21.9371 13.6722 21.7604 16.5714C21.6979 17.6521 21.3657 18.6999 20.7941 19.6192C20.0103 18.7415 19.0297 18.0619 17.9327 17.6362L17.2967 17.3866V23.4348L17.9419 23.1844C19.037 22.7546 20.0144 22.0711 20.7938 21.1899C21.5567 22.4129 21.894 23.8536 21.7534 25.2881C21.6127 26.7226 21.0019 28.0704 20.016 29.1218L20.0223 29.117L20.016 29.1244L10.1423 25.8225C9.69499 25.6754 9.32411 25.3572 9.11065 24.9375C8.89719 24.5178 8.85849 24.0307 9.00302 23.5825L13.3556 10.5336C13.4979 10.0909 13.8103 9.7228 14.2239 9.51028C14.6376 9.29775 15.1187 9.2582 15.5615 9.40032L15.5756 9.40513L17.6301 10.0899Z" fill="#0092D8"/>
<path d="M15.0825 23.8025H14.1055V17.0273H15.0825V23.8025Z" fill="white"/>
<path d="M20.2243 20.4064C19.6743 19.7507 19 19.2103 18.2402 18.8164V22.0016C18.9995 21.6047 19.6736 21.0628 20.2243 20.4064Z" fill="#E43D30"/>
<path d="M29.8294 14.1584L20.7627 11.1328C21.9027 12.376 22.5881 13.9686 22.7075 15.6512C22.8268 17.3337 22.3729 19.0071 21.4197 20.3987C22.3496 21.7449 22.8112 23.3593 22.7334 24.9935C22.6557 26.6277 22.0429 28.1911 20.9894 29.4428L24.3931 30.5795C24.6128 30.6517 24.8446 30.6798 25.0752 30.6624C25.3058 30.645 25.5307 30.5823 25.7371 30.4779C25.9435 30.3735 26.1272 30.2295 26.2779 30.054C26.4286 29.8786 26.5432 29.6752 26.6153 29.4554V29.4506L30.9679 16.4024C31.1125 15.9538 31.0739 15.4663 30.8607 15.046C30.6474 14.6257 30.2768 14.3066 29.8294 14.1584ZM27.422 23.7795H26.1997L23.6812 20.3987L26.2412 17.0098H27.482L24.9131 20.3987L27.422 23.7795Z" fill="#004B9D"/>
</svg>
