<svg width="40" height="40" viewBox="0 0 40 40" fill="none" xmlns="http://www.w3.org/2000/svg">
<path d="M19.0937 0.0210867C8.05998 0.518494 -0.481503 9.86664 0.0210901 20.9026C0.523683 31.9385 9.86961 40.4755 20.9048 39.9792C31.94 39.4829 40.48 30.1274 39.9789 19.0944C39.4778 8.06146 30.1311 -0.481506 19.0937 0.0210867Z" fill="#60584C"/>
<path d="M14.8941 20.5669C14.919 22.3317 15.0086 24.3476 15.319 25.9491C15.3198 25.9597 15.3233 25.97 15.3293 25.9788C15.5756 26.3402 15.8323 27.7747 16.0349 28.2243C16.0463 28.2422 16.0616 28.2572 16.0797 28.2684C16.219 28.3636 16.7012 28.5554 17.0171 28.5165C17.0269 28.5171 17.0365 28.5139 17.0438 28.5074C17.0512 28.5009 17.0557 28.4918 17.0564 28.4821C17.1275 28.1117 17.0819 27.7621 17.0397 27.0813C16.9286 25.4062 16.8067 22.7406 16.826 21.1243C18.1371 21.8547 23.0541 25.3795 25.6178 26.1102C25.6455 26.1183 25.6747 26.1191 25.7027 26.1126C25.7307 26.1061 25.7566 26.0926 25.7778 26.0732C25.9138 25.931 26.0001 25.9062 26.1556 25.8406C26.2267 25.8076 26.3101 25.6184 26.2915 25.4021C27.9156 25.3421 30.1682 24.7188 31.3501 23.2339C32.1649 22.2125 32.1501 20.7895 31.6427 20.311C31.5956 20.2691 31.4997 20.2447 31.4301 20.1758C30.6556 19.4047 29.6041 19.1973 28.4771 19.2647C27.3334 19.3325 26.4156 19.8117 25.7038 20.2613C25.7038 20.2613 25.6964 20.2613 25.6949 20.2565C25.6334 19.1621 26.0708 17.7725 25.6875 16.8732C25.6816 16.8573 25.6705 16.8438 25.6559 16.8352C25.6414 16.8265 25.6243 16.823 25.6075 16.8254C25.2653 16.831 24.5997 17.071 24.4556 17.1958C24.4385 17.2098 24.4248 17.2277 24.4158 17.248C24.4068 17.2682 24.4027 17.2903 24.4038 17.3125C24.3997 17.5676 24.3238 18.8973 24.1941 19.0254C24.1708 19.0495 24.1778 19.0739 24.1708 19.1284C24.0197 20.7284 24.0227 22.0884 24.1604 23.2358C24.1653 23.2728 24.3204 23.4358 24.506 23.5028C24.6334 23.5491 25.1412 23.4443 25.5778 23.2806C25.6326 23.2636 25.6894 23.2539 25.7467 23.2517C25.7915 23.2517 25.8093 23.1965 25.8053 23.1436C25.7978 23.0182 25.8016 22.8924 25.8164 22.7676C26.0667 21.7525 27.1027 20.4317 28.409 20.2299C29.2408 20.0995 29.7897 20.3899 30.169 20.8054C30.2678 20.9139 30.3864 21.7313 29.9145 22.6147C29.5738 23.2547 28.8856 23.8147 27.956 24.1669C26.9775 24.5373 25.9953 24.6165 24.9775 24.5795C23.9849 23.9813 22.3208 22.5947 20.8608 22.0428C20.6297 21.9525 20.2164 21.5917 20.033 21.4436C19.3245 20.8732 17.8086 19.8854 16.9086 19.2799C16.9019 19.2739 16.9019 19.2676 16.9019 19.255C16.8919 19.1917 16.896 19.1269 16.9141 19.0654C16.9195 19.048 16.9285 19.0318 16.9405 19.018C16.9525 19.0043 16.9672 18.9931 16.9838 18.9854C17.2997 18.7758 18.6315 18.0469 18.7438 17.8743C18.789 17.8348 18.8387 17.8007 18.8919 17.7728C20.8919 16.5599 24.4064 14.9158 25.9423 13.3284C25.9605 13.3012 25.9683 13.2683 25.9641 13.2358C25.9651 13.1709 25.9746 13.1063 25.9927 13.0439C26.0583 12.8527 26.064 12.6459 26.009 12.4513C26.0047 12.4366 25.9971 12.4231 25.9867 12.4118C25.9762 12.4005 25.9633 12.3919 25.949 12.3865C25.1297 12.3065 24.0401 12.805 23.0271 13.7543C22.7264 14.0362 22.4849 14.141 22.2178 14.2928C21.0697 14.9447 18.3512 16.6328 17.0538 17.468C17.0508 17.4705 17.0472 17.4721 17.0433 17.4726C17.0395 17.4731 17.0356 17.4725 17.0321 17.4708C17.0286 17.4691 17.0257 17.4664 17.0237 17.4631C17.0217 17.4598 17.0207 17.456 17.0208 17.4521C17.1019 15.925 17.3941 13.751 17.7164 12.0732C17.7244 12.0316 17.7165 11.9885 17.6941 11.9525C17.5886 11.7925 17.526 11.6028 17.4875 11.5628C17.4827 11.5569 17.4768 11.5519 17.4701 11.5484C17.2501 11.4373 17.0741 11.4788 16.9101 11.5165C16.746 11.5543 16.546 11.6836 16.2886 11.7454C16.2735 11.748 16.2594 11.7543 16.2475 11.7638C16.2356 11.7734 16.2263 11.7858 16.2204 11.7999C15.5997 13.3413 15.0397 15.9799 14.9308 18.0254C14.9308 18.0325 14.9308 18.0469 14.9171 18.038C13.9009 17.3898 12.8465 16.8034 11.7597 16.2821C11.7439 16.2759 11.7275 16.2716 11.7108 16.2691C11.4708 16.2399 11.1941 16.0636 10.9364 15.9102C10.6516 15.738 10.0916 15.3421 9.74192 15.1399C9.72496 15.1275 9.70571 15.1187 9.6853 15.1138C9.66489 15.109 9.64373 15.1083 9.62303 15.1117C9.34303 15.1599 8.76044 15.5491 8.59896 15.8013C8.54674 15.8813 8.65414 16.0532 8.64118 16.1595C8.63992 16.1651 8.64015 16.171 8.64184 16.1765C8.64353 16.182 8.64662 16.187 8.65081 16.191C8.97562 16.5243 9.83155 17.1169 10.746 17.6069C11.8019 18.1765 12.8764 18.718 13.3219 18.9995C13.3329 19.0068 13.3423 19.0164 13.3493 19.0276C13.4173 19.1022 13.4987 19.1633 13.5893 19.2076C13.7997 19.3332 13.8438 19.3476 13.9045 19.4021C13.9323 19.4284 13.919 19.458 13.8901 19.4821C12.7701 20.2599 10.5541 21.6995 9.49488 22.411C9.20884 22.5658 8.91513 22.7059 8.61488 22.831C8.34525 22.9421 8.10303 23.1206 8.00933 23.3236C7.99081 23.3606 8.01562 23.3828 8.04377 23.3917C8.21414 23.4395 8.25562 23.5595 8.37414 23.6062C8.4176 23.6184 8.46275 23.6235 8.50785 23.6213C8.72785 23.6299 9.11711 23.4806 9.81229 23.1769C10.6053 22.8239 13.0734 21.3102 13.3716 21.1369C13.3771 21.1322 13.3843 21.1298 13.3916 21.1302C13.5349 21.1302 13.6675 21.0239 13.799 20.9225C14.019 20.7616 14.2536 20.6217 14.4997 20.5047L14.8997 20.2825L14.8941 20.5669Z" fill="#FFCC00"/>
</svg>
