<svg width="40" height="40" viewBox="0 0 40 40" fill="none" xmlns="http://www.w3.org/2000/svg">
<path d="M19.0937 0.0210867C8.05998 0.518494 -0.481503 9.86664 0.0210901 20.9026C0.523683 31.9385 9.86961 40.4755 20.9048 39.9792C31.94 39.4829 40.48 30.1274 39.9789 19.0944C39.4778 8.06146 30.1311 -0.481506 19.0937 0.0210867Z" fill="#0035B2"/>
<path d="M22.254 23.3401C24.4259 22.9601 31.7596 21.4542 30.8548 17.2693C30.53 15.7686 28.9859 14.1175 26.657 12.9693C24.7948 12.1319 22.5229 11.6445 19.9707 11.6445C12.8933 11.6445 7.9707 15.3853 7.9707 20.0008C7.9707 23.2142 10.3603 26.0008 14.2022 27.4008C15.0174 25.2553 18.2629 24.0319 22.254 23.3401Z" fill="white"/>
<path d="M20.0175 24.8208C16.8434 25.2208 15.3878 26.2437 14.4512 27.4893C16.0689 28.043 17.9297 28.3541 19.9697 28.3541C27.0482 28.3541 31.9697 24.6134 31.9697 20.0015C31.9697 19.5986 31.9316 19.1966 31.856 18.8008C31.6223 24.2141 23.4897 24.3893 20.0175 24.8208Z" fill="white"/>
<path d="M13.1409 15.6367H10.7676L10.7954 15.7049C10.9009 15.9608 10.8946 16.4249 10.8876 16.8408C10.8876 16.9382 10.8835 22.3223 10.8835 22.3223H10.9305C10.9417 22.3223 12.0124 22.3593 13.0265 22.3593C15.1465 22.3593 16.5713 20.9193 16.5713 18.7838C16.5713 16.8726 15.2257 15.6367 13.1409 15.6367ZM11.9009 16.2389C12.0387 16.2278 12.4609 16.1975 12.7594 16.1975C14.5724 16.1975 15.4168 17.0775 15.4168 18.9623C15.4168 20.9119 14.6665 21.8608 13.1228 21.8608C11.9931 21.8608 11.9005 21.8063 11.9005 21.136L11.9009 16.2389Z" fill="#0035B2"/>
<path d="M22.9438 22.2772C22.9068 21.8842 22.8931 21.6172 22.8931 21.3883V19.0476H21.766L21.8031 19.1194C21.8031 19.1194 21.9175 19.3457 21.9175 19.8394C21.9175 19.8553 21.9216 21.4657 21.8768 21.8476C21.5904 21.9116 21.2977 21.9435 21.0042 21.9427C19.2146 21.9427 18.3064 20.9146 18.3064 18.8905C18.3064 17.345 19.329 16.1924 20.7912 16.0857C21.5609 16.0305 22.3009 16.2401 22.7679 16.6457L22.8479 16.7172V15.7668L22.8109 15.7594C22.3032 15.6491 21.7862 15.5871 21.2668 15.5742C18.6898 15.5742 17.1523 16.9342 17.1523 19.2013C17.1523 21.6198 19.0309 22.4813 20.789 22.4813C21.4967 22.4842 22.2036 22.4328 22.9035 22.3276L22.9483 22.3205L22.9438 22.2772Z" fill="#0035B2"/>
<path d="M26.9675 18.6515C27.6123 18.4797 28.2301 17.9108 28.2301 17.0812C28.2301 16.1763 27.413 15.6367 26.0449 15.6367H24.0156L24.0293 15.6967C24.0293 15.6967 24.0893 15.9656 24.0893 16.5823V22.3778H24.1397C24.1467 22.3778 24.9397 22.3619 25.9175 22.3619C27.6245 22.3619 28.6023 21.6212 28.6023 20.3289C28.6012 19.5289 27.9397 18.8597 26.9675 18.6515ZM25.1019 18.9763H25.626C26.8364 18.9763 27.4482 19.4515 27.4482 20.3882C27.4482 21.3763 26.9204 21.8571 25.8341 21.8571C25.3075 21.8571 25.1019 21.6667 25.1019 21.1786V18.9763ZM25.106 16.1615H25.7693C26.813 16.1615 27.2578 16.4775 27.2578 17.2175C27.2578 18.0601 26.7108 18.4519 25.5349 18.4519H25.1019L25.106 16.1615Z" fill="#0035B2"/>
</svg>
