<svg width="40" height="40" viewBox="0 0 40 40" fill="none" xmlns="http://www.w3.org/2000/svg">
<path d="M19.0937 0.0210867C8.06072 0.518494 -0.481504 9.86664 0.0210884 20.9026C0.523681 31.9385 9.86961 40.4755 20.9048 39.9792C31.94 39.4829 40.48 30.1274 39.9789 19.0944C39.4778 8.06146 30.1311 -0.481506 19.0937 0.0210867Z" fill="#BE1E24"/>
<path d="M26.9478 12.9167C25.7996 12.0938 24.4189 12.0278 23.8685 12.7971C23.3181 13.5664 23.7989 14.8634 24.9426 15.6923C26.0863 16.5212 27.4663 16.5723 28.0204 15.8034C28.5744 15.0345 28.0955 13.7401 26.9478 12.9167Z" fill="white"/>
<path d="M20.0055 8H19.9999C15.4444 8 11.4784 10.5444 9.44919 14.2911C6.72697 19.2963 7.89363 25.6856 12.4966 29.3704C13.8965 30.4913 15.5303 31.2836 17.2773 31.6889L17.3362 31.7022C17.4066 31.7181 17.477 31.7337 17.5477 31.7481L17.6344 31.7659C17.6976 31.7785 17.7609 31.7909 17.8244 31.803L17.917 31.8196C17.9829 31.8311 18.0484 31.8419 18.1144 31.8526L18.1962 31.8656C18.2859 31.8789 18.3759 31.8919 18.4659 31.9026H18.4747C18.5681 31.9144 18.6599 31.9248 18.7551 31.9348L18.8451 31.943C18.9077 31.9493 18.9707 31.9548 19.0336 31.96L19.151 31.9685L19.3092 31.9785C19.3551 31.9811 19.401 31.9837 19.447 31.9856L19.5729 31.9904C19.6292 31.9926 19.684 31.9944 19.7418 31.9956H19.7684C19.8459 31.9956 19.9236 31.9985 20.0014 31.9985C26.4144 31.9985 31.631 26.9667 31.9644 20.6385C31.9781 20.4241 32.0014 20.2144 32.0014 19.9985C31.9999 13.38 26.6296 8 20.0055 8ZM25.4129 19.3407C24.9755 21.3778 25.5347 22.3585 25.1203 25.1615C24.6666 28.2393 23.7599 30.3993 20.4733 30.7993C16.7592 31.2519 11.6877 27.7063 14.8147 24.5793C15.3977 23.9944 15.5288 23.7793 16.427 23.1167C20.2455 19.8889 15.4814 17.4096 13.6296 18.8281C11.8847 20.2833 13.6296 23.6281 11.784 23.0022C9.784 22.3119 9.26215 18.713 11.2059 16.767C12.0462 15.9248 13.6359 15.2759 14.0159 14.347C14.6544 12.8048 13.6955 11.5222 11.9603 11.9344C13.0153 10.8767 14.2689 10.0377 15.649 9.46569C17.0291 8.89367 18.5086 8.59985 20.0025 8.60111C26.184 8.60296 31.2151 13.527 31.3914 19.6704C29.9629 17.9007 26.5888 16.0974 25.4133 19.3407H25.4129Z" fill="white"/>
</svg>
