<svg width="40" height="40" viewBox="0 0 40 40" fill="none" xmlns="http://www.w3.org/2000/svg">
<path d="M20 40C31.0457 40 40 31.0457 40 20C40 8.9543 31.0457 0 20 0C8.9543 0 0 8.9543 0 20C0 31.0457 8.9543 40 20 40Z" fill="#00B0A8"/>
<path d="M32 25.7734H31.9911V25.6797L31.9378 25.4397H31.9296V25.4163H31.9215V25.3934H31.9137V25.37H31.9048V25.3549H31.8959V25.3308H31.8889L31.8793 25.2982H31.8711V25.2749L31.8448 25.223L31.8359 25.206L31.8178 25.1715L31.7848 25.126L31.7593 25.0741L31.7415 25.0478L31.7159 25.0108L31.6789 24.9652L31.6359 24.9108L31.6022 24.8737L31.55 24.8249L31.5415 24.8074H31.5244L31.49 24.7608H31.4741L31.2148 24.4793L31.1881 24.4593V24.4512L30.7515 24.0512L30.7426 24.0337H30.7259L30.7081 24.0152L30.5115 23.8152L30.3737 23.68L30.3641 23.6626L30.3474 23.6434H30.3333L30.307 23.6226L30.2989 23.6049L30.2733 23.5849H30.2593L30.2326 23.5649L30.2237 23.5482L30.1807 23.516L30.147 23.5015L30.1304 23.4912V23.4826H30.1111V23.4745L30 23.37L29.92 23.29V23.2749L29.8944 23.253V23.2467L29.8778 23.2426L29.8096 23.1626H29.7919L29.7663 23.1256L29.7489 23.1215L29.7319 23.0952H29.7152L29.6985 23.0689H29.6807L29.6719 23.0512H29.6559L29.5185 22.9078L29.4937 22.8886V22.8726L29.4767 22.8619V22.846L29.4593 22.8349V22.8267L29.4415 22.8163V22.8004H29.4337L29.407 22.7563H29.3904L29.057 22.4286L29.0474 22.4108L29.013 22.3982L29.0052 22.3804L28.9707 22.366L28.9626 22.3493L28.8144 22.1963L28.7774 22.1515L28.6663 22.0374L28.6144 21.9734H28.5974L28.5719 21.9363H28.5552L28.5285 21.8993L28.5119 21.8952L28.4944 21.8689H28.4815L28.3574 21.6786H28.3496L28.3393 21.6537L28.323 21.6426V21.6293L28.3063 21.6189L27.7807 21.0367H27.773L27.7641 21.0112L27.747 21.0008V20.9849L27.7296 20.9745V20.9574L27.7041 20.9386V20.9223L27.6863 20.9112V20.896L27.6441 20.8567V20.8408L27.6007 20.8015L27.5926 20.7774H27.5759L27.5504 20.7334L27.4985 20.6926L27.4296 20.6126H27.4126L27.3785 20.5671H27.3615L27.3526 20.5504H27.3333L27.3167 20.5237H27.2996L27.2907 20.5063H27.2741V20.4878H27.2652L27.2422 20.4686L27.2319 20.456V20.4408L27.2148 20.4286V20.4134L27.1974 20.3945V20.3782L27.1804 20.3678L27.1719 20.3352L27.1541 20.3237V20.3086H27.1481L27.1396 20.2849L27.1219 20.2726V20.2574L27.0881 20.2271V20.2126L27.0511 20.1823V20.1663L26.9904 20.1086L26.9826 20.083H26.9648V20.0678H26.9481L26.8281 19.9519L26.8148 19.9256H26.7963L26.7881 19.9078H26.7715L26.753 19.8815L26.7185 19.8671L26.7115 19.8504L26.6852 19.8374V19.8297L26.6348 19.8049V19.7967H26.6178V19.7886L26.5659 19.7637V19.756L26.5244 19.74V19.6815H26.5059V19.6734L26.4811 19.6686V19.6608H26.4644V19.6526L26.4378 19.6486V19.6408H26.4219V19.6293L26.3619 19.6112V19.603L26.337 19.5982V19.5923L26.3026 19.586V19.5789L26.2593 19.57V19.5619L26.2167 19.5534V19.546L26.0807 19.5134V19.506L25.7063 19.4526V19.4597L25.6633 19.4526V19.4597L25.6207 19.4526V19.4597L25.5952 19.4549V19.4619L25.5615 19.4563V19.4637L25.527 19.4582V19.466H25.5096V19.4741H25.4593V19.4812L25.4422 19.4774V19.4852H25.4167V19.4926H25.383V19.5004L25.3574 19.4956V19.503L25.3063 19.51V19.5174H25.2889V19.5252H25.2552L25.247 19.5397H25.2126L25.2048 19.5534H25.1852V19.5612H25.1596L25.1526 19.5756L25.1341 19.5719L25.1181 19.5926H25.1004L25.0837 19.6126H25.0678L25.0422 19.6389H25.0244L24.1156 20.15H24.0785V20.1589H24.053L24.0441 20.1734H24.0274V20.1812L23.9937 20.1989L23.7144 20.366V20.3812L23.6978 20.386L23.673 20.4126H23.6544L23.6385 20.4252L23.1322 20.6597L23.1074 20.686L23.0896 20.6908V20.706L23.073 20.7197L23.0563 20.7156L23.0474 20.73H23.0304V20.7374H23.0137V20.7452L22.9881 20.7397V20.7478L22.937 20.7541V20.7623H22.92V20.7693L22.8681 20.7767L22.8607 20.79H22.8267L22.8193 20.8045H22.8019L22.793 20.8182H22.7778L22.7689 20.8326H22.7522L22.7433 20.846H22.7263L22.7178 20.8597L22.6759 20.8726H22.6585L22.6152 20.786L22.6063 20.7534L22.5896 20.7423L22.58 20.7093H22.573L22.5633 20.6845L22.5463 20.6734V20.6582L22.5296 20.6471V20.6319L22.5033 20.6108V20.5949L22.477 20.5749V20.5589L22.4433 20.5293V20.5134H22.4337L22.417 20.486L22.2689 20.2789H22.2604L22.2426 20.2293H22.2337V20.1589H22.2259V20.1437H22.217V20.1278H22.2089V20.1126L22.1922 20.0934V20.0782L22.1744 20.0671L22.1144 19.9693V19.9534L22.0978 19.943V19.9278L22.0722 19.9071V19.8908L22.0385 19.8612L21.9344 19.6782H21.9274V19.6541H21.9178L21.9089 19.6134H21.9004V19.5989H21.8915V19.5756H21.8826L21.873 19.543H21.8659V19.5278H21.857V19.5045L21.8393 19.4926V19.4782H21.8322V19.4623H21.8233V19.446L21.8059 19.4278V19.4126L21.7896 19.4012L21.7804 19.3686H21.7715L21.7619 19.3437L21.7452 19.3319V19.3167L21.7204 19.2956V19.2804L21.7026 19.2693V19.2541L21.6763 19.2334L21.6674 19.2086H21.6593L21.6178 19.1478L21.5674 19.0678H21.5585V19.0449H21.5496V19.0215H21.5415V18.9982H21.5337V18.9823H21.5248V18.9593H21.5185V18.943H21.5096V18.8815H21.5007L21.4841 18.8312H21.4752V18.8145H21.4663V18.8008H21.4574V18.7849H21.4489L21.4311 18.7352L21.4144 18.7249L21.4056 18.6912L21.3881 18.6808V18.6649H21.38L21.3704 18.6393L21.3537 18.6289V18.6126L21.3281 18.5926V18.5767L21.3022 18.5567V18.5408L21.26 18.5037V18.4812L21.1119 18.2741H21.103L21.0933 18.233H21.0852L21.0774 18.2012H21.0678V18.1778H21.0589L21.05 18.1452H21.0422L21.0326 18.1115L21.0156 18.1012L20.9974 18.0515L20.9815 18.0404L20.9719 18.0074L20.9548 17.9963V17.9804L20.9293 17.9604V17.9445L20.9126 17.933V17.9171L20.887 17.8971V17.8819L20.8526 17.8523V17.8363L20.8093 17.7971V17.7812L20.6611 17.5749H20.6522L20.6444 17.5419H20.6356V17.5182H20.6296L20.6115 17.4686H20.6026L20.5944 17.4349L20.577 17.4245V17.4071H20.5681V17.3919L20.5515 17.3726V17.3567H20.5426L20.5337 17.3319L20.517 17.3204V17.3052L20.4985 17.2941V17.2782L20.473 17.2574V17.2412L20.4474 17.2223V17.206L20.413 17.1767V17.1604L20.2537 16.8886H20.2456L20.2289 16.8389H20.22V16.7982H20.2122V16.7823H20.2033V16.7663H20.1944V16.75H20.1852V16.7341H20.1781V16.7189H20.1693V16.7034H20.1604V16.6915V16.6819H20.1522L20.1604 16.6608L20.2515 16.4593L20.2685 16.4474V16.4315L20.2852 16.4267V16.4034H20.2963V16.3867H20.3041L20.313 16.3563H20.3219V16.333H20.3307L20.3385 16.3034H20.3474L20.437 16.0152H20.4444V15.9841H20.4533V15.9449H20.4626V15.8997H20.4707V15.8541H20.4796V15.7837H20.4893V15.6893H20.497L20.5685 15.2797V15.2563H20.577V15.2315H20.5852L20.6011 15.1252V14.4763L20.5837 14.3556H20.5756V14.3245H20.5674V14.3012H20.5589V14.2774H20.5507L20.5237 14.17H20.5156V14.1597H20.5059L20.497 14.11H20.4885L20.4796 14.0782H20.4715L20.3837 13.8115H20.3756L20.3652 13.7549H20.357V13.7315H20.3493V13.7078H20.3396V13.6797H20.3204V13.6563H20.3107V13.6404H20.3026V13.6174H20.2941L20.2763 13.5667H20.2674V13.5508H20.2593V13.5349H20.2504V13.5182H20.2407V13.503H20.2319V13.4878L20.2152 13.4686V13.4389H20.2063L20.1978 13.4141L20.18 13.403V13.3878H20.1711L20.16 13.3589L20.1433 13.3493V13.333L20.1178 13.313V13.2971L20.093 13.2763L19.9544 13.1163V13.1L19.9378 13.0889V13.0808H19.9207L19.8863 13.0352H19.8696L19.8433 12.9982H19.8263L19.8178 12.9815H19.8015L19.793 12.9637H19.7752L19.767 12.9471H19.7496L19.7415 12.9304H19.7241L19.7152 12.9126L19.68 12.8774L19.6719 12.8608L19.6378 12.8463V12.8389L19.5863 12.8141V12.8063L19.5607 12.8015V12.7974L19.527 12.7837V12.7774L19.5007 12.7726V12.7652H19.4841V12.7574L19.4585 12.7526V12.7445L19.4337 12.7404V12.7326L19.4089 12.7278V12.7197L19.3833 12.7149V12.7067L18.7111 12.5515V12.5589L18.6689 12.5508V12.5589L18.6352 12.5526V12.5604L18.6007 12.5534V12.5619L18.5759 12.5574V12.5652L18.5496 12.5604V12.5686L18.5256 12.5637V12.5715H18.4744V12.5804H18.4578V12.5893L18.433 12.5837V12.5923H18.3993V12.6004H18.3737V12.6074L18.3233 12.6134V12.6212H18.3063V12.6274H18.2719L18.2641 12.6419H18.2304L18.2215 12.6563L18.2048 12.6523L18.06 12.6804V12.6886H18.0441V12.6963L18.0178 12.6915V12.6997H18V12.7074L17.9744 12.7026V12.7108H17.9374V12.7189L17.9126 12.7141V12.7212H17.8781V12.7286L17.8533 12.7237L17.8448 12.7382H17.8278V12.746H17.8148V12.7549H17.7981L17.7811 12.7674H17.7637L17.7563 12.7804L17.7059 12.7867V12.7949H17.6804L17.6715 12.8093H17.6548L17.6459 12.8237H17.6296V12.8315H17.6041L17.5952 12.8452H17.5774L17.5607 12.866L17.5448 12.8619L17.5111 12.8949H17.4944L17.4689 12.9212H17.4519L17.3848 12.9797L17.3681 12.9756L17.3511 12.9963H17.3333V13.0123L17.2593 13.0612V13.0404L17.2256 13.0571V13.0737L17.1926 13.0912V13.1063L17.167 13.1167V13.133L17.1504 13.1367V13.153L17.1248 13.1641L17.1174 13.1937L17.0993 13.1986L17.0919 13.22H17.083L17.0752 13.2504L17.0593 13.2552V13.2704H17.0496V13.28L17.0337 13.293V13.3082L17.0167 13.3137V13.3289H17.0089V13.3441L16.783 13.6463V13.6623L16.7496 13.6793V13.6952L16.7326 13.7V13.7071L16.7152 13.7119V13.7271L16.6896 13.7393L16.6815 13.7608L16.6648 13.7649V13.7808L16.647 13.7856V13.8008L16.6215 13.8119L16.6137 13.8415L16.5967 13.8463L16.5889 13.8767L16.5719 13.8808L16.5641 13.9112L16.5463 13.9152V13.9312L16.5296 13.9434V13.9593H16.5185V13.9745H16.5096V13.9904H16.5007V13.9997H16.4915L16.4759 14.0437H16.4674L16.4585 14.0808H16.4504L16.4426 14.1104H16.4344V14.1345H16.4256V14.1504H16.417L16.4 14.2178H16.393V14.233H16.3833V14.2649H16.3752V14.2882H16.3704V14.3112H16.3615V14.3193H16.3533L16.2448 14.4704V14.4856L16.2189 14.4978V14.513L16.1952 14.5234V14.5393L16.1781 14.5441V14.56L16.1615 14.5641V14.58L16.1437 14.5849V14.6L16.127 14.6049V14.6208H16.1104L16.1022 14.6512L16.0856 14.656V14.6723H16.0774V14.6882H16.0685V14.7034L16.0519 14.716V14.7312L16.0333 14.736V14.7523H16.0248V14.7682H16.0159V14.7923L16.0007 14.7971V14.82H15.9911V14.836H15.9837L15.9752 14.8656H15.967V14.8886H15.9589V14.9045H15.9511V14.9278H15.9422V14.9437H15.9341V14.9671H15.9248V14.983H15.9159V15.016H15.9078V15.0397H15.8989L15.7719 15.2219V15.2363L15.7296 15.2604V15.2756L15.7056 15.2867V15.3026L15.6881 15.3074L15.68 15.3293H15.6711V15.3452L15.6544 15.35V15.3612L15.6367 15.366V15.3812L15.62 15.386V15.4019H15.6033V15.4189L15.587 15.4226L15.5793 15.4523L15.5622 15.4571V15.4804L15.5456 15.4852L15.5289 15.5293H15.5185V15.5445H15.5096V15.5597H15.5185L15.5007 15.6026H15.4922V15.6267H15.4833V15.6426H15.4744L15.4656 15.673H15.4578V15.6971H15.4489V15.7123H15.44L15.4322 15.7578H15.4233V15.7741H15.4137V15.7971H15.4074V15.8212H15.3852V15.8434H15.377V15.8749H15.3693V15.8978H15.3604V15.9212H15.3522V15.9604L15.2781 16.0634L15.2696 16.086L15.2367 16.1026V16.1189L15.2111 16.1293L15.2167 16.1541H15.2V16.17L15.1822 16.1749V16.19L15.1663 16.1956V16.2108L15.1496 16.2156V16.2308L15.1326 16.2356L15.1237 16.2652L15.107 16.27L15.1 16.2997L15.083 16.3045V16.3197L15.0663 16.3323V16.3482H15.0574V16.3645H15.0478V16.3812H15.037V16.3963H15.0281V16.4115H15.0193V16.4012H15.0111V16.4163H15.0026L14.9863 16.4597H14.9785V16.4812H14.9696L14.9607 16.5108H14.953V16.5341H14.9441V16.55H14.9359L14.92 16.6174H14.9111V16.6334H14.9026L14.8033 16.7878V16.803L14.7522 16.8334V16.8486L14.7104 16.8719V16.8886L14.6767 16.906V16.9219L14.6593 16.926L14.6511 16.9486H14.6426V16.9626L14.6178 16.9737V16.9897L14.6 16.9945L14.5922 17.0241L14.5674 17.0352V17.0512H14.5496L14.5337 17.0952L14.5159 17.0993V17.1152L14.4985 17.1282V17.1441H14.4896V17.1593H14.4815V17.1745V17.1897H14.4733V17.2049H14.4656V17.2219H14.4567V17.2374H14.4478L14.4319 17.2819H14.4222V17.2797H14.4144L14.4063 17.31H14.3981V17.333H14.3896V17.3489H14.3807L14.3733 17.3945H14.363V17.4104H14.3552L14.3463 17.4634H14.3393V17.4812H14.3311L14.2048 17.6226V17.6382L14.163 17.6612V17.6763L14.1215 17.7004L14.1126 17.73L14.087 17.7412V17.7571L14.0622 17.7674L14.0544 17.7893L14.0367 17.7949V17.8093H14.0278V17.8252L14.0111 17.83L14.003 17.8597L13.9774 17.87L13.9704 17.9004H13.9526V17.9156L13.9352 17.9286V17.9437H13.9259V17.9582H13.9178V17.9741H13.9093V17.99H13.9011V18.006H13.893V18.0219H13.8833V18.0367H13.8748V18.0526H13.8667L13.8578 18.083H13.8493V18.0989L13.627 18.3389H13.6104L13.5856 18.366H13.5767V18.383L13.56 18.3871L13.5352 18.4141H13.5263V18.3989H13.5185L13.5019 18.4278H13.4852V18.4441L13.4433 18.4912L13.4178 18.5015V18.5182L13.3922 18.5286L13.3844 18.5582L13.3604 18.5693V18.5852H13.3515V18.6004L13.3348 18.6052L13.3267 18.6356H13.31L13.3011 18.666L13.2852 18.6708V18.686L13.2674 18.6982V18.7141H13.2593V18.73H13.2515V18.7452H13.2426V18.7612H13.2348V18.7774H13.2267V18.7926H13.2178V18.8078H13.21L13.1937 18.8515H13.1841V18.8749H13.1756V18.8886H13.1667V18.9119H13.1578L13.1356 18.9389H13.1274L12.9185 19.1982V19.2141L12.9019 19.2189V19.226L12.8841 19.2308V19.246L12.8426 19.27V19.2852L12.817 19.2974V19.3126L12.7922 19.323V19.3389L12.7748 19.3437V19.3589L12.7578 19.3645V19.3589L12.7411 19.363V19.3789L12.7252 19.3837V19.3997H12.7156V19.4156L12.6993 19.4204L12.6907 19.45H12.6737L12.6659 19.4812L12.6489 19.4852V19.5012L12.6322 19.5134V19.5293H12.6241V19.546H12.6156V19.563H12.6067V19.5782H12.5978V19.5941H12.59L12.573 19.6382H12.5652V19.663H12.5556V19.6789H12.5467L12.5378 19.7086H12.53L12.5137 19.7456L12.3385 19.9308H12.3211V19.9341L12.2874 19.9519V19.9678L12.2452 19.9908V20.006L12.2026 20.0293V20.0452L12.177 20.0567V20.0789L12.1522 20.09V20.106L12.1356 20.11V20.1271H12.1178V20.1437L12.1004 20.1486V20.1637L12.0826 20.1686L12.0756 20.1982L12.0578 20.2023L12.05 20.2326L12.033 20.2374L12.0211 20.2534L11.6578 20.7719V20.7863L11.6156 20.8097V20.8263L11.573 20.8497V20.8649L11.5556 20.8697V20.8808L11.53 20.8919V20.9078L11.5044 20.9193L11.4963 20.9489L11.4707 20.9593L11.4619 20.9889L11.4459 20.9926L11.4378 21.0152H11.4293L11.4122 21.0593L11.3963 21.0641L11.3796 21.1071L11.3619 21.1126L11.0419 21.443L11.0341 21.4649L10.953 21.5182V21.5341L10.9104 21.5574V21.5726L10.8689 21.5956L10.8593 21.6174L10.8433 21.6223L10.8352 21.6526L10.8007 21.6693V21.6852L10.7848 21.69V21.7052L10.767 21.7108L10.7593 21.7326H10.7511L10.7433 21.763L10.6752 21.8349L10.6656 21.8423L10.6511 21.8534L10.5793 21.903L10.5615 21.9237L10.5448 21.9197L10.5359 21.9341H10.5185L10.4848 21.9671H10.4681L10.4511 22.0126H10.4344L10.3841 22.0582H10.3674L10.2681 22.1645L10.2185 22.1934V22.21H10.2007V22.2182L10.1681 22.2349V22.2508H10.1593L10.1152 22.2741H10.0985V22.29L10.0481 22.3437L10.0074 22.39L9.98889 22.3949L9.97296 22.4156V22.4308L9.95593 22.4356V22.4519L9.93926 22.4556V22.4719L9.92259 22.4845V22.4997L9.90556 22.5045V22.5182H9.89778V22.5349L9.88074 22.5471L9.86481 22.5671V22.583L9.62481 22.7567L9.5663 22.8078H9.54L9.50741 22.8326V22.8515H9.49926L9.44 22.9108H9.43037L9.30556 23.0426L9.0863 23.1908H9.06963L9.06148 23.2052H9.04407L9.03593 23.2189H9.01926V23.2012H8.99444L8.9863 23.2156H8.96889L8.95222 23.2363H8.93519L8.91852 23.2571H8.90148L8.89296 23.2708L8.8263 23.2963V23.3123L8.74074 23.35V23.366L8.72333 23.3789L8.70667 23.3749L8.69852 23.3893L8.63926 23.4263V23.4423L8.58815 23.4634V23.4793L8.55519 23.4967V23.5119L8.51296 23.536V23.5519L8.47037 23.5745V23.5904L8.44481 23.6015V23.6174L8.42 23.6278L8.41222 23.6574L8.38667 23.6689V23.6849L8.36963 23.6897V23.7034L8.35296 23.7082L8.34556 23.7297H8.33704L8.32 23.7745H8.30333V23.7912H8.2963V23.8082H8.28778V23.8241L8.27074 23.8371V23.8515L8.25333 23.8563L8.24519 23.8934L8.22852 23.8989L8.22037 23.936H8.21259V23.9519H8.20444L8.18778 23.996H8.17889L8.17074 24.0415H8.16296L8.15407 24.0712H8.14519L8.12926 24.1389H8.12037V24.1534H8.11111V24.1849H8.10407V24.2089H8.09444V24.2323H8.0863L8.07926 24.2856H8.06963V24.3171H8.06148V24.3563H8.0537L8.0463 24.4249H8.03704V24.4723H8.02889V24.5193H8.02074L8.00741 24.8056H8L8.02074 25.1067H8.02963L8.03852 25.2178H8.04704V25.2641H8.05667V25.296H8.06556V25.3263H8.07407L8.08259 25.4004H8.09148L8.10037 25.4571H8.10926V25.4812H8.11704V25.5045H8.12593V25.5356H8.13407V25.5508H8.14185V25.5819H8.15074V25.5982H8.15889L8.16852 25.646H8.17704L8.18593 25.6797H8.19481V25.7034H8.20259L8.21074 25.7352H8.21963V25.7593L8.2363 25.7697V25.7919H8.24444V25.8071H8.25333V25.8234H8.25926V25.8393H8.26815V25.8545H8.27778L8.28556 25.8863L8.30333 25.8974L8.32 25.9482L8.33778 25.9586L8.3563 26.0089L8.37296 26.02V26.0352L8.39037 26.0463V26.0615L8.40741 26.0726V26.0889H8.4163L8.42481 26.1137L8.44185 26.1249V26.1408L8.46741 26.1615V26.176L8.48481 26.1882V26.2023L8.51926 26.2337V26.2489L8.5537 26.2786V26.2937L8.6137 26.3519V26.3682L8.68259 26.4352L8.7937 26.5656H8.80963L8.85444 26.6208H8.87074L8.90481 26.6663H8.92333L8.93926 26.6926L8.95704 26.6967L8.96481 26.7137H8.98259L8.99926 26.7408H9.0163L9.02481 26.7586L9.04963 26.7712V26.8008H9.06593L9.07556 26.8186H9.09296L9.10963 26.8456L9.14333 26.8593L9.15222 26.8767L9.20333 26.9015L9.21222 26.9186L9.22889 26.9223L9.24667 26.9408H9.26407V26.9497H9.28111V26.9574H9.29778V26.9656H9.31444L9.32333 26.983L9.34889 26.9878V26.996H9.37037V27.0041L9.40481 27.0186V27.0263L9.42963 27.0304V27.0367H9.44444V27.0445L9.47815 27.0589V27.066L9.5037 27.0719V27.0789H9.52111V27.0871L9.57259 27.1037V27.1126L9.59815 27.1167V27.1245H9.61481V27.1326L9.72593 27.1767V27.1849L10.0659 27.3104L10.2452 27.3512V27.3593L10.7548 27.4312V27.4234L10.8396 27.4312L10.9837 27.4178L11.017 27.4249V27.44L11.043 27.4449V27.44L11.0685 27.4449V27.4378L11.0941 27.4423V27.4345L11.1278 27.44V27.433H11.1444V27.4249H11.2244V27.416L11.2404 27.42V27.4119H11.2915V27.4041L11.343 27.3986V27.3904H11.3589V27.3834L11.3852 27.3882V27.38L11.4356 27.373V27.3656L11.4533 27.3697V27.3608H11.4878L11.4963 27.3463H11.5126V27.3378L11.53 27.3415L11.5459 27.3289H11.5637L11.5726 27.3152H11.6059L11.6141 27.3015H11.6485L11.6563 27.2882H11.6741L11.6893 27.2682H11.7237L11.7404 27.2463H11.7574L11.7748 27.2263H11.7915L11.7996 27.213H11.8163L11.8252 27.1986L11.8507 27.1871V27.2H11.8667L11.8926 27.1737H11.9093L12.423 26.8404L12.4396 26.8349L12.4563 26.8389V26.8308H12.4741L12.4815 26.8145H12.4985V26.8067H12.5322V26.7986L12.5922 26.7856L12.5993 26.7715L12.6033 26.7593L12.6111 26.7456L12.637 26.7337L12.6544 26.7378L12.6704 26.7171L12.7207 26.6963L12.7463 26.6923V26.6763L12.8311 26.6393L12.8489 26.6193H12.8656L12.8815 26.6071V26.5923L13.0415 26.4741L13.0841 26.4508V26.4341L13.1096 26.4234L13.1178 26.4012L13.1344 26.4052V26.3893L13.1759 26.3419L13.2015 26.3308V26.3212L13.2185 26.3163V26.3004H13.2496L13.2663 26.2956V26.2804L13.2826 26.2597L13.3 26.2549V26.2397L13.3178 26.2349L13.3248 26.2045L13.3415 26.2004V26.1849L13.3752 26.1437L13.5944 25.9263L13.6685 25.8793L13.6941 25.8752L13.7037 25.8515H13.7204L13.7285 25.83L13.7885 25.793V25.7774L13.8467 25.7423V25.726L13.8804 25.7086V25.6934L13.897 25.6886V25.6789L13.9141 25.6741V25.6589L13.93 25.6541V25.6389L13.9548 25.6278V25.6126L13.9722 25.6071V25.5923L13.9885 25.5874V25.5723L14.0059 25.5674V25.5512L14.0237 25.5463V25.5304H14.0404L14.0485 25.5008L14.0652 25.496L14.2333 25.3312L14.2411 25.3178H14.25L14.2581 25.3041H14.2748V25.296L14.3093 25.2863V25.2712H14.3259V25.2623L14.3596 25.2452H14.3685V25.2293L14.4363 25.1949L14.4444 25.1849H14.4611L14.6293 25.0249L14.6452 25.0286V25.0126H14.6541L14.6619 24.9904L14.697 24.9726V24.9574L14.7219 24.9463V24.9304L14.7485 24.92L14.7556 24.8904L14.7819 24.8789L14.7885 24.8486L14.8141 24.8382L14.8219 24.8086L14.8396 24.8037L14.8474 24.7745L14.8644 24.7697V24.7545L14.8819 24.7415V24.7263H14.8889V24.7215H14.8978L15.1656 24.4745L15.1744 24.4615H15.1911L15.233 24.4223L15.2504 24.4174V24.403L15.3433 24.3415V24.3263L15.3593 24.3215V24.3134L15.3759 24.3097V24.2934H15.3848L15.4015 24.2649L15.4185 24.2686V24.2534L15.4607 24.2063L15.4856 24.1945L15.4937 24.1649L15.5193 24.1545L15.5274 24.1249L15.5441 24.12V24.1049L15.5607 24.1V24.0849L15.577 24.0793L15.5856 24.0497L15.6026 24.0449V24.0297L15.6193 24.0167V23.9997H15.6296V23.9845H15.6374V23.9686L15.6544 23.9556V23.9404L15.6711 23.9356V23.9197H15.6781V23.9037H15.687L15.7167 23.8619H15.7256V23.8397H15.7333V23.8252H15.7407V23.8019H15.7496L15.757 23.7726H15.7656L15.7815 23.7278L15.7896 23.7141L15.9352 23.5308L15.9522 23.5252V23.5182L15.9856 23.5012V23.4852L16.0281 23.4619V23.4467L16.0615 23.43V23.4141L16.0793 23.4093V23.3934L16.1041 23.3819V23.3667L16.1207 23.3619V23.3467L16.1378 23.3412V23.326L16.1544 23.3212V23.306L16.1722 23.3004V23.286L16.1889 23.2804L16.197 23.2515L16.2137 23.2467V23.2308H16.2222V23.2149H16.23V23.1989H16.2396V23.1849L16.2563 23.18L16.2726 23.1367H16.2804V23.1208H16.2893L16.3052 23.0767H16.3133V23.0526H16.3219V23.0408H16.33L16.3389 23.0112H16.3467L16.3556 22.9741H16.3637L16.3726 22.9293H16.3804L16.3885 22.8997H16.3974V22.8674H16.4074L16.4156 22.8467L16.557 22.6867V22.6715L16.5996 22.6482V22.6412L16.6411 22.6171V22.6019L16.6667 22.5908L16.6748 22.5612L16.6915 22.5563L16.6996 22.5341L16.7252 22.5234L16.733 22.4941L16.7585 22.4826L16.7667 22.453L16.7833 22.4482L16.7915 22.4189L16.8089 22.4141V22.4012L16.8252 22.3882V22.37H16.8337V22.3541H16.8426V22.3382H16.8515V22.323L16.8674 22.3189V22.296L16.8844 22.2912V22.2682H16.8889V22.2519H16.8978V22.24H16.9067L16.9233 22.1978H16.9322V22.1745H16.94V22.16H16.9489L16.957 22.123H16.9648L16.9963 22.0586H17.0041V22.0423H17.0122V22.0112H17.0211L17.1489 21.856V21.84L17.1915 21.816V21.8008L17.2248 21.783V21.7678L17.2411 21.763V21.7608L17.2667 21.7497V21.7345L17.2922 21.7241L17.3 21.6937L17.3248 21.683V21.6663L17.3426 21.6615V21.6456H17.3515V21.6293L17.3681 21.6245L17.3763 21.5941L17.3937 21.59L17.4019 21.5678H17.4104V21.5437L17.4274 21.5389V21.523L17.4441 21.5108V21.4956H17.4522V21.4812H17.4619V21.466H17.4696V21.4515H17.4815L17.4981 21.4086H17.5063V21.3845H17.5152V21.3686H17.523L17.5311 21.3389H17.54L17.7152 21.1141L17.7485 21.0971V21.0812L17.8085 21.0441V21.0289L17.8422 20.9737V20.9586L17.8593 20.9537L17.8456 20.9434L17.863 20.9393V20.9226L17.8793 20.9186V20.9026L17.9041 20.8912V20.876L17.9215 20.8712L17.9296 20.8497H17.9381V20.8345L17.9552 20.8289V20.8145L17.9719 20.8104V20.7945L17.9896 20.7897L18.0056 20.7463L18.0222 20.7415L18.0393 20.6967L18.0552 20.693L18.0719 20.6489H18.0807V20.6337H18.0741L18.0804 20.64H18.0893V20.616H18.097V20.6H18.1052L18.1141 20.5704H18.1219L18.1437 20.5271H18.1522V20.5119H18.1604V20.4882H18.1685V20.473H18.177V20.4504H18.1852V20.4263H18.1941L18.2067 20.4056H18.2156V20.4H18.2222V20.3682H18.23V20.3449H18.2381L18.2507 20.3234L18.347 20.193L18.3885 20.156V20.14L18.4141 20.1286V20.1108H18.423L18.4319 20.0886L18.4485 20.0837V20.0686L18.4733 20.0574L18.4811 20.0278L18.507 20.0163V19.9997L18.5237 19.9949L18.5404 19.9512L18.5574 19.9463V19.9312L18.5741 19.9182V19.9023H18.5822V19.8886L18.5989 19.8837V19.8597H18.6078V19.8445L18.6244 19.8397V19.8163H18.6326V19.8012H18.6422L18.6581 19.7574H18.6667V19.7334H18.6756L18.683 19.7037H18.6926V19.6804H18.7011V19.6663H18.7093V19.643H18.7189V19.62H18.7267V19.6049H18.7356L18.7437 19.5593L18.7196 19.5223H18.7107V19.4982V19.5182H18.7196L18.7444 19.5823H18.75V19.5871L18.7926 19.6493V19.6663L18.81 19.6778V19.6937L18.8267 19.7049V19.7193L18.8444 19.7304V19.7474H18.8519L18.8611 19.7723L18.8774 19.7834V19.7993L18.9119 19.8289V19.8441L18.9459 19.8745V19.8886L19.0148 19.956L19.0237 19.9815L19.1967 20.2871L19.2141 20.2974L19.2319 20.3478H19.2404L19.2485 20.3734L19.2659 20.3837V20.3997L19.283 20.4112V20.4263L19.3078 20.4463V20.4623L19.3333 20.4823V20.4982L19.3756 20.5374V20.5582L19.5404 20.7845H19.5493L19.5574 20.8182H19.5659V20.8423H19.5741L19.6059 20.896H19.6141L19.6237 20.9286L19.6404 20.9397L19.6493 20.9726H19.6574V20.9878L19.6748 20.9989V21.0149L19.6919 21.0263V21.0415L19.7093 21.0519V21.0678L19.727 21.0789V21.0941L19.7444 21.1052V21.1215L19.7652 21.1486V21.1645L19.8519 21.2515V21.2678L19.8889 21.2963V21.3052L19.9515 21.3793L20.0315 21.4863H20.037L20.0504 21.5049H20.0593V21.52H20.0681L20.0759 21.553H20.0848L20.0944 21.5863L20.1122 21.5971L20.12 21.6297L20.1378 21.6408V21.6571L20.1544 21.6674V21.6834L20.18 21.7034V21.72L20.2063 21.74V21.7545L20.2407 21.7856L20.2496 21.8104L20.2752 21.8304L20.377 21.9552H20.3722L20.2489 21.9856H20.2322V21.9937H20.2144V21.9997H20.197L20.18 22.0126H20.1633L20.1552 22.0271H20.1385L20.1296 22.0408H20.1137L20.1048 22.0541H20.0711L20.0626 22.0686L20.0456 22.0645L20.0289 22.0852H20.0111L19.9944 22.1063L19.9778 22.1023L19.9615 22.123H19.9448L19.9359 22.1367H19.8344V22.1437L19.8096 22.1389V22.1478L19.7833 22.1437V22.1519H19.6722V22.1597L19.6556 22.1556V22.1637L19.6296 22.1589V22.1671H19.597V22.1741L19.5715 22.1693V22.1774H19.5378V22.1849L19.5115 22.1808L19.5041 22.1952H19.4874V22.2034L19.4696 22.1993V22.2074H19.453L19.4363 22.2208L19.4193 22.2171L19.4115 22.2304H19.377V22.2386H19.3515L19.3433 22.2523H19.3096L19.3019 22.2656H19.2841L19.2674 22.2867H19.2496L19.2337 22.3067H19.2163L19.1833 22.3393H19.1667L19.1411 22.3667H19.1233L19.1067 22.3786V22.3945L19.0659 22.4104L19.0481 22.4304L19.0315 22.4352V22.4504H19.0067L18.9896 22.4634V22.4786H18.9578V22.4945L18.9156 22.5178V22.533L18.8907 22.5434V22.5593L18.8659 22.5704V22.5867L18.8519 22.5923L18.8441 22.6215L18.827 22.6263V22.6426L18.8104 22.6463L18.8015 22.6771L18.7848 22.6808V22.6971H18.7759V22.7123H18.767V22.7289L18.7504 22.7408V22.756L18.7337 22.7608V22.7849H18.7256L18.7174 22.816H18.7078V22.8393H18.7L18.6919 22.8689H18.6841V22.893H18.6759V22.9082H18.6667L18.6426 23.0049H18.6404V23.0282H18.6322V23.0523H18.6244L18.6059 23.7123L18.6156 23.8074H18.6244V23.8386H18.6322L18.6426 23.8952H18.6507V23.9186H18.6596V23.9415H18.6667L18.6841 24.0215H18.693L18.7019 24.0545H18.7104V24.0793H18.7193V24.0952H18.7281L18.7363 24.136H18.7448L18.7633 24.1863H18.7715V24.2026H18.78V24.2178H18.7889V24.2393L18.8048 24.2586V24.2737L18.8219 24.2856L18.8304 24.3186H18.8393L18.8481 24.3434L18.8648 24.3545V24.37H18.8737L18.8826 24.3956L18.8993 24.406V24.4219L18.9248 24.4419V24.4582L18.9504 24.4789V24.4941L18.9681 24.5052V24.5134L18.9848 24.5237V24.5397L19.0274 24.5949H19.0441L19.1048 24.6749H19.1226L19.1967 24.7678L19.223 24.7797L19.2407 24.8067H19.2593L19.277 24.8334H19.2963L19.313 24.8597L19.3307 24.8637L19.3385 24.8804H19.357L19.3652 24.8974L19.3907 24.91V24.9182L19.4252 24.9326L19.433 24.9493L19.4852 24.9749L19.4937 24.9915L19.5274 25.0052V25.0134H19.5433V25.0212L19.5956 25.0467V25.0549L19.6196 25.0589V25.066L19.653 25.0812V25.0893L19.6778 25.0934V25.1019H19.6948V25.1108L19.7204 25.1149V25.1226L19.7378 25.1267V25.1349L19.797 25.1534V25.1612L19.8226 25.166V25.2004L19.9163 25.2334V25.2412L19.9596 25.2493V25.2563L19.9937 25.2637V25.2715L20.0433 25.2812V25.2886L20.1115 25.3012V25.3093L20.2137 25.3274V25.3356L20.5281 25.386V25.3789L20.5956 25.3908V25.3826L20.6385 25.3908V25.3826L20.6811 25.3908V25.3837L20.7156 25.3893V25.3812L20.7489 25.3874V25.3804L20.7826 25.3867V25.3789L20.8163 25.3845L21.0963 25.3349L21.1044 25.3204L21.13 25.3252L21.1378 25.3115L21.1889 25.3052L21.197 25.2908H21.2307L21.2396 25.2763H21.2722L21.29 25.2556H21.3067L21.3148 25.2412H21.3322L21.3489 25.2204L21.3659 25.2245L21.3826 25.2026L21.3996 25.2067L21.433 25.1741H21.45L21.61 25.1093V25.1019L21.6356 25.1067V25.0989L21.6611 25.1045V25.0956H21.6785V25.0874L21.7044 25.0923V25.0845H21.7211V25.0763L21.7459 25.0812V25.0737L21.797 25.0671V25.0593H21.8148V25.0512L21.8322 25.0552V25.0471H21.8481V25.04L21.8985 25.0337L21.9059 25.02H21.9404V25.013H21.9667L21.9748 24.9986H22.0089L22.0178 24.9849H22.0348L22.0515 24.9656H22.0674L22.0844 24.9456H22.1019L22.1348 24.9119H22.1522L22.1859 24.8793L22.3033 24.8304V24.8234L22.3289 24.8282V24.8208L22.3556 24.8249V24.8167L22.3796 24.8089V24.8015L22.4059 24.8063V24.7986H22.4219V24.7904L22.4481 24.7952V24.7871L22.4985 24.7815V24.8H22.517V24.793H22.533V24.7841L22.55 24.7882V24.78H22.5674V24.773H22.5844V24.7656H22.6019L22.6185 24.7537H22.6348L22.6433 24.7393H22.6778L22.6867 24.7249H22.7026V24.7167H22.7289L22.8307 24.6697L22.8963 24.6271L22.9137 24.6312L22.9937 24.5663L23.0433 24.5367V24.5208L23.0826 24.5256L23.1241 24.4863H23.1411L23.1452 24.4663V24.4586L23.1707 24.4634V24.456L23.2211 24.4489V24.4415H23.2385V24.4337H23.2556V24.4256H23.2889L23.2978 24.4112L23.3489 24.4056V24.3978H23.3748L23.3819 24.3841H23.3996V24.4L23.4241 24.396L23.433 24.3834H23.45L23.4659 24.3623L23.4833 24.3663L23.5089 24.3393H23.5252L23.5507 24.313H23.5681L23.6274 24.2615L23.6522 24.2578V24.2423L23.7026 24.2052L23.7452 24.1812V24.1652L23.7522 24.1604L23.7956 24.1356L23.8033 24.1219H23.8204L23.8281 24.1078L23.8796 24.1019L23.8874 24.0878H23.9052V24.0797H23.9219V24.0737H23.9385L23.9548 24.0615H23.9611L23.9756 24.0526H23.993L24.0004 24.0386L24.0178 24.0423L24.0252 24.0278H24.0433L24.0515 24.0145H24.0674V24.0063H24.093L24.1019 23.9919H24.1185L24.1452 23.9649L24.1619 23.9689L24.1956 23.936H24.2122L24.2707 23.8856H24.2874V23.8774L24.313 23.8663L24.3219 23.8449L24.3796 23.8078V23.7915L24.4219 23.7678V23.7526H24.4385V23.7445L24.4563 23.7397V23.7252L24.4737 23.7197V23.7034L24.49 23.6986V23.6826L24.5148 23.6723L24.5404 23.6352L24.573 23.6186L24.5819 23.6056H24.5985L24.6067 23.5786L24.6233 23.5823L24.6315 23.5678H24.65L24.657 23.5537H24.6737L24.6826 23.54H24.7074L24.7419 23.5071H24.7596L24.793 23.4752H24.81V23.4671L24.8267 23.4615V23.4441H24.8441L24.877 23.4123H24.8852V23.4386L24.9196 23.4289V23.413L24.9611 23.3897V23.3737L24.9948 23.3571V23.3408H25.0211V23.3256L25.0874 23.2834H25.1211L25.13 23.2563H25.1633V23.2482H25.1889L25.197 23.2337L25.2137 23.2378V23.2289H25.2396L25.2474 23.2145H25.2641L25.2811 23.1937L25.2978 23.1978L25.3067 23.1834H25.3156L25.3233 23.1697H25.3404V23.1626L25.3737 23.153V23.1378L25.5337 23.0337V23.0178L25.5596 23.0074V22.9915L25.5852 22.9808L25.6137 22.9523L25.6178 22.9619H25.6337L25.6619 22.9989L25.6778 23.0104V23.0245L25.7474 23.0926V23.1108L25.773 23.1315V23.1397H25.79L25.8585 23.2197H25.8756L25.91 23.2645H25.9259L25.9348 23.2812L25.9515 23.2852L25.9681 23.3115L25.9948 23.3237L26.0033 23.3412H26.0204L26.0293 23.3589L26.0626 23.3723L26.0722 23.39L26.097 23.4026V23.4108L26.1474 23.4356L26.1578 23.4523L26.1907 23.4667V23.4749L26.2252 23.4886V23.4963L26.2681 23.5115L26.277 23.5293H26.293L26.3115 23.5556H26.3185V23.5715L26.353 23.6012V23.6163L26.4033 23.6645L26.4833 23.7582H26.5011L26.5348 23.8026L26.553 23.8067L26.8619 24.0826L26.8778 24.11L26.8867 24.1349L26.93 24.1741V24.1893L26.9644 24.2189C27.0015 24.2619 27.3548 24.5756 27.4626 24.6782C27.5704 24.7808 27.8626 25.0115 27.8626 25.0115L27.8804 25.0386H27.897L27.9059 25.0563H27.9233L27.9404 25.0834L27.9748 25.0978L27.9826 25.1149L28.017 25.13L28.0259 25.1467L28.0778 25.1715V25.1797H28.0948V25.1849H28.1111V25.193L28.1622 25.2178V25.2263L28.4444 25.4589H28.4611L28.4956 25.503L28.5133 25.5067L28.5219 25.5245H28.5389L28.5563 25.5508H28.5722L28.5811 25.5686L28.6067 25.5804V25.5893H28.6244L28.6341 25.606L28.6844 25.6308L28.6933 25.6486L28.7267 25.663V25.6708H28.7444V25.6789L28.7948 25.7045V25.7115L28.8211 25.7163V25.7245L28.8548 25.7389V25.7467L29.0948 25.9319H29.1111L29.1463 25.9774H29.163L29.5556 26.246L29.5811 26.2589V26.266L29.6067 26.2708V26.2789L29.6326 26.2837V26.2915L29.6659 26.2982V26.3052L29.9148 26.4604V26.4686L29.9652 26.4934L29.9741 26.5108L30.0085 26.5252V26.5334L30.043 26.5467V26.5552L30.0685 26.56V26.5682L30.1019 26.5823V26.5897L30.1452 26.6056V26.6137L30.157 26.6174L30.1941 26.6304C30.1941 26.6304 30.4533 26.7263 30.5541 26.7519C30.6548 26.7774 30.9085 26.8097 30.9085 26.8097V26.8015L30.9519 26.8097V26.8015L30.9844 26.8089V26.8008L31.0189 26.8063V26.7993L31.0437 26.8041V26.796L31.0693 26.8008V26.793L31.0956 26.7974V26.7897L31.1215 26.7945V26.7863H31.1381V26.7774L31.1637 26.7815V26.7774H31.1974V26.7704L31.2715 26.7608L31.2793 26.7471L31.3333 26.7404L31.3419 26.7267H31.3756V26.7178H31.4019L31.4093 26.7045H31.4259L31.4437 26.6852H31.4611L31.477 26.6652H31.4948L31.5189 26.6386H31.5356L31.603 26.5812L31.683 26.5341V26.5171L31.7156 26.4997V26.4845L31.7404 26.473V26.4571L31.7659 26.446V26.4308L31.783 26.4267L31.7907 26.3963L31.8078 26.3923L31.8148 26.37H31.8237L31.8396 26.326H31.8485V26.3093H31.8563V26.2934H31.8652V26.2771H31.8741L31.8907 26.2334H31.8989V26.21H31.907V26.1949H31.9156V26.1715H31.9259V26.2404H31.9348L31.9426 26.1867H31.9515V26.1604H31.9596V26.1293H31.9681V26.0982H31.977V26.0612H31.9859V26.0219H31.9948V25.9674H32V25.7734ZM21.84 23.4012L21.8456 23.406H21.84V23.4012Z" fill="white"/>
</svg>
