<svg width="40" height="40" viewBox="0 0 40 40" fill="none" xmlns="http://www.w3.org/2000/svg">
<path d="M19.0937 0.0210867C8.06072 0.518494 -0.481504 9.86664 0.0210884 20.9026C0.523681 31.9385 9.87035 40.4755 20.9048 39.9792C31.9392 39.4829 40.48 30.1274 39.9789 19.0944C39.4778 8.06146 30.1311 -0.481506 19.0937 0.0210867Z" fill="#F4002E"/>
<path d="M11.533 24.3904C10.8663 24.0786 10.32 23.8256 10.32 23.3163C10.32 22.9252 10.6322 22.6419 11.2459 22.6419C11.4494 22.6435 11.6523 22.6643 11.8519 22.7041C11.9495 22.7232 12.0487 22.7341 12.1481 22.7367C12.6848 22.7367 12.9896 22.4167 13.1881 21.8063L13.2681 21.5567C12.5977 21.2833 11.8811 21.1408 11.157 21.1367C9.33333 21.1367 8.37037 22.3063 8.37037 23.5208C8.37037 24.1326 8.56407 24.5752 8.86333 24.9263C9.24889 25.3752 9.80074 25.6697 10.3159 25.9215C11.0678 26.2897 11.7456 26.5615 11.7456 27.1089C11.7456 27.5938 11.2441 27.8697 10.5759 27.8697C9.65667 27.8697 8.8537 27.3456 8.75185 27.2815L8 28.6945C8.13444 28.7704 9.10333 29.3871 10.7037 29.3871C12.4074 29.3871 13.6956 28.4104 13.6956 26.9056C13.6956 25.4008 12.5 24.8593 11.533 24.3904Z" fill="white"/>
<path d="M18.1907 25.091L21.2803 21.3047H19.0781L16.6155 24.5721H16.5785V21.3047H14.7637V29.3265H14.8707C15.6548 29.3265 16.5885 28.9632 16.5885 27.6536V25.8136H16.6255L19.137 29.228H21.4448L18.1907 25.091Z" fill="white"/>
<path d="M21.3804 12.7109C20.7404 12.8317 19.7971 13.4102 19.799 14.4358C19.799 15.3661 20.5638 15.9302 20.5653 17.1502C20.5697 17.5277 20.4751 17.8997 20.291 18.2293C20.1068 18.5588 19.8395 18.8343 19.5156 19.0283C19.7378 19.0083 19.9797 18.9965 20.246 18.995C20.5526 18.9894 20.8591 19.0081 21.1627 19.0509L24.026 15.5358C23.3042 14.4561 22.4105 13.5019 21.3804 12.7109Z" fill="white"/>
<path d="M23.7877 22.204C24.1484 21.644 24.1951 20.7496 24.2243 19.8377C24.2569 18.9881 24.4347 18.3489 25.5714 18.344C25.8243 18.344 26.0643 18.3785 26.4995 18.377C28.1662 18.3696 29.2521 17.797 29.9292 17.417C28.1616 16.28 26.1246 15.6307 24.0251 15.5352C23.8651 15.9952 22.5947 19.5218 22.498 19.8066C22.6933 20.0391 22.8652 20.2902 23.0114 20.5563C23.3296 21.0755 23.59 21.628 23.7877 22.204Z" fill="white"/>
<path d="M17.7366 19.3248C17.5929 19.3248 17.5207 19.2289 17.4966 19.0626C17.4725 18.8963 16.7614 12.3426 16.6559 11.3511C16.6392 11.2055 16.604 10.94 16.6025 10.8455C16.5999 10.8177 16.6027 10.7897 16.6109 10.763C16.6191 10.7363 16.6325 10.7115 16.6502 10.69C16.668 10.6684 16.6899 10.6506 16.7145 10.6375C16.7392 10.6244 16.7662 10.6163 16.794 10.6137C16.8026 10.6131 16.8113 10.6131 16.8199 10.6137C17.1592 10.6137 19.0096 11.0455 20.9729 12.4215C20.4055 12.5815 19.3833 13.1689 19.387 14.3863C19.3918 15.4648 20.1647 16.0585 20.167 17.14C20.1777 18.8992 18.1599 19.3241 17.7366 19.3248Z" fill="white"/>
<path d="M23.9512 22.6741C23.9752 22.7426 24.005 22.809 24.0401 22.8726C24.0559 22.9059 24.0808 22.934 24.1119 22.9536C24.1431 22.9733 24.1792 22.9837 24.216 22.9837C24.2732 22.9807 24.3292 22.9654 24.3801 22.9389C24.5319 22.8693 30.513 20.0871 31.4145 19.6693C31.5456 19.6059 31.7938 19.4963 31.8752 19.4471C31.911 19.4295 31.9414 19.4026 31.9633 19.3693C31.9851 19.3359 31.9976 19.2973 31.9993 19.2574C31.9982 19.2159 31.9863 19.1753 31.9649 19.1397C31.8538 18.9567 31.2712 18.3397 30.3041 17.6719C29.5367 18.0963 28.3378 18.75 26.5549 18.7563C26.1164 18.7563 26.0178 18.7278 25.7204 18.73C24.8475 18.73 24.6315 19.1052 24.6004 19.8678C24.5956 20.0126 24.593 20.2078 24.5845 20.4204C24.5549 21.103 24.473 22.0437 23.9512 22.6741Z" fill="white"/>
</svg>
