<svg width="40" height="40" viewBox="0 0 40 40" fill="none" xmlns="http://www.w3.org/2000/svg">
<path d="M19.0937 0.0210867C8.05998 0.518494 -0.481503 9.86664 0.0210901 20.9026C0.523683 31.9385 9.86961 40.4755 20.9048 39.9792C31.94 39.4829 40.48 30.1274 39.9789 19.0944C39.4778 8.06146 30.1311 -0.481506 19.0937 0.0210867Z" fill="black"/>
<path fill-rule="evenodd" clip-rule="evenodd" d="M25.4318 16.0052C25.1534 16.0385 25.07 16.0512 24.8911 16.0876C24.1337 16.2415 23.4202 16.6286 22.8583 17.1903C22.6194 17.4292 22.5151 17.5532 22.3474 17.7976C21.9875 18.3221 21.733 19.008 21.6634 19.6409C21.6389 19.8641 21.6434 20.3833 21.672 20.6163C21.7406 21.1766 21.9506 21.768 22.2555 22.2595C22.5383 22.7156 22.9975 23.1962 23.4233 23.4817C23.9799 23.855 24.5125 24.0598 25.2024 24.1659C25.4542 24.2046 26.0347 24.2046 26.2888 24.166C27.2256 24.0235 28.0049 23.6352 28.6432 22.9928C29.3622 22.2692 29.7681 21.3713 29.8398 20.3461C29.8699 19.9161 29.8172 19.4324 29.6918 18.9872C29.4511 18.133 28.9196 17.3555 28.2149 16.8269C27.6433 16.3982 27.0459 16.1494 26.3166 16.0363C26.1524 16.0109 25.5587 15.9899 25.4318 16.0052ZM15.8795 16.4012C15.8795 16.455 15.8869 16.467 15.937 16.4939C16.0538 16.5568 16.2139 16.7605 16.2665 16.9131C16.3082 17.0341 16.323 17.1828 16.3056 17.3055C16.284 17.458 16.2555 17.5344 16.0886 17.8877C15.9536 18.1735 15.4497 19.2477 15.2239 19.731C15.1629 19.8617 15.0523 20.0976 14.9781 20.2553C14.904 20.413 14.79 20.6563 14.7248 20.796C14.6113 21.0392 14.1519 22.0197 13.8765 22.6065C13.8046 22.7597 13.6995 22.9846 13.643 23.1063C13.5864 23.2279 13.4693 23.4782 13.3827 23.6623C13.296 23.8465 13.2252 23.9995 13.2252 24.0023C13.2252 24.0051 13.4677 24.0074 13.764 24.0074C14.2535 24.0074 14.306 24.0048 14.3367 23.9788C14.3552 23.963 14.4195 23.8432 14.4795 23.7125C14.613 23.4215 14.7319 23.1657 14.9326 22.7376L15.0862 22.4099L17.0155 22.4058L18.9449 22.4016L19.0079 22.5368C19.0425 22.6112 19.1332 22.8048 19.2094 22.967C19.2856 23.1292 19.4198 23.4168 19.5076 23.606C19.5954 23.7952 19.6821 23.963 19.7004 23.9788C19.7309 24.0052 19.7933 24.0074 20.4936 24.0074C20.9117 24.0074 21.2537 24.0016 21.2537 23.9946C21.2537 23.9875 21.1793 23.8234 21.0883 23.63C20.9973 23.4366 20.8763 23.1788 20.8195 23.0571C20.7627 22.9355 20.6556 22.7069 20.5815 22.5492C20.5075 22.3915 20.3935 22.1482 20.3283 22.0085C20.263 21.8688 20.0749 21.467 19.9102 21.1155C19.7455 20.7641 19.5573 20.3622 19.492 20.2225C19.4268 20.0829 19.3126 19.8396 19.2384 19.6818C19.112 19.4134 19.0384 19.2564 18.7507 18.6414C18.6875 18.5062 18.5494 18.2113 18.4437 17.986C18.3381 17.7607 18.2054 17.4769 18.1489 17.3552C18.0924 17.2336 17.9709 16.9755 17.879 16.7817C17.7871 16.588 17.7044 16.4092 17.6953 16.3844L17.6786 16.3394H16.7791H15.8795V16.4012ZM5 16.4791C5 16.529 5.0176 16.5587 5.10909 16.6636C5.3602 16.9516 5.47455 17.2082 5.55225 17.6583C5.57812 17.8082 5.58128 18.0826 5.5893 20.8803C5.59788 23.8808 5.59865 23.9391 5.62993 23.9737L5.66181 24.0089L7.43226 24.003C9.36019 23.9965 9.30461 23.9989 9.80074 23.8983C11.0641 23.6422 12.0181 22.9438 12.5281 21.902C12.7073 21.5357 12.8132 21.2034 12.8753 20.8124C12.918 20.5434 12.9183 19.8643 12.8758 19.6081C12.7455 18.8222 12.4136 18.1514 11.8922 17.6204C11.2631 16.9796 10.4878 16.6197 9.39112 16.4593C9.22414 16.4349 8.96356 16.4311 7.10135 16.4257L5 16.4197V16.4791ZM30.7514 16.4322C30.7454 16.4382 30.7405 16.464 30.7405 16.4895C30.7405 16.5236 30.7681 16.5659 30.8455 16.6502C31.1615 16.9946 31.2861 17.3384 31.3297 17.986C31.3398 18.1361 31.3463 19.3431 31.3465 21.0868C31.3467 23.9199 31.347 23.9421 31.3795 23.9747C31.412 24.0072 31.4341 24.0074 34.2061 24.0074H37L36.9956 23.5528L36.9913 23.0981L34.8736 23.0939L32.7558 23.0898V19.7555V16.4213H31.7591C31.2109 16.4213 30.7574 16.4262 30.7514 16.4322ZM26.1898 17.2487C26.498 17.304 26.827 17.4251 27.0814 17.5769C27.9611 18.1018 28.4938 19.0505 28.4954 20.0947C28.4964 20.7318 28.2871 21.3715 27.9131 21.8742C27.7653 22.0728 27.4479 22.3775 27.2481 22.5126C26.5475 22.9861 25.7195 23.1103 24.9403 22.8589C23.9198 22.5297 23.1598 21.5946 23.0151 20.4902C22.8407 19.1603 23.5789 17.8662 24.7794 17.3971C24.9979 17.3118 25.2458 17.2481 25.4482 17.2254C25.6325 17.2047 26.0107 17.2166 26.1898 17.2487ZM8.89828 17.3626C9.62927 17.4537 10.1519 17.6582 10.5788 18.0204C11.1528 18.5074 11.453 19.3402 11.4168 20.3454C11.3971 20.8908 11.2983 21.3285 11.1104 21.7016C10.7059 22.505 9.97065 22.95 8.84223 23.0746C8.75211 23.0845 8.3042 23.0966 7.84686 23.1015L7.01533 23.1104V20.2273C7.01533 18.6416 7.02087 17.3386 7.02762 17.3316C7.03437 17.3246 7.40856 17.3226 7.85914 17.3271C8.48562 17.3333 8.73013 17.3417 8.89828 17.3626ZM17.2441 18.7725C17.3157 18.9257 17.4349 19.1801 17.509 19.3378C17.5832 19.4955 17.7317 19.8122 17.839 20.0415C17.9463 20.2709 18.1419 20.6874 18.2736 20.9673C18.4054 21.2471 18.51 21.4815 18.5062 21.4883C18.4979 21.5026 15.5455 21.5052 15.5312 21.4909C15.5259 21.4855 15.555 21.41 15.596 21.3229C15.637 21.2359 15.7239 21.0504 15.7893 20.9107C15.9918 20.4778 16.1325 20.1774 16.2844 19.8539C16.3647 19.6827 16.5627 19.2597 16.7242 18.9139L17.018 18.2853L17.0659 18.3896C17.0923 18.447 17.1725 18.6193 17.2441 18.7725Z" fill="white"/>
</svg>
