<svg width="40" height="40" viewBox="0 0 40 40" fill="none" xmlns="http://www.w3.org/2000/svg">
<path d="M19.0937 0.0210867C8.05998 0.518494 -0.481503 9.86664 0.0210901 20.9026C0.523683 31.9385 9.86961 40.4755 20.9048 39.9792C31.94 39.4829 40.48 30.1274 39.9789 19.0944C39.4778 8.06146 30.1311 -0.481506 19.0937 0.0210867Z" fill="#002CB2"/>
<path d="M12.8227 17.9128C12.2301 16.9869 11.7487 15.0583 12.2194 14.125L8.30755 20.2546C7.90755 20.8865 7.88755 21.9213 8.30755 22.5746L12.7572 29.5672C13.1572 30.1872 14.0816 30.7243 15.0227 30.7243H20.9857L12.8227 17.9128Z" fill="white"/>
<path d="M12.6084 13.5166C12.1732 14.6529 12.8402 16.7544 13.3609 17.5681L15.498 20.82C15.5357 20.6857 15.5914 20.5571 15.6635 20.4377L20.8795 12.1992H15.0154C13.9754 12.1992 13.1524 12.6574 12.7098 13.3592L12.6084 13.5166Z" fill="white"/>
<path d="M14.0635 19.8633L15.5794 22.2418L14.0635 19.8633Z" fill="white"/>
<path d="M27.1773 22.0849C27.7718 23.0108 28.2514 24.9394 27.7807 25.8727L31.6925 19.7431C32.0925 19.1112 32.1125 18.0764 31.6925 17.4231L27.2429 10.4305C26.8433 9.81047 25.9185 9.27344 24.9773 9.27344H19.0166L27.1773 22.0849Z" fill="white"/>
<path d="M27.3922 26.483C27.8274 25.3467 27.1604 23.2452 26.6396 22.4315L24.5026 19.1797C24.4648 19.314 24.4092 19.4425 24.337 19.5619L19.1211 27.8008H24.9852C26.0252 27.8008 26.8481 27.3427 27.2907 26.6408L27.3922 26.483Z" fill="white"/>
<path d="M25.9368 20.1402L24.4209 17.7617L25.9368 20.1402Z" fill="white"/>
</svg>
