<svg width="40" height="40" viewBox="0 0 40 40" fill="none" xmlns="http://www.w3.org/2000/svg">
<path d="M19.0937 0.0210867C8.05998 0.518494 -0.481503 9.86664 0.0210901 20.9026C0.523683 31.9385 9.86961 40.4755 20.9048 39.9792C31.94 39.4829 40.48 30.1274 39.9789 19.0944C39.4778 8.06146 30.1311 -0.481506 19.0937 0.0210867Z" fill="#0C59FF"/>
<path d="M29.7136 22.9418C28.6525 25.5818 26.8743 26.324 26.8743 26.324C32.1054 21.0233 28.9113 14.9166 28.9113 14.9166C28.1395 13.5462 29.1225 12.951 29.1225 12.951C26.8743 13.5107 27.5765 15.3722 27.5765 15.3722C28.7054 18.061 28.4784 20.2459 28.0951 21.597L27.3543 21.1818L27.3662 21.1648C27.3662 21.1648 29.1199 14.2529 21.9662 11.8288L21.9599 10.5281H20.4502V19.0929L27.471 23.0929C27.3428 23.3531 27.2079 23.5985 27.0662 23.8288L20.015 19.7425L12.9336 23.8288C12.7921 23.598 12.6571 23.3527 12.5288 23.0929L19.5495 19.0929V10.5273H18.0399L18.0343 11.8281C10.8799 14.2522 12.6336 21.164 12.6336 21.164L12.6454 21.181L11.9047 21.5962C11.5213 20.2448 11.2943 18.0599 12.4232 15.3714C12.4232 15.3714 13.1269 13.5114 10.8784 12.9496C10.8784 12.9496 11.8613 13.5466 11.0895 14.9151C11.0895 14.9151 7.89431 21.0233 13.1265 26.3225C13.1265 26.3225 11.3488 25.577 10.2884 22.9403C10.2884 22.9403 9.68579 21.654 8.00098 21.9348C8.00098 21.9348 8.64098 22.2225 9.01061 23.3881C9.01061 23.3881 10.5291 28.2188 16.3913 28.9555V31.6222H19.2702V27.6936C19.2702 27.6936 16.2165 27.6688 13.8847 25.1033L14.6088 24.6818C14.7432 24.8088 16.9599 26.8603 19.9839 26.9136H20.0191C23.0432 26.8603 25.2599 24.8088 25.3943 24.6818L26.1143 25.1033C23.781 27.6688 20.7288 27.6936 20.7288 27.6936V31.6251H23.6088V28.9585C29.4717 28.2218 30.9895 23.391 30.9895 23.391C31.3628 22.224 31.9999 21.9362 31.9999 21.9362C30.3151 21.6555 29.7136 22.9418 29.7136 22.9418ZM25.9628 20.3914L25.9573 20.3985L21.9965 18.1799L21.9751 13.441H21.9965C21.9965 13.441 26.7695 14.7392 25.9628 20.3914ZM18.0047 13.441H18.0262L18.0047 18.1818L14.0439 20.4003L14.0384 20.3933C13.2302 14.7392 18.0047 13.441 18.0047 13.441ZM20.0117 21.5362L23.9606 23.8448V23.8522L23.9236 23.8322C22.5117 24.9473 21.1636 25.3162 19.9976 25.3162C18.8317 25.3162 17.4839 24.9459 16.0717 23.8314L16.0365 23.8514V23.844L20.0091 21.5355L20.0117 21.5362Z" fill="white"/>
</svg>
