<svg width="40" height="40" viewBox="0 0 40 40" fill="none" xmlns="http://www.w3.org/2000/svg">
<path d="M19.0937 0.0210867C8.05998 0.518494 -0.481503 9.86664 0.0210901 20.9026C0.523683 31.9385 9.86961 40.4755 20.9048 39.9792C31.94 39.4829 40.48 30.1274 39.9789 19.0944C39.4778 8.06146 30.1311 -0.481506 19.0937 0.0210867Z" fill="#0575CA"/>
<path d="M19.4556 8.00067C12.8304 8.30141 7.70339 13.9166 8.00376 20.5429C8.30413 27.1692 13.9182 32.297 20.5438 31.9966C27.1693 31.6962 32.296 26.081 31.9956 19.4547C31.6952 12.8307 26.0827 7.70437 19.4597 8.00474H19.4556V8.00067ZM20.6778 19.7044C22.5693 21.4492 24.296 23.0481 24.296 23.0481C26.8849 25.8433 25.4271 27.9266 24.7034 28.4725C23.616 29.2981 22.4812 29.5703 21.0697 29.6459C20.9438 29.6647 20.7119 29.5921 20.6993 29.367C20.6915 29.127 21.0419 29.067 21.0419 29.067C24.1871 28.447 23.1849 26.371 22.0738 25.3188C21.6049 24.8744 17.3082 21.1081 17.3082 21.1081C13.1315 17.5129 13.4638 14.7044 13.4638 14.7044C13.7327 11.1744 16.6882 10.3918 18.9786 10.5907C19.246 10.6136 19.3941 10.7759 19.3489 11.0003C19.2967 11.2407 18.9415 11.2596 18.9415 11.2596C18.213 11.3036 17.563 11.3788 17.0664 11.7125C15.2252 12.9529 15.7701 15.061 18.2256 17.411C18.5349 17.7073 18.866 18.0173 19.2001 18.3344C19.1997 18.3362 19.6967 18.7707 20.6782 19.7044H20.6778ZM19.2508 28.6359C19.2708 28.9733 18.4504 29.1203 17.5145 29.0284C16.3393 28.9129 14.9375 28.5414 13.7141 27.4855C12.5934 26.5133 11.8945 25.1762 11.5567 24.004C11.2101 22.8029 11.0667 21.3977 11.6367 21.5084C11.8138 21.5418 12.1182 22.3155 12.446 22.8788C12.7864 23.4588 13.0649 23.7807 13.3267 23.9766C13.4427 24.0655 13.8452 23.1721 14.4282 22.6651C14.766 22.3859 15.136 22.2888 15.1967 23.1247C15.2708 24.1503 15.0856 25.3666 15.3849 25.3666C15.6652 25.3666 16.2945 25.1551 17.6786 25.037C18.1989 24.9918 18.4967 25.0914 17.9989 25.7918C17.6376 26.3416 17.1758 26.8183 16.6378 27.197C17.8145 28.2988 19.2252 28.1651 19.2508 28.6359ZM20.1786 17.9166C20.0908 17.5736 20.0697 17.1388 20.1415 16.581C20.2897 15.4207 20.6015 14.8755 20.9564 13.9755C21.4378 12.7666 20.2689 12.0596 20.4641 11.6144C20.726 11.0114 21.5601 11.7744 22.4919 11.8336C23.2927 11.8777 23.7727 11.8336 24.3964 11.9203C25.2241 12.0314 26.2145 12.3118 26.6556 12.8288C27.0608 13.3029 26.4434 13.881 25.6997 13.5184C25.1567 13.254 24.4734 13.4173 24.8741 13.9829C25.3556 14.5207 25.5949 14.5159 26.213 14.7288C27.5378 15.1821 27.4938 16.3377 26.5419 16.971C25.3938 17.7299 24.4467 17.4392 24.0234 15.9414C23.8112 15.1933 23.2827 14.8121 22.7423 15.0251C22.2019 15.2381 22.5223 16.2207 22.9323 17.1318C23.7493 19.2218 21.7167 19.151 21.4801 19.1221C21.1727 19.0617 20.8882 18.9169 20.6583 18.704C20.4285 18.4911 20.2624 18.2185 20.1786 17.9166Z" fill="white"/>
</svg>
