<svg width="40" height="40" viewBox="0 0 40 40" fill="none" xmlns="http://www.w3.org/2000/svg">
<path d="M20 40C31.0457 40 40 31.0457 40 20C40 8.9543 31.0457 0 20 0C8.9543 0 0 8.9543 0 20C0 31.0457 8.9543 40 20 40Z" fill="#0068B8"/>
<path d="M14.2395 19.9908C16.9381 21.726 17.1995 23.279 16.6195 24.559C16.3795 25.0934 15.8725 25.559 15.8725 25.559C15.8725 25.559 18.1629 24.4542 18.8877 22.839C19.6981 21.0349 18.8203 19.1245 16.3658 17.4686C14.3325 16.0982 15.1773 14.8019 15.1773 14.8019C15.1773 14.8019 15.8477 13.0942 18.3514 13.0949C20.9114 13.0949 21.1003 14.8164 21.1003 14.8164L22.1003 12.8349C22.2403 12.5227 20.4707 11.6453 17.9266 11.6445C15.4218 11.6445 13.1118 12.6516 12.2114 14.6579C11.1107 17.1079 12.5077 18.879 14.2395 19.9908Z" fill="white"/>
<path d="M30.7033 22.7682C31.0548 21.7826 33.0596 16.8282 29.61 16.8275C27.2555 16.8275 24.5915 18.6745 24.5915 18.6745L26.9292 13.2345C26.9292 13.2345 27.5763 11.9304 26.0803 11.9297H23.67C23.67 11.9297 24.5644 12.2827 23.7741 14.0434L20.2878 21.9841C20.2878 21.9841 18.3085 26.2778 14.3278 26.2771C9.0885 26.2771 9.49405 20.953 9.49405 20.953L7.59961 25.1338C7.59961 25.1338 9.29331 28.3523 13.4355 28.353C15.9403 28.353 17.5292 27.2971 18.3011 26.4641C18.3011 26.4641 17.5533 28.2049 19.5374 28.2049H21.5744C21.5744 28.2049 21.0007 27.8049 21.0433 27.2978C21.0859 26.7908 21.7674 25.1889 22.2285 24.3504C22.6896 23.5119 24.9741 19.4438 27.6363 19.1882C30.0363 18.9586 26.4196 26.4971 26.4196 26.4971C26.4196 26.4971 25.7211 28.1289 27.5355 28.1771C29.35 28.2252 29.6837 28.2234 29.6837 28.2234C29.6837 28.2234 29.0011 27.713 29.3381 26.7834C29.6752 25.8538 30.3515 23.7545 30.7033 22.7682Z" fill="white"/>
</svg>
