<svg width="40" height="40" viewBox="0 0 40 40" fill="none" xmlns="http://www.w3.org/2000/svg">
<path d="M19.0937 0.0210867C8.06072 0.518494 -0.481504 9.86664 0.0210884 20.9026C0.523681 31.9385 9.86961 40.4755 20.9048 39.9792C31.94 39.4829 40.48 30.1274 39.9789 19.0944C39.4778 8.06146 30.1311 -0.481506 19.0937 0.0210867Z" fill="#FF1400"/>
<path d="M11.3837 17.7344C10.6471 17.7344 10.1182 17.9744 9.68854 18.5925C9.41409 18.0533 8.85261 17.7344 8.07076 17.7344C7.47817 17.7344 6.77446 18.0422 6.49669 18.5262V17.8988H4.90039V23.3692H6.57409V20.221C6.57409 19.7259 6.89409 19.2747 7.47669 19.2747C8.08224 19.2747 8.35669 19.6822 8.35669 20.1988V23.3692H10.0085V20.2099C10.0085 19.7285 10.3285 19.2747 10.9211 19.2747C11.5137 19.2747 11.7908 19.6822 11.7908 20.1988V23.3692H13.4093V19.8247C13.4093 18.3392 12.4189 17.7344 11.3837 17.7344Z" fill="white"/>
<path d="M21.6791 18.6394V17.9016H20.0605V23.3719H21.7343V20.9808C21.7343 19.8912 22.3398 19.4953 23.0143 19.4953C23.1921 19.4927 23.3696 19.5112 23.5431 19.5505V17.899C23.3993 17.8612 23.2511 17.8427 23.1024 17.8438C22.6591 17.8438 21.9661 18.0201 21.6791 18.6394Z" fill="white"/>
<path d="M25.7882 17.8984H24.1152V23.3688H25.7882V17.8984Z" fill="white"/>
<path d="M28.8157 16.3047H27.3175V17.0084C27.3175 17.5139 27.0431 17.8995 26.4705 17.8995H26.1953V19.3636H27.1638V21.7084C27.1638 22.7973 27.8575 23.4684 28.9905 23.4684C29.519 23.4684 29.7946 23.3477 29.8609 23.3151V21.9295C29.7166 21.9636 29.5691 21.9821 29.4209 21.9847C29.0568 21.9847 28.8153 21.8632 28.8153 21.4121V19.3647H29.8831V17.9006H28.8157V16.3047Z" fill="white"/>
<path d="M24.9389 14.832C24.6519 14.8338 24.3773 14.9494 24.1753 15.1533C23.9733 15.3572 23.8604 15.6329 23.8613 15.9199C23.8622 16.2069 23.9769 16.4818 24.1802 16.6845C24.3834 16.8871 24.6588 17.0009 24.9458 17.0009C25.2328 17.0009 25.5081 16.8871 25.7114 16.6845C25.9147 16.4818 26.0293 16.2069 26.0302 15.9199C26.0311 15.6329 25.9182 15.3572 25.7162 15.1533C25.5142 14.9494 25.2396 14.8338 24.9526 14.832H24.9389Z" fill="white"/>
<path d="M16.7158 17.7031C15.2799 17.7031 13.9551 18.8383 13.9551 20.6191C13.9551 22.4783 15.3151 23.5687 16.8351 23.5687C18.0895 23.5687 18.924 22.9287 19.2773 22.1079L17.8936 21.5824C17.7125 21.9191 17.384 22.1328 16.8566 22.1328C16.1999 22.1328 15.6317 21.6883 15.5973 21.0646H19.4492C19.4733 20.8914 19.4846 20.7166 19.4829 20.5416C19.4877 18.7598 18.4303 17.7031 16.7158 17.7031ZM15.6358 19.9735C15.6695 19.5616 16.0254 19.0391 16.7384 19.0391C17.5384 19.0391 17.8295 19.5502 17.8495 19.9735H15.6358Z" fill="white"/>
<path d="M32.5561 21.9047L35.0553 19.2744V17.8984H30.5753V19.3295V19.3621H32.889L30.5098 21.8936V23.3688H35.099V21.927V21.9047H32.5561Z" fill="white"/>
</svg>
