<svg width="40" height="40" viewBox="0 0 40 40" fill="none" xmlns="http://www.w3.org/2000/svg">
<path d="M19.0937 0.0210867C8.05998 0.518494 -0.481503 9.86664 0.0210901 20.9026C0.523683 31.9385 9.86961 40.4755 20.9048 39.9792C31.94 39.4829 40.48 30.1274 39.9789 19.0944C39.4778 8.06146 30.1311 -0.481506 19.0937 0.0210867Z" fill="#D71921"/>
<path d="M30.7102 17.6353H31.3287C31.3484 17.6353 31.3672 17.6275 31.3811 17.6136C31.395 17.5997 31.4028 17.5809 31.4028 17.5613V16.3983C31.4028 16.379 31.3953 16.3605 31.3819 16.3467C31.3685 16.3329 31.3502 16.3248 31.331 16.3242H30.4606C29.4558 16.3242 28.9228 16.6442 28.6206 17.3272L26.7317 21.9538C26.6173 22.2298 26.4524 22.3613 26.1269 22.3613V16.3983C26.1269 16.379 26.1194 16.3605 26.106 16.3467C26.0926 16.3329 26.0743 16.3248 26.055 16.3242H24.6639C24.6447 16.3242 24.6261 16.3317 24.6123 16.3451C24.5985 16.3585 24.5904 16.3768 24.5898 16.3961V23.5442C24.5902 23.5785 24.6041 23.6113 24.6285 23.6354C24.653 23.6596 24.6859 23.6731 24.7202 23.6731H26.2758C27.2806 23.6731 27.7391 23.3531 28.0428 22.6683L29.9069 18.1001C30.0573 17.7764 30.2724 17.6346 30.7069 17.6346" fill="white"/>
<path d="M13.7477 19.9987C14.3077 19.7679 14.7658 19.2479 14.7658 18.385C14.7658 17.105 13.6651 16.3242 12.3362 16.3242H8.23325C8.21361 16.3242 8.19477 16.332 8.18088 16.3459C8.16698 16.3598 8.15918 16.3786 8.15918 16.3983V17.5631C8.15918 17.5828 8.16698 17.6016 8.18088 17.6155C8.19477 17.6294 8.21361 17.6372 8.23325 17.6372H12.0525C12.6684 17.6372 13.0851 18.0138 13.0851 18.4772C13.0851 18.9405 12.667 19.3164 12.0525 19.3164H9.78437V18.4501C9.78437 18.4305 9.77656 18.4117 9.76267 18.3978C9.74878 18.3839 9.72994 18.3761 9.71029 18.3761H8.23325C8.21361 18.3761 8.19477 18.3839 8.18088 18.3978C8.16698 18.4117 8.15918 18.4305 8.15918 18.4501V23.5983C8.15918 23.6179 8.16698 23.6368 8.18088 23.6507C8.19477 23.6646 8.21361 23.6724 8.23325 23.6724H12.2773C13.7892 23.6724 14.8699 22.9687 14.8699 21.5294C14.8699 20.8227 14.4533 20.239 13.7499 19.9964M12.1333 22.3909H9.78437V20.6694H12.1307C12.7636 20.6694 13.1907 21.0557 13.1907 21.5309C13.1907 22.0061 12.7636 22.3924 12.1307 22.3924" fill="white"/>
<path d="M32.1483 23.5939L29.7691 20.5491C29.7628 20.5402 29.7517 20.5417 29.7491 20.5491L29.1091 22.1169C29.1067 22.1212 29.1055 22.126 29.1055 22.1309C29.1055 22.1359 29.1067 22.1407 29.1091 22.145L30.1483 23.5391C30.1791 23.5842 30.2211 23.6205 30.2702 23.6444C30.3193 23.6682 30.3739 23.6788 30.4283 23.675H32.1083C32.1184 23.6758 32.1284 23.6734 32.1371 23.6683C32.1458 23.6633 32.1527 23.6556 32.157 23.6465C32.1612 23.6374 32.1626 23.6272 32.1609 23.6173C32.1593 23.6073 32.1546 23.5982 32.1476 23.5909" fill="white"/>
<path d="M17.4781 18.3789H16.0877C16.0681 18.3789 16.0493 18.3867 16.0354 18.4006C16.0215 18.4145 16.0137 18.4333 16.0137 18.453V23.6011C16.0137 23.6208 16.0215 23.6396 16.0354 23.6535C16.0493 23.6674 16.0681 23.6752 16.0877 23.6752H17.4781C17.4978 23.6752 17.5166 23.6674 17.5305 23.6535C17.5444 23.6396 17.5522 23.6208 17.5522 23.6011V18.453C17.5522 18.4333 17.5444 18.4145 17.5305 18.4006C17.5166 18.3867 17.4978 18.3789 17.4781 18.3789Z" fill="white"/>
<path d="M23.1917 16.3246H21.8047C21.785 16.3246 21.7662 16.3324 21.7523 16.3463C21.7384 16.3602 21.7306 16.379 21.7306 16.3987V22.3616C21.4051 22.3616 21.2402 22.2305 21.1258 21.9542L19.2369 17.3279C18.9321 16.6464 18.3984 16.3246 17.3969 16.3246H16.0858C16.0661 16.3246 16.0473 16.3324 16.0334 16.3463C16.0195 16.3602 16.0117 16.379 16.0117 16.3987V17.5635C16.0117 17.5831 16.0195 17.602 16.0334 17.6159C16.0473 17.6297 16.0661 17.6376 16.0858 17.6376H17.148C17.5851 17.6376 17.8017 17.779 17.948 18.1031L19.811 22.6705C20.1151 23.3542 20.5736 23.6753 21.5773 23.6753H23.1328C23.1499 23.6754 23.1667 23.6722 23.1825 23.6657C23.1983 23.6593 23.2126 23.6499 23.2247 23.6379C23.2368 23.6259 23.2464 23.6117 23.253 23.596C23.2597 23.5803 23.2631 23.5635 23.2632 23.5464V16.3983C23.2632 16.3786 23.2554 16.3598 23.2415 16.3459C23.2276 16.332 23.2088 16.3242 23.1891 16.3242" fill="white"/>
</svg>
