<svg width="40" height="40" viewBox="0 0 40 40" fill="none" xmlns="http://www.w3.org/2000/svg">
<path d="M19.0937 0.0210867C8.05998 0.518494 -0.481503 9.86664 0.0210901 20.9026C0.523683 31.9385 9.86961 40.4755 20.9048 39.9792C31.94 39.4829 40.48 30.1274 39.9789 19.0944C39.4778 8.06146 30.1311 -0.481506 19.0937 0.0210867Z" fill="#0575CA"/>
<path d="M19.4566 8.00067C12.8314 8.30141 7.70437 13.9166 8.00474 20.5429C8.30511 27.1692 13.9192 32.297 20.5447 31.9966C27.1703 31.6962 32.297 26.081 31.9966 19.4547C31.6962 12.8307 26.0836 7.70437 19.4607 8.00474H19.4566V8.00067ZM20.6788 19.7044C22.5703 21.4492 24.297 23.0481 24.297 23.0481C26.8859 25.8433 25.4281 27.9266 24.7044 28.4725C23.617 29.2981 22.4821 29.5703 21.0707 29.6459C20.9447 29.6647 20.7129 29.5921 20.7003 29.367C20.6925 29.127 21.0429 29.067 21.0429 29.067C24.1881 28.447 23.1859 26.371 22.0747 25.3188C21.6059 24.8744 17.3092 21.1081 17.3092 21.1081C13.1325 17.5129 13.4647 14.7044 13.4647 14.7044C13.7336 11.1744 16.6892 10.3918 18.9796 10.5907C19.247 10.6136 19.3951 10.7759 19.3499 11.0003C19.2977 11.2407 18.9425 11.2596 18.9425 11.2596C18.214 11.3036 17.564 11.3788 17.0673 11.7125C15.2262 12.9529 15.771 15.061 18.2266 17.411C18.5359 17.7073 18.867 18.0173 19.201 18.3344C19.2007 18.3362 19.6977 18.7707 20.6792 19.7044H20.6788ZM19.2518 28.6359C19.2718 28.9733 18.4514 29.1203 17.5155 29.0284C16.3403 28.9129 14.9384 28.5414 13.7151 27.4855C12.5944 26.5133 11.8955 25.1762 11.5577 24.004C11.211 22.8029 11.0677 21.3977 11.6377 21.5084C11.8147 21.5418 12.1192 22.3155 12.447 22.8788C12.7873 23.4588 13.0659 23.7807 13.3277 23.9766C13.4436 24.0655 13.8462 23.1721 14.4292 22.6651C14.767 22.3859 15.137 22.2888 15.1977 23.1247C15.2718 24.1503 15.0866 25.3666 15.3859 25.3666C15.6662 25.3666 16.2955 25.1551 17.6796 25.037C18.1999 24.9918 18.4977 25.0914 17.9999 25.7918C17.6386 26.3416 17.1768 26.8183 16.6388 27.197C17.8155 28.2988 19.2262 28.1651 19.2518 28.6359ZM20.1796 17.9166C20.0918 17.5736 20.0707 17.1388 20.1425 16.581C20.2907 15.4207 20.6025 14.8755 20.9573 13.9755C21.4388 12.7666 20.2699 12.0596 20.4651 11.6144C20.727 11.0114 21.561 11.7744 22.4929 11.8336C23.2936 11.8777 23.7736 11.8336 24.3973 11.9203C25.2251 12.0314 26.2155 12.3118 26.6566 12.8288C27.0618 13.3029 26.4444 13.881 25.7007 13.5184C25.1577 13.254 24.4744 13.4173 24.8751 13.9829C25.3566 14.5207 25.5959 14.5159 26.214 14.7288C27.5388 15.1821 27.4947 16.3377 26.5429 16.971C25.3947 17.7299 24.4477 17.4392 24.0244 15.9414C23.8121 15.1933 23.2836 14.8121 22.7433 15.0251C22.2029 15.2381 22.5233 16.2207 22.9333 17.1318C23.7503 19.2218 21.7177 19.151 21.481 19.1221C21.1736 19.0617 20.8891 18.9169 20.6593 18.704C20.4295 18.4911 20.2634 18.2185 20.1796 17.9166Z" fill="white"/>
</svg>
