<svg width="40" height="40" viewBox="0 0 40 40" fill="none" xmlns="http://www.w3.org/2000/svg">
<path d="M20 40C31.0457 40 40 31.0457 40 20C40 8.9543 31.0457 0 20 0C8.9543 0 0 8.9543 0 20C0 31.0457 8.9543 40 20 40Z" fill="#005BAC"/>
<path d="M23.9433 10L20 11.9793L16.0566 10L20 17.4967L23.9433 10Z" fill="#FABE00"/>
<path d="M25.3228 15.796L25.2639 15.7423L28.0746 14.5616V10.6016L23.1857 12.6864C23.1857 12.6864 20.5405 17.7023 20.4791 17.8201C21.5206 17.9425 22.476 18.4584 23.1497 19.2621C23.8234 20.0658 24.1645 21.0966 24.1031 22.1435C24.0418 23.1904 23.5827 24.1743 22.8198 24.8939C22.0568 25.6134 21.0478 26.0142 19.9991 26.0142C18.9503 26.0142 17.9413 25.6134 17.1783 24.8939C16.4154 24.1743 15.9563 23.1904 15.895 22.1435C15.8336 21.0966 16.1747 20.0658 16.8484 19.2621C17.5221 18.4584 18.4775 17.9425 19.5191 17.8201C19.4598 17.7049 16.8153 12.6864 16.8153 12.6864L11.935 10.6016V14.5616L14.7476 15.7449L14.6868 15.7967C11.3165 18.7349 10.965 23.8493 13.9031 27.2204C16.8413 30.5916 21.9561 30.9423 25.3268 28.0042C28.6976 25.066 29.0487 19.9516 26.1116 16.5805C25.8687 16.3016 25.6068 16.0397 25.3279 15.7967L25.3228 15.796Z" fill="#FABE00"/>
</svg>
