<svg width="40" height="40" viewBox="0 0 40 40" fill="none" xmlns="http://www.w3.org/2000/svg">
<path d="M19.0937 0.0210867C8.06072 0.518494 -0.481504 9.86664 0.0210884 20.9026C0.523681 31.9385 9.86961 40.4755 20.9048 39.9792C31.94 39.4829 40.48 30.1274 39.9789 19.0944C39.4778 8.06146 30.1311 -0.481506 19.0937 0.0210867Z" fill="#003E99"/>
<path d="M29.2717 15.7514C28.2317 14.6944 26.5039 14.8785 25.4861 15.9551C24.1628 17.3448 23.1343 17.864 21.9069 17.8122C20.1958 17.7381 19.3469 16.4129 18.4724 14.7433C17.5591 13.0007 16.1524 12.0273 14.4039 12.0273C11.6509 12.0273 10.0039 14.257 10.0039 16.7425C10.0039 20.5673 12.6935 22.8536 14.555 23.8166C16.1013 24.6229 17.8221 24.9588 19.355 24.9973C19.2418 26.0097 19.0219 27.0072 18.6991 27.9733H21.8406C21.5302 27.1192 21.255 25.8155 21.1709 24.897C25.7839 24.297 27.9765 22.2025 29.1758 20.2088C29.7143 19.3288 30.0013 18.4233 29.998 17.6073C29.9943 16.8922 29.7661 16.2407 29.2695 15.7514M14.4239 18.1433C14.1058 18.1648 13.7885 18.0915 13.5121 17.9327C13.2357 17.774 13.0125 17.5367 12.8709 17.2511C12.7293 16.9655 12.6756 16.6443 12.7165 16.3282C12.7574 16.012 12.8912 15.7151 13.1009 15.475C13.3105 15.2348 13.5867 15.0622 13.8945 14.9791C14.2022 14.8959 14.5277 14.9059 14.8298 15.0077C15.1319 15.1095 15.397 15.2986 15.5917 15.5511C15.7863 15.8036 15.9016 16.1082 15.9232 16.4262C15.9232 16.4288 15.9232 16.4318 15.9232 16.4344C15.9493 16.8595 15.8063 17.2778 15.5253 17.5979C15.2443 17.918 14.8481 18.1141 14.4232 18.1433" fill="#61ED00"/>
</svg>
