<svg width="40" height="40" viewBox="0 0 40 40" fill="none" xmlns="http://www.w3.org/2000/svg">
<path d="M19.0937 0.0210867C8.05998 0.518494 -0.481503 9.86664 0.0210901 20.9026C0.523683 31.9385 9.86961 40.4755 20.9048 39.9792C31.94 39.4829 40.48 30.1274 39.9789 19.0944C39.4778 8.06146 30.1311 -0.481506 19.0937 0.0210867Z" fill="#0F7AED"/>
<path d="M24.77 12.9609C23.8981 12.9609 20.9893 15.0987 20.9893 15.0987C20.9893 15.0987 23.8981 17.2372 24.77 17.2372C25.9852 17.2372 26.9981 16.4154 26.9981 15.0987C26.9981 13.782 25.9852 12.9609 24.77 12.9609Z" fill="#38D200"/>
<path d="M14.8801 31.999C15.752 31.999 18.6609 29.8612 18.6609 29.8612C18.6609 29.8612 15.7546 27.7227 14.8801 27.7227C13.6649 27.7227 12.6523 28.5445 12.6523 29.8612C12.6523 31.1778 13.6668 31.999 14.8801 31.999Z" fill="white"/>
<path d="M25.53 20.1462L18.0004 15.1406L22.3515 12.0936C23.3563 11.3899 23.6686 10.0006 22.9811 8.9825C22.6519 8.49189 22.1412 8.15217 21.5614 8.03805C20.9817 7.92394 20.3803 8.04477 19.8897 8.37398L19.8549 8.39768L14.6563 12.0721C14.1656 12.4188 13.7668 12.8798 13.4945 13.4153C13.2221 13.9508 13.0843 14.5447 13.0932 15.1454C13.102 15.7461 13.2571 16.3356 13.5451 16.8629C13.8331 17.3902 14.2453 17.8393 14.746 18.1714L26.5141 25.971C27.8523 23.9103 27.593 21.4847 25.53 20.1462Z" fill="white"/>
<path d="M13.4991 19.4727L26.4765 27.816C26.9724 28.1354 27.3211 28.6386 27.4461 29.215C27.5712 29.7915 27.4622 30.3939 27.1432 30.8901C26.8238 31.3859 26.3206 31.7347 25.7442 31.8597C25.1677 31.9847 24.5653 31.8757 24.0691 31.5567L14.8358 25.6219C13.8435 24.9837 13.1452 23.9775 12.8946 22.8246C12.6439 21.6717 12.8614 20.4664 13.4991 19.4738V19.4727Z" fill="#38D200"/>
</svg>
