<svg width="40" height="40" viewBox="0 0 40 40" fill="none" xmlns="http://www.w3.org/2000/svg">
<path d="M20 40C31.0457 40 40 31.0457 40 20C40 8.9543 31.0457 0 20 0C8.9543 0 0 8.9543 0 20C0 31.0457 8.9543 40 20 40Z" fill="#00688F"/>
<path d="M26.5734 12.3945C25.7735 12.3945 24.9916 12.6317 24.3266 13.0761C23.6615 13.5205 23.1432 14.1521 22.8371 14.8911C22.531 15.6301 22.451 16.4432 22.607 17.2277C22.7631 18.0122 23.1483 18.7328 23.7139 19.2983C24.2795 19.8639 25.0001 20.249 25.7846 20.405C26.5691 20.561 27.3823 20.4809 28.1212 20.1747C28.8602 19.8686 29.4918 19.3502 29.9361 18.6851C30.3804 18.02 30.6175 17.2381 30.6174 16.4382C30.6173 15.3657 30.1912 14.3372 29.4328 13.5789C28.6744 12.8206 27.6459 12.3945 26.5734 12.3945ZM26.5734 18.3527C26.1946 18.3527 25.8243 18.2404 25.5094 18.0299C25.1944 17.8195 24.9489 17.5204 24.804 17.1704C24.659 16.8205 24.6211 16.4354 24.695 16.0639C24.7689 15.6924 24.9513 15.3511 25.2191 15.0833C25.487 14.8154 25.8282 14.633 26.1997 14.5591C26.5712 14.4852 26.9563 14.5231 27.3063 14.6681C27.6562 14.8131 27.9553 15.0585 28.1658 15.3735C28.3762 15.6884 28.4886 16.0587 28.4886 16.4375C28.4886 16.9452 28.2869 17.4322 27.9278 17.7912C27.5688 18.1502 27.0819 18.3519 26.5741 18.3519L26.5734 18.3527Z" fill="#F28B00"/>
<path d="M21.593 20.0925C21.2886 18.717 20.5232 17.4869 19.4237 16.6061C18.3243 15.7253 16.9567 15.2469 15.548 15.25C14.1392 15.2532 12.7739 15.7378 11.6783 16.6235C10.5828 17.5091 9.82293 18.7427 9.52474 20.1195C9.22654 21.4964 9.40794 22.9338 10.0389 24.1934C10.6698 25.453 11.7123 26.4591 12.9935 27.0448C14.2747 27.6306 15.7177 27.7608 17.083 27.4138C18.4484 27.0669 19.6542 26.2637 20.5004 25.1373L19.0037 23.3899C18.2522 24.5603 16.9011 25.5547 15.3933 25.4948C14.654 25.4644 13.937 25.233 13.3194 24.8256C12.7017 24.4181 12.2069 23.85 11.888 23.1823C11.5692 22.5146 11.4384 21.7726 11.5097 21.0361C11.5811 20.2997 11.8518 19.5966 12.2929 19.0025C12.734 18.4084 13.3287 17.9458 14.0131 17.6645C14.6975 17.3832 15.4456 17.2938 16.1769 17.4059C16.9083 17.518 17.5953 17.8274 18.164 18.3008C18.7327 18.7741 19.1615 19.3936 19.4044 20.0925H14.757C14.6432 20.0923 14.5303 20.1146 14.4251 20.158C14.3198 20.2015 14.2241 20.2653 14.1435 20.3457C14.0629 20.4262 13.999 20.5218 13.9553 20.627C13.9117 20.7322 13.8893 20.8449 13.8893 20.9588V21.9707H21.7382V21.4285C21.7381 20.9792 21.6894 20.5313 21.593 20.0925Z" fill="white"/>
</svg>
