<svg width="40" height="40" viewBox="0 0 40 40" fill="none" xmlns="http://www.w3.org/2000/svg">
<path d="M20 40C31.0457 40 40 31.0457 40 20C40 8.9543 31.0457 0 20 0C8.9543 0 0 8.9543 0 20C0 31.0457 8.9543 40 20 40Z" fill="#005BAC"/>
<path d="M23.9423 10L19.999 11.9793L16.0557 10L19.999 17.4967L23.9423 10Z" fill="#FABE00"/>
<path d="M25.3218 15.796L25.2629 15.7423L28.0736 14.5616V10.6016L23.1847 12.6864C23.1847 12.6864 20.5396 17.7023 20.4781 17.8201C21.5196 17.9425 22.475 18.4584 23.1487 19.2621C23.8224 20.0658 24.1635 21.0966 24.1021 22.1435C24.0408 23.1904 23.5817 24.1743 22.8188 24.8939C22.0559 25.6134 21.0468 26.0142 19.9981 26.0142C18.9494 26.0142 17.9403 25.6134 17.1774 24.8939C16.4144 24.1743 15.9553 23.1904 15.894 22.1435C15.8327 21.0966 16.1738 20.0658 16.8475 19.2621C17.5212 18.4584 18.4765 17.9425 19.5181 17.8201C19.4588 17.7049 16.8144 12.6864 16.8144 12.6864L11.934 10.6016V14.5616L14.7466 15.7449L14.6859 15.7967C11.3155 18.7349 10.964 23.8493 13.9021 27.2204C16.8403 30.5916 21.9551 30.9423 25.3259 28.0042C28.6966 25.066 29.0477 19.9516 26.1107 16.5805C25.8677 16.3016 25.6059 16.0397 25.327 15.7967L25.3218 15.796Z" fill="#FABE00"/>
</svg>
