<svg width="40" height="40" viewBox="0 0 40 40" fill="none" xmlns="http://www.w3.org/2000/svg">
<path d="M19.0937 0.0210867C8.05998 0.518494 -0.481503 9.86664 0.0210901 20.9026C0.523683 31.9385 9.86961 40.4755 20.9048 39.9792C31.94 39.4829 40.48 30.1274 39.9789 19.0944C39.4778 8.06146 30.1311 -0.481506 19.0937 0.0210867Z" fill="#193282"/>
<path d="M30 10H10V30H30V10Z" fill="#0090D0"/>
<path d="M10 10L14.9985 15.0015L20 10H10Z" fill="#0090D0"/>
<path d="M10 10V19.9989L14.9985 15.0015L10 10Z" fill="#0099D7"/>
<path d="M20 20.0015L15.0015 15L10 20.0015H20Z" fill="#0090D0"/>
<path d="M20.0005 19.9989V10L15.002 14.9974L20.0005 19.9989Z" fill="#0081C8"/>
<path d="M20 10V19.9989L24.9974 15.0015L20 10Z" fill="#0070BA"/>
<path d="M30 20.0015L25.0015 15L20 20.0015H30Z" fill="#004B97"/>
<path d="M10 20L14.9985 25.0026L20 20H10Z" fill="#0081C8"/>
<path d="M10 20V30.0004L14.9985 25.0026L10 20Z" fill="#0070BA"/>
<path d="M20 30.0019L15.0015 25L10 30.0019H20Z" fill="#0066B2"/>
<path d="M20.0005 30.0004V20L15.002 24.9985L20.0005 30.0004Z" fill="#00519B"/>
<path d="M20 20L24.9974 25.0026L30 20H20Z" fill="#1A3180"/>
<path d="M20 20V30.0004L24.9974 25.0026L20 20Z" fill="#004B97"/>
<path d="M30 30.0019L25.0015 25L20 30.0019H30Z" fill="#1A3180"/>
<path d="M30.0005 30.0004V20L25.002 24.9985L30.0005 30.0004Z" fill="#1A3180"/>
<path d="M20 10L24.9974 15.0015L30 10H20Z" fill="#0066B2"/>
<path d="M30.0005 19.9989V10L25.002 14.9974L30.0005 19.9989Z" fill="#00519B"/>
<path d="M29.9999 22.5016L23.5965 16.4023L13.8799 26.1446L17.4247 29.6886L23.5965 23.6105L29.9999 29.9783V22.5016Z" fill="white"/>
</svg>
