<svg width="40" height="40" viewBox="0 0 40 40" fill="none" xmlns="http://www.w3.org/2000/svg">
<path d="M20 40C31.0457 40 40 31.0457 40 20C40 8.9543 31.0457 0 20 0C8.9543 0 0 8.9543 0 20C0 31.0457 8.9543 40 20 40Z" fill="#005743"/>
<path d="M13.2592 10.8641C12.0936 11.8978 11.5059 13.3589 11.5059 15.2074C11.5059 17.8489 13.3247 19.2319 14.1007 19.8222C14.1881 19.8926 14.311 19.98 14.3433 20.013L14.4544 20.1156C14.9359 20.5578 15.8314 21.3778 15.8314 22.407C15.8314 24.1848 13.8385 26.1848 12.8685 26.8059H16.2555C17.6496 25.3382 18.3592 23.8607 18.3592 22.407C18.3592 20.2711 16.8222 18.8582 16.1647 18.2552L16.0688 18.1659C15.9407 18.0467 15.7973 17.9374 15.6314 17.8111C14.7899 17.1711 14.0325 16.4893 14.0325 15.2074C14.0325 14.1015 14.3262 13.3015 14.9307 12.76C15.5351 12.2185 16.8992 12.063 18.0933 12.0493V9.54297C16.4477 9.58223 14.3951 9.85556 13.2592 10.8641Z" fill="white"/>
<path d="M22.2774 30.5175H19.7529V9.48602L21.01 9.48047H21.0255C21.437 9.48047 24.47 9.54565 26.3492 11.4171C27.2666 12.329 27.7518 13.5434 27.7518 14.9234C27.7614 15.6557 27.5574 16.8057 26.8814 17.7438C27.6766 18.5357 28.4944 19.7879 28.4944 21.5923C28.4944 24.7645 25.4792 26.7812 22.2752 27.1279L22.2774 30.5175ZM23.2107 18.0279C25.4244 16.9971 25.2259 14.9501 25.2259 14.9501V14.9345C25.2259 14.1871 25.0318 13.1197 23.3537 12.4586C23.0047 12.3243 22.6445 12.2211 22.2774 12.1501V24.5831C23.1637 24.452 23.9996 24.1482 24.6614 23.7071C25.2596 23.3082 25.9722 22.6175 25.9722 21.5934C25.977 21.2188 25.9059 20.8471 25.763 20.5007C25.6202 20.1544 25.4086 19.8406 25.1411 19.5782C24.5844 19.0208 23.2107 18.0279 23.2107 18.0279Z" fill="white"/>
</svg>
