<svg width="40" height="40" viewBox="0 0 40 40" fill="none" xmlns="http://www.w3.org/2000/svg">
<path d="M19.0937 0.0210867C8.06072 0.518494 -0.481504 9.86664 0.0210884 20.9026C0.523681 31.9385 9.86961 40.4755 20.9048 39.9792C31.94 39.4829 40.48 30.1274 39.9789 19.0944C39.4778 8.06146 30.1311 -0.481506 19.0937 0.0210867Z" fill="#6A2C00"/>
<path d="M18.6039 22.4219C18.8169 22.4219 19.1898 22.6 19.7009 23.1545C22.348 26.0304 25.3239 28.3056 27.825 29.6797C28.1843 29.8785 28.3846 30.0245 28.3846 30.213C28.3846 30.3556 28.3635 30.5004 28.0513 30.5004C27.4891 30.5004 24.335 29.8785 23.4998 29.4856C22.6646 29.0926 20.8602 27.6282 18.7113 23.9245C18.4676 23.5056 18.2109 23.1467 18.2109 22.8085C18.2109 22.4704 18.515 22.4219 18.6039 22.4219Z" fill="#6C9BD2"/>
<path d="M25.7472 11.8331C25.7472 11.8331 26.2705 12.8653 21.1757 13.5831C21.7313 12.0101 22.0976 10.9738 22.0976 10.9738C22.4228 10.0323 21.6902 9.48047 21.1661 9.48047C20.642 9.48047 20.2572 9.88751 20.0376 10.3927L18.5231 13.8586C16.5365 13.9942 15.0613 13.9216 14.3987 13.8586C13.4757 13.766 13.238 14.2779 13.238 14.8001C13.238 15.7108 14.8428 16.6327 15.8676 16.5342C16.5154 16.4731 16.8898 16.4445 17.4161 16.3916L11.7865 29.2634C11.5728 29.7449 11.3976 30.5175 12.3654 30.5175C13.3331 30.5175 15.5087 29.6349 15.872 28.6101C16.0261 28.179 17.1468 25.0001 18.398 21.4568C19.0146 21.3338 21.2902 20.9816 21.9239 20.9816C22.5242 20.9816 22.8317 21.2531 22.8317 21.5708C22.8317 22.3116 21.0539 24.4386 17.605 27.0623C17.225 27.3494 17.5372 27.5775 17.7331 27.5775C18.2654 27.5775 20.6405 25.9479 21.8183 25.059C23.108 24.0831 25.3676 21.5423 25.3676 19.7571C25.3676 19.0534 25.0561 18.4075 23.6428 18.4075C22.2724 18.4075 19.8546 18.7123 19.3387 18.7779C19.6739 17.8275 20.0054 16.8934 20.3128 16.0212C22.9794 15.6508 24.5687 15.4105 25.5046 15.2157C26.7942 14.9442 27.8287 14.2019 27.8287 13.4379C27.8298 11.8153 25.7472 11.8331 25.7472 11.8331Z" fill="white"/>
</svg>
