<svg width="40" height="40" viewBox="0 0 40 40" fill="none" xmlns="http://www.w3.org/2000/svg">
<path d="M19.0937 0.0210867C8.06072 0.518494 -0.481504 9.86664 0.0210884 20.9026C0.523681 31.9385 9.87035 40.4755 20.9048 39.9792C31.9392 39.4829 40.48 30.1274 39.9789 19.0944C39.4778 8.06146 30.1311 -0.481506 19.0937 0.0210867Z" fill="#1328A1"/>
<path d="M29.176 21.1409L29.12 17.9609H30.1111V21.9695H28.6871L27.7 18.6809H27.68L27.7352 21.9695H26.7471V17.9609H28.2326L29.1519 21.1409H29.176Z" fill="white"/>
<path d="M11.1705 18.3363L10.6242 22.0163H9.54199L10.2827 17.9648H12.0627L12.7994 22.013H11.7253L11.192 18.3378L11.1705 18.3363Z" fill="white"/>
<path d="M15.8401 21.0583L16.3334 17.9609H17.963L18.0512 22.012H17.0482L17.0227 18.3709H17.0001L16.3334 22.0128H15.3179L14.649 18.3709H14.6275L14.6016 22.0124H13.6016L13.6882 17.9635H15.3201L15.8149 21.0591L15.8401 21.0583Z" fill="white"/>
<path d="M7.85778 20.8683C7.88883 20.9658 7.89152 21.0701 7.86556 21.1691C7.84736 21.2554 7.79692 21.3316 7.72453 21.382C7.65213 21.4324 7.56322 21.4534 7.47593 21.4406C7.38123 21.4516 7.286 21.4248 7.21105 21.3659C7.1361 21.3069 7.08752 21.2207 7.07593 21.1261V20.6817H6V20.9943C6 21.8976 6.7037 22.1702 7.45444 22.1702C8.17926 22.1702 8.77444 21.9198 8.86963 21.2443C8.90488 21.0244 8.90326 20.8002 8.86481 20.5809C8.69593 19.7313 7.17778 19.4787 7.06481 19.0043C7.04897 18.9347 7.04733 18.8626 7.06 18.7924C7.07448 18.7088 7.12047 18.634 7.18849 18.5834C7.2565 18.5327 7.34135 18.5101 7.42556 18.5202C7.51589 18.5125 7.6056 18.5409 7.67502 18.5992C7.74445 18.6575 7.78792 18.741 7.79593 18.8313C7.79741 18.85 7.79741 18.8689 7.79593 18.8876V19.138H8.8V18.852C8.8 17.972 8.01778 17.832 7.45111 17.832C6.74 17.832 6.15852 18.072 6.05037 18.7309C6.01665 18.9131 6.01854 19.1002 6.05593 19.2817C6.22889 20.1043 7.65111 20.3443 7.85778 20.8683Z" fill="white"/>
<path d="M20.8686 20.8586C20.899 20.9547 20.9017 21.0574 20.8763 21.1549C20.8586 21.2407 20.8086 21.3164 20.7368 21.3665C20.665 21.4167 20.5767 21.4374 20.49 21.4245C20.4438 21.4307 20.3968 21.4278 20.3517 21.4158C20.3066 21.4038 20.2644 21.3831 20.2273 21.3548C20.1902 21.3265 20.1591 21.2912 20.1356 21.2508C20.1122 21.2105 20.097 21.1659 20.0908 21.1197C20.0906 21.1181 20.0906 21.1165 20.0908 21.1149V20.6727H19.0293V20.9823C19.0293 21.8767 19.7252 22.1471 20.4693 22.1471C21.1852 22.1471 21.7749 21.9001 21.8693 21.2297C21.9044 21.012 21.9027 20.7899 21.8645 20.5727C21.6978 19.7319 20.1941 19.4823 20.0826 19.0127C20.0667 18.9436 20.0652 18.872 20.0782 18.8023C20.0923 18.7196 20.1377 18.6454 20.205 18.5952C20.2723 18.545 20.3563 18.5226 20.4397 18.5327C20.484 18.5287 20.5287 18.5335 20.5712 18.5468C20.6137 18.5602 20.6532 18.5817 20.6874 18.6103C20.7215 18.6389 20.7497 18.6739 20.7703 18.7134C20.7909 18.7529 20.8035 18.7961 20.8074 18.8405C20.8093 18.859 20.8093 18.8778 20.8074 18.8964V19.1438H21.7971V18.8612C21.7971 17.9886 21.0219 17.8516 20.4604 17.8516C19.7567 17.8516 19.1804 18.0867 19.0756 18.7405C19.0436 18.9196 19.0469 19.1033 19.0852 19.2812C19.2563 20.1023 20.6645 20.3393 20.8686 20.8586Z" fill="white"/>
<path d="M24.2271 21.4026C24.3161 21.4101 24.4047 21.3843 24.4757 21.3302C24.5467 21.276 24.595 21.1974 24.6112 21.1096C24.6192 21.0586 24.6224 21.0068 24.6208 20.9552V17.957H25.6338V20.8618C25.6338 20.9359 25.6271 21.0881 25.6234 21.1281C25.5527 21.8844 24.9634 22.1281 24.2271 22.1281C23.4908 22.1281 22.9008 21.8826 22.8305 21.1281C22.8305 21.0911 22.8194 20.937 22.8216 20.8618V17.9578H23.8338V20.9578C23.832 21.0091 23.8352 21.0604 23.8434 21.1111C23.8601 21.1985 23.9086 21.2766 23.9794 21.3304C24.0502 21.3842 24.1385 21.4099 24.2271 21.4026Z" fill="white"/>
<path d="M32.5744 21.359C32.667 21.3691 32.76 21.3444 32.8354 21.2896C32.9107 21.2348 32.9629 21.1539 32.9818 21.0627C32.99 21.0119 32.9932 20.9604 32.9914 20.909V20.3227H32.5822V19.7349H34V20.8205C34 20.9097 33.9951 20.9988 33.9855 21.0875C33.9192 21.8253 33.2877 22.0875 32.5781 22.0875C31.8685 22.0875 31.2374 21.8253 31.1707 21.0875C31.1611 20.9988 31.1562 20.9097 31.1563 20.8205V19.119C31.1563 19.0449 31.1651 18.9197 31.1733 18.8516C31.2625 18.0949 31.8674 17.8516 32.5777 17.8516C33.2881 17.8516 33.9081 18.0916 33.9825 18.8516C33.99 18.9405 33.9929 19.0301 33.9914 19.119V19.253H32.9822V19.026C32.9828 18.9742 32.9786 18.9225 32.9696 18.8716C32.9524 18.7811 32.9016 18.7005 32.8274 18.646C32.7532 18.5915 32.661 18.5672 32.5696 18.5779C32.4784 18.5686 32.387 18.5936 32.3131 18.6478C32.2392 18.7021 32.1881 18.7818 32.1696 18.8716C32.1575 18.9348 32.1521 18.9991 32.1533 19.0634V20.9153C32.152 20.9667 32.155 21.0181 32.1622 21.069C32.1826 21.1599 32.2361 21.2399 32.3123 21.2935C32.3885 21.3471 32.4819 21.3704 32.5744 21.359Z" fill="white"/>
</svg>
