<svg width="40" height="40" viewBox="0 0 40 40" fill="none" xmlns="http://www.w3.org/2000/svg">
<path d="M20 40C31.0457 40 40 31.0457 40 20C40 8.9543 31.0457 0 20 0C8.9543 0 0 8.9543 0 20C0 31.0457 8.9543 40 20 40Z" fill="#FFE300"/>
<path d="M25.6595 20C26.6388 19.3559 27.3842 18.4132 27.7852 17.3118C28.1861 16.2104 28.2212 15.0091 27.8851 13.8862C27.5491 12.7633 26.8599 11.7787 25.9198 11.0786C24.9798 10.3785 23.839 10.0003 22.6669 10H13.5339C13.4926 9.9999 13.4517 10.0079 13.4135 10.0237C13.3754 10.0394 13.3406 10.0624 13.3114 10.0916C13.2821 10.1207 13.2589 10.1553 13.243 10.1934C13.2271 10.2315 13.2188 10.2724 13.2188 10.3137V29.6841C13.2187 29.7681 13.2518 29.8488 13.3108 29.9087C13.3697 29.9685 13.4499 30.0028 13.5339 30.0041H22.6669C23.8391 30.004 24.98 29.626 25.9203 28.926C26.8605 28.226 27.5499 27.2414 27.8861 26.1184C28.2222 24.9955 28.1873 23.794 27.7864 22.6925C27.3854 21.591 26.64 20.6482 25.6606 20.0041L25.6595 20ZM21.178 24.5511H19.4617V15.4489H21.1769L21.178 24.5511Z" fill="#1E1E1E"/>
</svg>
