<svg width="40" height="40" viewBox="0 0 40 40" fill="none" xmlns="http://www.w3.org/2000/svg">
<path d="M20 40C31.0457 40 40 31.0457 40 20C40 8.9543 31.0457 0 20 0C8.9543 0 0 8.9543 0 20C0 31.0457 8.9543 40 20 40Z" fill="#00326D"/>
<path d="M15.9718 26.0843C15.3316 26.084 14.7054 25.8971 14.1698 25.5465C13.6342 25.1959 13.2124 24.6967 12.956 24.1101C12.6996 23.5235 12.6198 22.8749 12.7263 22.2436C12.8327 21.6124 13.1209 21.0258 13.5555 20.5558C12.9702 19.4805 12.6646 18.2753 12.6666 17.051C12.6666 16.8554 12.6744 16.661 12.6896 16.4688C9.00441 17.8391 7.12848 21.9391 8.49959 25.6247C9.8707 29.3102 13.967 31.1854 17.6526 29.815C17.9759 29.6944 18.2901 29.5504 18.5926 29.3843V24.7865C18.2853 25.1902 17.8889 25.5174 17.4343 25.7425C16.9796 25.9677 16.4791 26.0846 15.9718 26.0843Z" fill="url(#paint0_linear_4071_100074)"/>
<path d="M15.9717 19.4967C16.334 19.4965 16.6939 19.556 17.0369 19.673C16.7685 19.2647 16.5873 18.8055 16.5046 18.324C16.4218 17.8425 16.4393 17.3491 16.5559 16.8746C16.6726 16.4002 16.8859 15.955 17.1825 15.5667C17.479 15.1785 17.8525 14.8556 18.2796 14.6183C18.7067 14.3811 19.1781 14.2344 19.6644 14.1877C20.1507 14.1409 20.6414 14.195 21.1059 14.3465C21.5704 14.4981 21.9986 14.7438 22.3637 15.0684C22.7288 15.393 23.0231 15.7895 23.228 16.233C24.5839 15.9104 26.0047 15.9922 27.3147 16.4681C26.9917 12.4289 23.4561 9.41592 19.4169 9.73851C15.3776 10.0611 12.3632 13.597 12.6858 17.6363C12.7673 18.6593 13.0627 19.6539 13.5528 20.5555C13.8608 20.2213 14.2348 19.9546 14.6512 19.7723C15.0675 19.5901 15.5172 19.4962 15.9717 19.4967Z" fill="url(#paint1_linear_4071_100074)"/>
<path d="M24.8798 16.0391C24.324 16.0391 23.7701 16.1042 23.2294 16.2328C23.4814 16.7812 23.5896 17.3848 23.5438 17.9866C23.4981 18.5884 23.2999 19.1687 22.9679 19.6728C23.5417 19.4776 24.1581 19.4445 24.7495 19.5771C25.3408 19.7098 25.8841 20.003 26.3195 20.4245C26.7549 20.8461 27.0655 21.3796 27.2172 21.9663C27.3689 22.5531 27.3557 23.1703 27.1791 23.75C27.0026 24.3298 26.6695 24.8496 26.2165 25.2522C25.7636 25.6548 25.2083 25.9246 24.6118 26.0319C24.0154 26.1392 23.4009 26.0798 22.836 25.8604C22.2711 25.6409 21.7777 25.2698 21.4102 24.788V29.3839C24.8479 31.2928 29.1824 30.0531 31.0913 26.6154C33.0002 23.1776 31.7605 18.8431 28.3227 16.9342C27.2693 16.3494 26.0847 16.0414 24.8798 16.0391Z" fill="url(#paint2_linear_4071_100074)"/>
<defs>
<linearGradient id="paint0_linear_4071_100074" x1="14.3926" y1="30.3558" x2="11.94" y2="16.4462" gradientUnits="userSpaceOnUse">
<stop offset="0.15" stop-color="#54C2F0"/>
<stop offset="0.3" stop-color="#4FBCEC"/>
<stop offset="0.51" stop-color="#3FACE2"/>
<stop offset="0.73" stop-color="#2691D0"/>
<stop offset="0.98" stop-color="#036BB8"/>
<stop offset="1" stop-color="#0068B6"/>
</linearGradient>
<linearGradient id="paint1_linear_4071_100074" x1="12.1835" y1="17.0311" x2="25.9739" y2="12.0115" gradientUnits="userSpaceOnUse">
<stop offset="0.15" stop-color="#54C2F0"/>
<stop offset="0.3" stop-color="#4FBCEC"/>
<stop offset="0.51" stop-color="#3FACE2"/>
<stop offset="0.73" stop-color="#2691D0"/>
<stop offset="0.98" stop-color="#036BB8"/>
<stop offset="1" stop-color="#0068B6"/>
</linearGradient>
<linearGradient id="paint2_linear_4071_100074" x1="28.0409" y1="16.6765" x2="25.5968" y2="30.5365" gradientUnits="userSpaceOnUse">
<stop offset="0.15" stop-color="#54C2F0"/>
<stop offset="0.3" stop-color="#4FBCEC"/>
<stop offset="0.51" stop-color="#3FACE2"/>
<stop offset="0.73" stop-color="#2691D0"/>
<stop offset="0.98" stop-color="#036BB8"/>
<stop offset="1" stop-color="#0068B6"/>
</linearGradient>
</defs>
</svg>
