<svg width="40" height="40" viewBox="0 0 40 40" fill="none" xmlns="http://www.w3.org/2000/svg">
<path d="M19.0937 0.0210867C8.05998 0.518494 -0.481503 9.86664 0.0210901 20.9026C0.523683 31.9385 9.86961 40.4755 20.9048 39.9792C31.94 39.4829 40.48 30.1274 39.9789 19.0944C39.4778 8.06146 30.1311 -0.481506 19.0937 0.0210867Z" fill="#140064"/>
<path d="M11.6952 16.5391H10.0089L7.3463 19.6391V16.5391H6V23.3024H7.3463V20.1942L10.097 23.3024H11.7833L8.79037 19.9209L11.6952 16.5391Z" fill="white"/>
<path d="M33.9996 23.3024L31.977 20.9631L33.9388 18.6239H32.4873L30.777 20.648V16.5391H29.4307V23.3024H30.777V21.2728L32.5196 23.3024H33.9996Z" fill="white"/>
<path d="M15.0086 18.4591C14.4431 18.4591 13.9598 18.6991 13.5624 19.0376V16.5391H12.2168V20.9935C12.2168 22.3342 13.1038 23.4568 14.7724 23.4568C16.2731 23.4568 17.3324 22.4198 17.3324 20.968C17.3286 19.5924 16.4205 18.4591 15.0086 18.4591ZM14.7686 22.2368C14.4353 22.237 14.1151 22.1071 13.876 21.8747C13.637 21.6424 13.498 21.326 13.4886 20.9928V20.9557C13.4886 20.7026 13.5637 20.4551 13.7044 20.2446C13.845 20.0341 14.0449 19.87 14.2788 19.7732C14.5127 19.6763 14.7701 19.6509 15.0184 19.7003C15.2667 19.7497 15.4947 19.8716 15.6737 20.0506C15.8528 20.2296 15.9747 20.4577 16.0241 20.706C16.0734 20.9543 16.0481 21.2117 15.9512 21.4456C15.8543 21.6795 15.6903 21.8794 15.4798 22.02C15.2693 22.1607 15.0218 22.2357 14.7686 22.2357V22.2368Z" fill="white"/>
<path d="M26.8448 18.4611C26.2707 18.4541 25.7154 18.666 25.2918 19.0537V18.6093H23.9463V23.3067H25.2918V20.6726C25.3005 20.4151 25.4088 20.1711 25.594 19.992C25.7791 19.8129 26.0267 19.7128 26.2843 19.7128C26.5419 19.7128 26.7894 19.8129 26.9745 19.992C27.1597 20.1711 27.268 20.4151 27.2767 20.6726V23.3067H28.6318V20.2422C28.6285 19.7698 28.439 19.3178 28.1044 18.9844C27.7698 18.6509 27.3172 18.4628 26.8448 18.4611Z" fill="white"/>
<path d="M20.5499 18.4648C19.0314 18.4648 17.9658 19.5048 17.9658 20.9537C17.9658 22.3282 18.8843 23.4626 20.3114 23.4626C20.6228 23.4578 20.9292 23.3827 21.2076 23.2431C21.4861 23.1034 21.7294 22.9027 21.9195 22.656V23.3063H23.1369V20.9545H23.1258L23.1369 20.9282C23.1347 19.5874 22.2395 18.4648 20.5499 18.4648ZM20.5788 22.233C20.3256 22.233 20.0781 22.1579 19.8677 22.0173C19.6572 21.8766 19.4931 21.6767 19.3962 21.4428C19.2993 21.2089 19.274 20.9516 19.3234 20.7033C19.3728 20.455 19.4947 20.2269 19.6737 20.0479C19.8527 19.8689 20.0808 19.747 20.3291 19.6976C20.5774 19.6482 20.8347 19.6735 21.0686 19.7704C21.3025 19.8673 21.5024 20.0314 21.6431 20.2419C21.7837 20.4524 21.8588 20.6998 21.8588 20.953C21.8588 21.2925 21.7239 21.618 21.4839 21.8581C21.2438 22.0981 20.9183 22.233 20.5788 22.233Z" fill="white"/>
</svg>
