<svg width="40" height="40" viewBox="0 0 40 40" fill="none" xmlns="http://www.w3.org/2000/svg">
<path d="M19.0937 0.0210867C8.06072 0.518494 -0.481504 9.86664 0.0210884 20.9026C0.523681 31.9385 9.87035 40.4755 20.9048 39.9792C31.9392 39.4829 40.48 30.1274 39.9789 19.0944C39.4778 8.06146 30.1311 -0.481506 19.0937 0.0210867Z" fill="#F37321"/>
<path d="M31.973 21.1507C31.7978 19.4322 30.7508 17.8708 29.19 16.7115C29.6093 14.5404 29.0667 12.4804 27.4548 11.0163C24.1215 7.99001 17.4867 8.65075 12.6319 12.4978C7.77705 16.3448 6.53964 21.9122 9.87001 24.9378C11.1996 26.1482 13.0604 26.7674 15.1196 26.8307C15.4365 27.7212 15.9564 28.5257 16.6382 29.1804C19.1982 31.6322 23.4004 31.4059 26.0148 28.6722C26.4752 28.1925 26.8673 27.6518 27.1804 27.0652C30.2452 26.193 32.2541 23.8833 31.973 21.1507ZM10.367 21.3045C9.33668 17.3633 12.2989 12.7445 16.9782 10.9893C21.6574 9.23408 26.2867 11.01 27.3156 14.9522C27.3799 15.1978 27.4294 15.447 27.4637 15.6985C26.0778 15.0712 24.5757 14.7415 23.0545 14.7307C18.4841 14.6937 15.0719 17.5085 15.4311 21.0156C15.449 21.187 15.4757 21.3573 15.5111 21.5259C14.8614 22.7931 14.6226 24.2312 14.8278 25.6404C12.6319 25.0252 10.9415 23.5019 10.3689 21.307L10.367 21.3045ZM26.7067 19.9378C26.5258 19.7055 26.3285 19.4866 26.1163 19.2826C23.5885 16.8626 19.4659 17.053 16.8437 19.6826C16.9726 17.1322 19.7941 15.1722 23.4837 15.2011C24.8677 15.2081 26.2353 15.5016 27.5004 16.063C27.5996 17.357 27.3093 18.6885 26.7067 19.9363V19.9378ZM26.4474 25.2893C25.8422 25.4014 25.2277 25.4549 24.6122 25.4493C23.7708 25.4422 22.9335 25.3312 22.1193 25.1189C23.0278 24.6461 23.8893 24.0881 24.6922 23.4522C25.3619 22.9251 25.9851 22.3416 26.5552 21.7082C26.9007 22.8829 26.8634 24.1371 26.4489 25.2893H26.4474ZM15.6878 22.1837C16.1782 23.6104 17.2685 24.8752 18.7211 25.8063C17.7116 25.9829 16.6798 25.9904 15.6678 25.8285C15.2785 24.6436 15.2856 23.3643 15.6878 22.1837ZM21.4926 24.9374C18.9667 24.1 17.0852 22.32 16.863 20.2752C16.8574 20.2285 16.8533 20.183 16.8504 20.1374C16.9304 20.0456 17.0104 19.9522 17.0952 19.8656C19.3463 17.5141 22.9589 17.3196 25.1622 19.4285C25.5887 19.8372 25.9426 20.3155 26.2085 20.843C25.1478 22.5315 23.5093 24.0045 21.4926 24.9363V24.9374ZM25.0763 27.5063C22.8267 29.8608 19.2141 30.0541 17.0093 27.943C16.6629 27.6123 16.3638 27.2354 16.1204 26.823C17.247 26.7565 18.3615 26.5543 19.4396 26.2207C20.9574 27.0093 22.6405 27.4267 24.3508 27.4385C24.6252 27.4385 24.8956 27.4319 25.1619 27.4145C25.1333 27.4422 25.1059 27.4745 25.0763 27.5048V27.5063ZM27.9245 24.8767C28.1566 23.4928 27.932 22.0709 27.2845 20.8259C28.2074 19.5926 28.8285 18.2948 29.1245 17.0259C30.3096 17.9319 31.0963 19.1059 31.2356 20.3859C31.4485 22.3437 30.0941 24.0326 27.923 24.8767H27.9245Z" fill="white"/>
</svg>
