<svg width="40" height="40" viewBox="0 0 40 40" fill="none" xmlns="http://www.w3.org/2000/svg">
<path d="M19.0937 0.0210867C8.05998 0.518494 -0.481503 9.86664 0.0210901 20.9026C0.523683 31.9385 9.86961 40.4755 20.9048 39.9792C31.94 39.4829 40.48 30.1274 39.9789 19.0944C39.4778 8.06146 30.1311 -0.481506 19.0937 0.0210867Z" fill="#1D2087"/>
<path d="M12.897 24.0486C12.3599 24.0482 11.8315 23.9126 11.3605 23.6542C10.8895 23.3959 10.4912 23.0231 10.2022 22.5703C9.91316 22.1175 9.74278 21.5993 9.70674 21.0633C9.67071 20.5273 9.77017 19.9909 9.99596 19.5035C10.2218 19.0161 10.5666 18.5934 10.9987 18.2743C11.4309 17.9552 11.9364 17.7501 12.4687 17.6778C13.0009 17.6054 13.5429 17.6683 14.0445 17.8604C14.5461 18.0526 14.9912 18.368 15.3389 18.7775L16.5389 17.5775C15.8927 16.8565 15.0471 16.3432 14.1092 16.1027C13.1713 15.8622 12.1831 15.9051 11.2696 16.2262C10.3561 16.5472 9.55836 17.1319 8.97716 17.9064C8.39597 18.6808 8.05745 19.6102 8.00442 20.577C7.95139 21.5438 8.18623 22.5046 8.67924 23.338C9.17225 24.1714 9.90129 24.8398 10.7742 25.2588C11.6471 25.6779 12.6246 25.8287 13.5832 25.6922C14.5418 25.5557 15.4384 25.138 16.1596 24.4919C16.2782 24.3855 16.3915 24.2735 16.4996 24.156L15.2996 22.956C15.0003 23.299 14.631 23.5739 14.2166 23.7624C13.8022 23.9508 13.3523 24.0484 12.897 24.0486Z" fill="white"/>
<path d="M19.2697 15.9492H17.209V25.7188H19.2697V15.9492Z" fill="white"/>
<path d="M30.0559 15.9492H27.9951V25.7188H30.0559V15.9492Z" fill="white"/>
<path d="M24.494 23.6823V17.946H26.1692V16.1742H24.494V13.4375L22.4325 14.4534V16.1742H20.7773V17.946H22.4336V23.6823C22.4336 23.6823 22.4707 25.726 24.4759 25.726C26.481 25.726 26.931 24.7405 26.931 23.6623H25.3122C25.3122 23.6623 24.9348 24.1079 24.494 23.6823Z" fill="white"/>
<path d="M23.5863 12.079C25.6974 12.079 27.6604 13.0698 29.2871 14.7631H32C29.8015 12.1409 26.8434 10.5312 23.5863 10.5312C20.3293 10.5312 17.3704 12.1409 15.1719 14.7631H17.8848C19.5104 13.0705 21.473 12.079 23.5863 12.079Z" fill="#E50012"/>
</svg>
