<svg width="20" height="20" viewBox="0 0 20 20" fill="none" xmlns="http://www.w3.org/2000/svg">
<path fill-rule="evenodd" clip-rule="evenodd" d="M14.1924 2.05862C14.1343 2.00041 14.0653 1.95423 13.9894 1.92273C13.9135 1.89122 13.8321 1.875 13.7499 1.875C13.6677 1.875 13.5862 1.89122 13.5103 1.92273C13.4344 1.95423 13.3654 2.00041 13.3074 2.05862L5.80736 9.55862C5.74916 9.61668 5.70298 9.68565 5.67147 9.76158C5.63996 9.83751 5.62374 9.91891 5.62374 10.0011C5.62374 10.0833 5.63996 10.1647 5.67147 10.2407C5.70298 10.3166 5.74916 10.3856 5.80736 10.4436L13.3074 17.9436C13.4247 18.061 13.5839 18.1269 13.7499 18.1269C13.9158 18.1269 14.075 18.061 14.1924 17.9436C14.3097 17.8263 14.3756 17.6671 14.3756 17.5011C14.3756 17.3352 14.3097 17.176 14.1924 17.0586L7.13361 10.0011L14.1924 2.94362C14.2506 2.88556 14.2967 2.81659 14.3283 2.74066C14.3598 2.66473 14.376 2.58333 14.376 2.50112C14.376 2.41891 14.3598 2.33751 14.3283 2.26158C14.2967 2.18564 14.2506 2.11667 14.1924 2.05862Z" fill="black"/>
</svg>
