<svg width="20" height="20" viewBox="0 0 20 20" fill="none" xmlns="http://www.w3.org/2000/svg">
<path fill-rule="evenodd" clip-rule="evenodd" d="M17.3173 2.68362C17.3755 2.74167 17.4217 2.81064 17.4532 2.88658C17.4847 2.96251 17.5009 3.04391 17.5009 3.12612C17.5009 3.20833 17.4847 3.28973 17.4532 3.36566C17.4217 3.44159 17.3755 3.51056 17.3173 3.56862L3.56731 17.3186C3.44995 17.436 3.29078 17.5019 3.12481 17.5019C2.95884 17.5019 2.79967 17.436 2.68231 17.3186C2.56495 17.2013 2.49902 17.0421 2.49902 16.8761C2.49902 16.7102 2.56495 16.551 2.68231 16.4336L16.4323 2.68362C16.4904 2.62541 16.5593 2.57923 16.6353 2.54773C16.7112 2.51622 16.7926 2.5 16.8748 2.5C16.957 2.5 17.0384 2.51622 17.1144 2.54773C17.1903 2.57923 17.2593 2.62541 17.3173 2.68362Z" fill="black"/>
<path fill-rule="evenodd" clip-rule="evenodd" d="M2.68264 2.68362C2.62444 2.74167 2.57826 2.81064 2.54675 2.88658C2.51524 2.96251 2.49902 3.04391 2.49902 3.12612C2.49902 3.20833 2.51524 3.28973 2.54675 3.36566C2.57826 3.44159 2.62444 3.51056 2.68264 3.56862L16.4326 17.3186C16.55 17.436 16.7092 17.5019 16.8751 17.5019C17.0411 17.5019 17.2003 17.436 17.3176 17.3186C17.435 17.2013 17.5009 17.0421 17.5009 16.8761C17.5009 16.7102 17.435 16.551 17.3176 16.4336L3.56764 2.68362C3.50958 2.62541 3.44061 2.57923 3.36468 2.54773C3.28875 2.51622 3.20735 2.5 3.12514 2.5C3.04293 2.5 2.96153 2.51622 2.8856 2.54773C2.80967 2.57923 2.7407 2.62541 2.68264 2.68362Z" fill="black"/>
</svg>
