<svg width="110" height="111" viewBox="0 0 110 111" fill="none" xmlns="http://www.w3.org/2000/svg">
<rect width="71.4158" height="43.5336" rx="4" transform="matrix(0.860292 0.512551 -0.520555 0.852202 29.6611 12.9102)" fill="#9963DC"/>
<rect width="71.4158" height="10.6303" transform="matrix(0.860292 0.512551 -0.520555 0.852202 24.915 20.6797)" fill="#202020"/>
<rect width="49.2869" height="6.83376" rx="1" transform="matrix(0.860292 0.512551 -0.520555 0.852202 26.2549 39.7266)" fill="#DFDADA"/>
<path d="M27.1528 72.9866C27.6576 74.1682 27.109 75.5353 25.9274 76.0401C24.7458 76.5449 23.3788 75.9963 22.8739 74.8146C22.3691 73.633 22.9178 72.2659 24.0994 71.7611C25.2809 71.2563 26.648 71.8049 27.1528 72.9866Z" stroke="#F4EBFF" stroke-width="2"/>
<path d="M100.429 75.1428C100.934 76.3244 100.385 77.6915 99.2038 78.1963C98.0222 78.7011 96.6551 78.1525 96.1503 76.9709C95.6455 75.7893 96.1942 74.4222 97.3757 73.9174C98.5573 73.4126 99.9244 73.9612 100.429 75.1428Z" stroke="#E9D8FF" stroke-width="2"/>
<path d="M76.1454 27.7907C76.7045 29.0993 76.0969 30.6133 74.7883 31.1723C73.4798 31.7314 71.9658 31.1238 71.4067 29.8152C70.8477 28.5066 71.4553 26.9926 72.7638 26.4336C74.0724 25.8745 75.5864 26.4821 76.1454 27.7907Z" stroke="#CDA6FE" stroke-width="1.5"/>
<path d="M60.8999 89.3116C61.3328 90.3248 60.8623 91.497 59.8492 91.9299C58.836 92.3627 57.6638 91.8923 57.231 90.8791C56.7981 89.8659 57.2686 88.6937 58.2817 88.2609C59.2949 87.828 60.4671 88.2984 60.8999 89.3116Z" stroke="#CDA6FE"/>
<path d="M59.5549 11.2151C60.2402 12.819 59.4954 14.6748 57.8915 15.3601C56.2876 16.0453 54.4318 15.3006 53.7466 13.6966C53.0613 12.0926 53.8061 10.2368 55.41 9.55157C57.0139 8.86631 58.8697 9.61106 59.5549 11.2151Z" stroke="#F4EBFF" stroke-width="2"/>
<rect width="1.33062" height="9.14795" rx="0.665308" transform="matrix(0.866015 0.500004 -0.499996 0.866036 41.2227 86.8594)" fill="#D7B8FE"/>
<rect width="1.33061" height="9.14798" rx="0.665305" transform="matrix(-0.499996 0.866036 -0.866015 -0.500004 43.6113 92.9219)" fill="#D7B8FE"/>
<rect width="1.33061" height="9.14796" rx="0.665306" transform="matrix(0.928045 0.372449 -0.372442 0.928063 13.8115 23.9297)" fill="#D6B7FE"/>
<rect width="1.33061" height="9.14796" rx="0.665306" transform="matrix(-0.372442 0.928063 -0.928045 -0.372449 17.0205 29.5938)" fill="#D6B7FE"/>
</svg>
