<svg width="16" height="16" viewBox="0 0 16 16" fill="none" xmlns="http://www.w3.org/2000/svg">
<g clip-path="url(#clip0_3733_92794)">
<path d="M4.54 0.146C4.63371 0.052531 4.76065 2.8119e-05 4.893 0L11.107 0C11.2394 2.8119e-05 11.3663 0.052531 11.46 0.146L15.854 4.54C15.9475 4.63371 16 4.76065 16 4.893V11.107C16 11.2394 15.9475 11.3663 15.854 11.46L11.46 15.854C11.3663 15.9475 11.2394 16 11.107 16H4.893C4.76065 16 4.63371 15.9475 4.54 15.854L0.146 11.46C0.052531 11.3663 2.8119e-05 11.2394 0 11.107L0 4.893C2.8119e-05 4.76065 0.052531 4.63371 0.146 4.54L4.54 0.146ZM5.1 1L1 5.1V10.9L5.1 15H10.9L15 10.9V5.1L10.9 1H5.1Z" fill="#FFC700"/>
<path d="M7.00195 11.0011C7.00195 10.8698 7.02782 10.7397 7.07807 10.6184C7.12833 10.4971 7.20199 10.3868 7.29485 10.294C7.38771 10.2011 7.49794 10.1275 7.61927 10.0772C7.7406 10.027 7.87063 10.0011 8.00195 10.0011C8.13328 10.0011 8.26331 10.027 8.38464 10.0772C8.50596 10.1275 8.6162 10.2011 8.70906 10.294C8.80192 10.3868 8.87558 10.4971 8.92583 10.6184C8.97609 10.7397 9.00195 10.8698 9.00195 11.0011C9.00195 11.2663 8.8966 11.5207 8.70906 11.7082C8.52152 11.8957 8.26717 12.0011 8.00195 12.0011C7.73674 12.0011 7.48238 11.8957 7.29485 11.7082C7.10731 11.5207 7.00195 11.2663 7.00195 11.0011ZM7.09995 4.99609C7.08664 4.86993 7.09999 4.74239 7.13915 4.62172C7.17831 4.50106 7.24241 4.38998 7.32727 4.29568C7.41214 4.20139 7.51588 4.12599 7.63176 4.07438C7.74765 4.02276 7.87309 3.99609 7.99995 3.99609C8.12681 3.99609 8.25226 4.02276 8.36814 4.07438C8.48403 4.12599 8.58777 4.20139 8.67263 4.29568C8.7575 4.38998 8.82159 4.50106 8.86075 4.62172C8.89991 4.74239 8.91327 4.86993 8.89995 4.99609L8.54995 8.50309C8.53819 8.64087 8.47516 8.76921 8.37331 8.86273C8.27146 8.95625 8.13823 9.00815 7.99995 9.00815C7.86168 9.00815 7.72844 8.95625 7.6266 8.86273C7.52475 8.76921 7.46171 8.64087 7.44995 8.50309L7.09995 4.99609Z" fill="#FFC700"/>
</g>
<defs>
<clipPath id="clip0_3733_92794">
<rect width="16" height="16" fill="white"/>
</clipPath>
</defs>
</svg>
