<svg width="16" height="16" viewBox="0 0 16 16" fill="none" xmlns="http://www.w3.org/2000/svg">
<path fill-rule="evenodd" clip-rule="evenodd" d="M13.8537 2.14689C13.9002 2.19334 13.9372 2.24852 13.9624 2.30926C13.9876 2.37001 14.0006 2.43513 14.0006 2.50089C14.0006 2.56666 13.9876 2.63178 13.9624 2.69253C13.9372 2.75327 13.9002 2.80845 13.8537 2.85489L2.85366 13.8549C2.75977 13.9488 2.63243 14.0015 2.49966 14.0015C2.36688 14.0015 2.23954 13.9488 2.14565 13.8549C2.05177 13.761 1.99902 13.6337 1.99902 13.5009C1.99902 13.3681 2.05177 13.2408 2.14565 13.1469L13.1457 2.14689C13.1921 2.10033 13.2473 2.06339 13.308 2.03818C13.3688 2.01297 13.4339 2 13.4997 2C13.5654 2 13.6305 2.01297 13.6913 2.03818C13.752 2.06339 13.8072 2.10033 13.8537 2.14689Z" fill="white"/>
<path fill-rule="evenodd" clip-rule="evenodd" d="M2.14592 2.14689C2.09935 2.19334 2.06241 2.24852 2.0372 2.30926C2.012 2.37001 1.99902 2.43513 1.99902 2.50089C1.99902 2.56666 2.012 2.63178 2.0372 2.69253C2.06241 2.75327 2.09935 2.80845 2.14592 2.85489L13.1459 13.8549C13.2398 13.9488 13.3671 14.0015 13.4999 14.0015C13.6327 14.0015 13.76 13.9488 13.8539 13.8549C13.9478 13.761 14.0006 13.6337 14.0006 13.5009C14.0006 13.3681 13.9478 13.2408 13.8539 13.1469L2.85392 2.14689C2.80747 2.10033 2.7523 2.06339 2.69155 2.03818C2.63081 2.01297 2.56568 2 2.49992 2C2.43415 2 2.36903 2.01297 2.30828 2.03818C2.24754 2.06339 2.19236 2.10033 2.14592 2.14689Z" fill="white"/>
</svg>
